<svg width="47" height="34" viewBox="0 0 47 34" fill="none" xmlns="http://www.w3.org/2000/svg">
<path d="M45.3982 11.055C45.218 10.7141 45.0378 10.4301 44.9177 10.0892C44.0768 8.15773 44.0768 6.6807 44.3771 4.80602C44.6174 3.44261 44.5573 2.76091 44.1368 2.24963C43.6563 1.68154 42.9355 1.62473 41.9144 1.51112H41.7342C41.4338 1.45431 41.1335 1.45431 40.8932 1.45431C38.5506 1.34069 37.2292 1.3975 36.6285 2.24963C36.0278 3.04495 36.4483 4.23793 37.2892 5.94219C37.7097 6.79432 37.8899 7.64645 38.01 8.27134C36.9889 8.32815 35.7876 8.78262 34.346 9.35071C31.4027 10.4869 27.3782 12.0775 22.4528 10.6573C16.6263 9.00986 11.7609 4.63559 9.11797 2.24963C7.85657 1.11346 7.31597 0.602179 6.8955 0.488561C6.29484 0.318135 5.51397 0.715795 5.0935 0.94303L4.85324 1.05665C4.55291 1.28388 4.13244 1.62473 3.95224 2.02239C3.53177 3.32899 3.47171 5.77176 4.49284 8.49858C4.13244 8.32815 3.89217 8.27134 3.65191 8.21454C3.05124 8.15773 2.39051 8.6122 1.84991 9.12347L1.66971 9.2939C1.36937 9.57794 1.00897 10.0324 1.00897 10.4869C0.888839 12.5888 1.97004 15.8837 4.55291 18.9514H4.49284C3.89217 19.065 3.35157 19.7467 2.99117 20.3716V20.5988C2.81097 20.9965 2.63077 21.5078 2.69084 21.9622C3.29151 24.2914 5.75424 27.6431 9.89884 29.9722C12.4216 31.3925 16.2659 32.7559 21.5518 32.7559C23.8944 32.7559 26.5373 32.4718 29.4205 31.7901C36.2681 30.1995 42.6352 25.598 45.218 20.2012C46.8398 17.0199 46.8999 13.8386 45.3982 11.055ZM5.03344 2.30644C5.03344 2.30644 5.0935 2.24963 5.0935 2.19282C5.21364 2.42005 5.39384 2.7041 5.57404 2.98814C7.13577 5.65815 10.5596 11.6799 18.6085 14.6907C13.623 13.4977 9.17804 11.055 6.5351 9.57794C6.3549 9.46432 6.17471 9.35071 5.9945 9.2939C4.73311 6.51028 4.5529 3.78346 5.03344 2.30644ZM2.15024 10.6005C2.15024 10.6005 2.15024 10.4869 2.27037 10.3733C2.45057 10.5437 2.75091 10.8845 3.05124 11.1686C5.57404 13.8386 11.5206 20.1443 22.3927 20.7692C22.7531 20.7692 23.0534 20.7692 23.4138 20.7692C24.495 20.7692 25.6363 20.6556 26.6574 20.4284C26.5373 20.4852 26.3571 20.4852 26.237 20.542C19.4494 22.0758 11.9411 20.3716 7.91664 19.4626C7.25591 19.2922 6.7153 19.1786 6.29484 19.1218C3.23144 16.1109 2.03011 12.5888 2.15024 10.6005ZM44.257 19.8603C41.7942 24.9163 35.7876 29.3473 29.2403 30.8244C12.5418 34.6305 4.73311 25.4844 3.77204 21.735C3.77204 21.6782 3.77204 21.6214 3.8321 21.4509C4.13244 21.5646 4.49284 21.7918 4.85324 22.019C8.27704 24.0073 16.2659 28.6088 27.3782 26.0524C34.7064 24.405 38.4305 19.065 40.5929 15.1452C40.713 14.918 40.653 14.5771 40.3526 14.4635C40.1124 14.3499 39.752 14.4067 39.6318 14.6907C37.5896 18.3833 33.9856 23.4961 27.0779 25.0867C16.386 27.5295 8.6975 23.0416 5.39384 21.1669C4.91331 20.8829 4.55291 20.6556 4.25257 20.542C4.49284 20.2012 4.73311 19.9739 4.85324 19.9739C5.15357 19.9171 6.41497 20.2012 7.61631 20.4852C10.4995 21.1669 15.1847 22.1895 20.1702 22.1895C22.2125 22.1895 24.3749 22.019 26.4172 21.5078C31.703 20.3148 34.8265 17.3039 37.3493 14.2362C37.5295 14.009 37.4694 13.6682 37.2292 13.4977C36.9889 13.3273 36.6285 13.3841 36.4483 13.6114C36.208 13.8954 35.9077 14.2362 35.6674 14.5203C31.4027 18.2697 27.0178 19.9739 22.3326 19.6899C11.9411 19.1218 6.17471 13.0433 3.71197 10.4301C3.35157 10.0324 3.11131 9.80518 2.87104 9.57794C3.17137 9.35071 3.41164 9.23709 3.53177 9.23709C3.8321 9.2939 4.85324 9.86199 5.87437 10.4301C9.35824 12.3616 15.8454 15.9405 22.693 16.3382C23.0534 16.3382 23.3538 16.3382 23.7142 16.3382C26.1168 16.3382 28.1591 15.8837 29.9611 15.1452H30.0212C30.0812 15.1452 30.0812 15.0884 30.1413 15.0884C32.4238 14.1794 34.2258 12.9297 35.7876 11.9071C36.3282 11.5662 36.8087 11.2254 37.2292 10.9413C37.4694 10.7709 37.5295 10.4869 37.4094 10.2596C37.2292 10.0324 36.9288 9.9756 36.6886 10.0892C36.208 10.3733 35.7275 10.7141 35.1869 11.055C33.6252 12.0775 31.8232 13.3273 29.5406 14.1794C26.5974 15.0316 23.7142 15.0884 20.9511 14.2931C11.821 11.7367 8.09684 5.20368 6.47504 2.42005C6.23477 2.02239 6.11464 1.73835 5.93444 1.51112C6.23477 1.3975 6.41497 1.34069 6.5351 1.34069C6.77537 1.45431 7.55624 2.13601 8.3371 2.87452C10.98 5.26049 15.9656 9.74837 22.0323 11.4526C23.534 11.8503 24.9756 12.0207 26.297 12.0207C29.6608 12.0207 32.4238 10.9413 34.6463 10.0892C36.208 9.46432 37.5295 8.95305 38.4305 9.12347H38.4906H38.5506C38.5506 9.12347 38.5506 9.12347 38.6107 9.12347C38.6708 9.12347 38.6708 9.12347 38.7308 9.06667C38.7308 9.06667 38.7909 9.06666 38.7909 9.00986C38.851 9.00986 38.851 8.95305 38.911 8.95305L38.9711 8.89624C38.9711 8.89624 39.0312 8.83943 39.0312 8.78262C39.0312 8.72581 39.0312 8.72581 39.0912 8.669C39.0912 8.669 39.0912 8.66901 39.0912 8.6122V8.55539V8.49858C39.0312 7.81688 38.851 6.45347 38.2503 5.20368C37.95 4.57878 37.1691 2.98814 37.5295 2.53367C37.8298 2.0792 39.4516 2.13601 40.8932 2.19282C41.1335 2.19282 41.3738 2.19282 41.614 2.24963H41.7942C42.5751 2.30644 43.1157 2.42005 43.2959 2.59048C43.4761 2.81771 43.4761 3.3858 43.356 4.35155C42.9956 6.33985 42.9956 8.04411 43.9566 10.2028C44.0768 10.5437 44.257 10.8845 44.4372 11.2254C45.7586 14.009 45.6986 16.8494 44.257 19.8603Z" fill="#333B41" stroke="#333B41" stroke-width="0.7"/>
<path d="M42.6964 18.8942C42.4561 18.7806 42.0957 18.8942 41.9756 19.1214C39.6931 23.7797 34.1069 27.8699 28.0401 29.2333C27.7398 29.2902 27.5596 29.5742 27.6197 29.8582C27.6797 30.0855 27.92 30.2559 28.1603 30.2559C28.2203 30.2559 28.2203 30.2559 28.2804 30.2559C34.7075 28.8357 40.5941 24.5182 42.9967 19.5759C43.1169 19.3487 42.9967 19.0646 42.6964 18.8942Z" fill="#333B41" stroke="#333B41" stroke-width="0.7"/>
</svg>
