<?xml version="1.0" encoding="utf-8"?>
<!-- Generator: Adobe Illustrator 24.0.0, SVG Export Plug-In . SVG Version: 6.00 Build 0)  -->
<svg version="1.1" id="Layer_1" xmlns="http://www.w3.org/2000/svg" xmlns:xlink="http://www.w3.org/1999/xlink" x="0px" y="0px"
	 viewBox="0 0 89 29" style="enable-background:new 0 0 89 29;" xml:space="preserve">
<style type="text/css">
	.st0{fill:#468E0D;}
</style>
<path class="st0" d="M42.2-29.5c-0.7,0.4,1.5,5.3,4.5,13.1c1.8,4.5,3.2,9.2,4.3,14c1.3,5.7,1.8,11.6,1.5,17.4
	c-0.4,5.8-1.8,11.5-4.2,16.7c-2,4.4-4.4,8.7-7.1,12.6c-2,2.9-3.8,5.2-5.2,6.9c0-0.9,0-1.8,0-2.6c-0.1-2.2-0.2-4.1-0.4-5.8
	c-0.4-3.3-1-5.3-1.8-5.4c-0.8,0-1.5,2-2.2,5.2c-0.3,1.6-0.6,3.6-0.8,5.7c-0.1,1.1-0.2,2.2-0.3,3.4c0,0.6-0.1,1.2-0.1,1.8l0,0.9
	c0,0.2,0,0.2,0,0.6c0,0.3,0,0.6,0.1,0.9c0.1,0.5,0.4,1,0.7,1.4c0.3,0.4,0.8,0.7,1.3,0.9c0.3,0.1,0.6,0.2,1,0.2c0.2,0,0.4,0,0.6,0
	l0.3,0c0.4,0,0.8-0.1,1.1-0.1c0.7-0.1,1.3-0.2,2-0.4c1.2-0.3,2.3-0.7,3.3-1c2.1-0.7,3.9-1.3,5.4-2c3.1-1.3,4.9-2.4,4.7-3.2
	c-0.2-0.8-2.3-1-5.6-0.7c-1.7,0.1-3.6,0.4-5.7,0.8c-0.2,0-0.4,0.1-0.7,0.1c2-1.7,3.8-3.4,5.5-5.4c3.4-3.9,6.3-8.2,8.7-12.9
	c3-5.8,4.7-12.1,5.1-18.6c0.4-6.4-0.3-12.9-2.1-19c-1.4-5-3.3-9.8-5.7-14.3C46.3-25.7,42.9-29.9,42.2-29.5z"/>
</svg>
