<svg width="39" height="31" viewBox="0 0 39 31" fill="none" xmlns="http://www.w3.org/2000/svg">
<path fill-rule="evenodd" clip-rule="evenodd" d="M10.0281 7.47967C9.95375 7.54533 9.87949 7.61091 9.80683 7.67817C9.63881 7.83027 9.47362 7.98478 9.31118 8.14118C7.91167 9.4889 6.66551 11.0304 5.77009 12.755C4.87349 14.4818 4.34072 16.3903 4.39048 18.2662C4.41296 19.1123 4.55708 20.0107 5.05329 20.765C5.13876 20.895 5.23464 21.0192 5.34041 21.136L7.11511 23.1282L7.13237 23.1475C7.3364 23.3766 7.58007 23.5756 7.86253 23.7295C8.287 23.9607 8.79043 24.0815 9.32401 24.0366C9.78642 23.9978 10.2213 23.8396 10.6072 23.6308C10.9914 23.423 11.3251 23.1677 11.6262 22.9102C12.2278 22.3958 12.7156 21.876 13.2338 21.5393C14.1593 20.9379 15.3583 20.7649 16.5668 20.7363C17.7824 20.7074 19.0867 20.8033 20.4561 20.4813C22.1224 20.0893 23.6672 19.088 24.7641 17.7397C25.8596 16.393 26.4856 14.7382 26.562 13.1112C26.6422 11.4016 26.1161 9.7478 25.0854 8.4836C25.0262 8.41094 24.9649 8.34017 24.9024 8.27042L23.1105 6.25895C22.0872 5.10629 20.6479 4.33715 19.051 4.10039C17.2889 3.83916 15.4272 4.22682 13.7556 4.99546C12.3878 5.62439 11.1478 6.49621 10.0291 7.47989L10.0281 7.47967ZM10.8067 8.29909C10.8858 8.22923 10.9664 8.16111 11.0467 8.09294C12.0124 7.27684 13.0539 6.57156 14.1658 6.06032C15.644 5.38057 17.2672 5.05435 18.746 5.27357C20.1575 5.48282 21.4453 6.20225 22.3081 7.26051C23.171 8.31887 23.6197 9.72856 23.5524 11.1613C23.4885 12.5242 22.9554 13.9251 22.0498 15.0382C21.1455 16.1497 19.8508 16.9854 18.4952 17.3043C17.3712 17.5687 16.1556 17.4951 14.8654 17.5257C13.5681 17.5565 12.1162 17.7196 10.8437 18.5466C10.1302 19.0102 9.60554 19.5857 9.08852 20.0279C8.8303 20.2485 8.57303 20.4406 8.31338 20.581C8.0555 20.7205 7.79034 20.8098 7.54844 20.8302C7.27147 20.8534 6.9788 20.7885 6.72871 20.6523C6.47658 20.515 6.25613 20.3027 6.08776 20.0467C5.74914 19.532 5.61643 18.8394 5.59698 18.1064C5.5535 16.4684 6.02288 14.7598 6.83327 13.199C7.64478 11.636 8.79272 10.208 10.1065 8.94284C10.3351 8.72272 10.5685 8.50766 10.8067 8.2991L10.8067 8.29909ZM11.5187 9.10678C11.2968 9.29969 11.0795 9.50114 10.8652 9.70767C9.63321 10.8941 8.57893 12.214 7.84737 13.6229C7.11923 15.0253 6.71027 16.5432 6.74771 17.9545C6.7643 18.5798 6.88623 19.076 7.07456 19.3622C7.16596 19.5012 7.27737 19.5992 7.36725 19.6482C7.45113 19.6938 7.54279 19.7055 7.57503 19.7028C7.60705 19.7 7.71043 19.6763 7.84592 19.603C7.98665 19.5269 8.17106 19.3955 8.38847 19.2096C8.82502 18.8363 9.38468 18.2078 10.2842 17.6232C11.8875 16.5813 13.5807 16.4273 14.9628 16.3946C16.3241 16.3623 17.4552 16.4145 18.3451 16.2052C19.4046 15.956 20.4609 15.2782 21.1815 14.3924C21.9059 13.5019 22.3504 12.3431 22.4026 11.2321C22.4574 10.0633 22.0824 8.88636 21.3796 8.02426C20.677 7.16249 19.6029 6.56284 18.4553 6.39269C17.2467 6.21354 15.8509 6.48116 14.557 7.07616C13.5775 7.52651 12.6347 8.16013 11.741 8.91559C11.6664 8.9784 11.5924 9.04224 11.5186 9.10677L11.5187 9.10678ZM16.7931 10.6213C17.2185 10.2456 17.7264 9.99741 18.205 9.93135C18.6836 9.86529 19.0938 9.98676 19.3453 10.2691C19.5968 10.5514 19.669 10.9714 19.546 11.4367C19.4231 11.902 19.115 12.3745 18.6896 12.7502C18.479 12.9363 18.2459 13.093 18.0036 13.2113C17.7614 13.3297 17.5147 13.4075 17.2777 13.4402C17.0407 13.473 16.818 13.46 16.6224 13.402C16.4267 13.3441 16.2619 13.2423 16.1374 13.1025C16.0129 12.9627 15.931 12.7877 15.8966 12.5873C15.8622 12.387 15.8758 12.1653 15.9367 11.9349C15.9976 11.7045 16.1045 11.4699 16.2515 11.2445C16.3985 11.0191 16.5825 10.8074 16.7931 10.6213Z" fill="#EE8383"/>
<path d="M34.1548 10.3444C32.258 12.0046 32.0298 15.2055 32.0298 15.2055C14.0887 11.5239 10.4856 25.0293 10.4856 25.0293C10.4856 25.0293 22.3294 32.5245 33.0109 17.7056C33.0109 17.7056 35.3578 19.9048 37.8827 19.8443C37.8827 19.8443 35.6864 18.1632 34.6856 15.613C33.6853 13.0631 34.1548 10.3444 34.1548 10.3444ZM14.9973 23.1122C14.5767 23.2758 14.0887 23.0331 13.9071 22.5703C13.7254 22.1074 13.919 21.5998 14.3396 21.4362C14.7601 21.2726 15.2481 21.515 15.4297 21.9778C15.6113 22.4407 15.4178 22.9486 14.9973 23.1122ZM19.0498 25.1835C19.0292 25.2864 18.9621 25.362 18.877 25.3951C18.8225 25.4163 18.7596 25.4197 18.6963 25.4001C18.5365 25.3515 18.4346 25.175 18.4694 25.0065C19.096 21.9747 16.8232 20.5788 16.7267 20.5208C16.5792 20.433 16.5179 20.2386 16.5898 20.0866C16.661 19.9344 16.8379 19.8814 16.9857 19.9684C17.0137 19.9852 19.7777 21.662 19.0498 25.1835Z" fill="#7A7871"/>
</svg>
