<svg width="161" height="139" viewBox="0 0 161 139" fill="none" xmlns="http://www.w3.org/2000/svg">
<g clip-path="url(#clip0_153_78)">
<path d="M141.16 110.81C147.278 98.979 152.255 84.4706 152.255 69.008C152.255 61.241 149.828 52.4118 145.765 45.3906C142.211 39.251 135.622 31.3188 124.401 28.3943C110.202 24.6937 95.815 28.1448 84.2547 30.9181C80.0769 31.9203 76.1307 32.8668 72.7506 33.3349C65.1706 34.3838 57.1621 34.2301 50.2778 33.9642H50.2733C49.1961 33.9225 48.1438 33.8783 47.128 33.8355C42.7785 33.6519 32.7615 33.4758 32.7615 33.4758C32.2149 31.152 30.9687 29.2482 29.4131 28.3694C28.7541 28.0032 28.0346 27.8176 27.3076 27.8262C26.5805 27.8348 25.8642 28.0373 25.2114 28.4189C23.0718 29.5737 22.0459 32.1395 22.5309 35.0362C19.1026 36.796 15.7533 40.2988 13.722 43.0532C11.978 45.418 10.499 49.1518 9.06822 52.7626C7.6114 56.4401 6.10521 60.2427 4.59783 61.7782C4.22883 62.151 3.90251 62.5799 3.62721 63.0538C3.62242 63.0538 3.61764 63.0506 3.61255 63.0496C3.29735 62.9739 2.97236 62.9776 2.65842 63.0604C2.34449 63.1432 2.04854 63.3033 1.78956 63.5303C1.53058 63.7574 1.31428 64.0464 1.15454 64.3789C0.994793 64.7114 0.895129 65.08 0.861937 65.4611C0.828745 65.8422 0.862759 66.2273 0.961795 66.5918C1.06083 66.9563 1.22271 67.2921 1.43704 67.5777C1.65137 67.8633 1.91342 68.0924 2.20639 68.2502C2.49937 68.408 2.81679 68.4912 3.13831 68.4943C3.41048 69.5046 3.77806 70.4749 4.23399 71.3864C7.26732 77.608 12.0656 81.4758 16.2991 84.8877C18.6328 86.7687 20.8368 88.5456 22.5443 90.5299C23.8254 92.0707 24.9397 93.7963 25.8613 95.6666C25.8715 95.6905 25.8849 95.7108 25.896 95.734C27.6293 99.1897 29.0041 103.406 29.2608 107.433C29.5855 112.52 30.3535 126.257 30.595 130.596C29.7609 130.912 28.9784 131.396 28.2815 132.027C27.7631 132.495 27.3827 133.146 27.1954 133.888C27.0081 134.629 27.0235 135.423 27.2394 136.153C27.4444 136.899 27.843 137.547 28.3777 138.005C28.9124 138.463 29.5554 138.706 30.2138 138.7H44.3918C44.8486 138.701 45.2999 138.582 45.7141 138.352C46.1282 138.123 46.495 137.788 46.7887 137.371C49.9244 132.928 57.7459 121.478 62.6956 111.09C81.8571 111.067 94.9437 110.239 102.577 108.558C103.714 117.124 105.216 126.883 105.765 130.403C105.291 130.667 104.843 130.992 104.428 131.373C103.861 131.894 103.445 132.613 103.239 133.43C103.032 134.247 103.045 135.121 103.276 135.929C103.507 136.737 103.944 137.438 104.526 137.935C105.108 138.432 105.807 138.699 106.523 138.699H119.812C120.598 138.698 121.361 138.377 121.972 137.788C126.355 133.552 134.374 123.875 141.061 111.004C141.098 110.942 141.131 110.878 141.16 110.81V110.81ZM47.5065 70.1004C43.2199 80.8045 35.6743 89.4632 27.6365 92.9949C26.7136 91.2744 25.6372 89.678 24.426 88.2336C22.5458 86.0485 20.2449 84.1943 17.8088 82.2306C13.62 78.8536 9.28724 75.3619 6.56329 69.7746C4.90511 66.3737 5.52446 65.0568 6.34846 64.2175C8.29508 62.2346 9.85393 58.2993 11.5046 54.1324C12.8552 50.7223 14.2519 47.1963 15.7458 45.1717C17.5536 42.7199 20.7686 39.3294 23.8797 37.8427C24.1853 37.6962 24.4601 37.4712 24.6845 37.1839C26.3852 40.1458 30.4358 39.7091 31.4525 37.012C31.5234 36.8183 31.576 36.6157 31.6093 36.4081C35.8906 37.0716 42.7124 36.8591 47.0332 37.0424C47.7656 37.0734 48.5208 37.1047 49.2856 37.1354C52.4365 47.6787 51.8151 59.3418 47.5065 70.1004ZM130.128 99.4892C127.618 98.9334 115.16 96.6884 104.711 103.986C104.214 99.9612 103.875 96.6146 103.875 94.9789C103.875 94.5534 103.733 94.1453 103.481 93.8445C103.228 93.5436 102.886 93.3746 102.529 93.3746C102.172 93.3746 101.829 93.5436 101.577 93.8445C101.324 94.1453 101.182 94.5534 101.182 94.9789C101.182 96.8784 101.589 100.793 102.166 105.386C95.6465 106.838 84.8959 107.645 69.4857 107.837C72.5534 105.617 74.9997 102.431 76.7863 98.287C79.2741 92.5197 80.3737 85.0053 79.9662 76.5562C79.5072 67.0372 73.3682 54.2154 68.4352 43.9142C67.2925 41.5288 66.1986 39.2438 65.2876 37.2217C67.882 37.0951 70.4907 36.8776 73.0603 36.5218C76.5514 36.0391 80.5508 35.0794 84.7849 34.0619C96.098 31.3477 110.177 27.9697 123.825 31.5274C142.574 36.416 149.562 57.1114 149.562 69.008C149.562 82.7005 145.478 95.6399 140.21 106.511C138.663 103.755 135.439 100.666 130.128 99.4892V99.4892Z" fill="black"/>
<path d="M18.8955 50.6019C13.4765 48.1068 10.3246 55.1143 13.7733 59.2295C15.6592 61.4787 17.452 66.6904 21.5498 66.2582C28.0602 65.5729 27.4607 54.5415 18.8955 50.6019ZM16.4406 57.3821C16.1193 57.3821 15.8051 57.267 15.5379 57.0514C15.2707 56.8358 15.0625 56.5294 14.9395 56.1709C14.8165 55.8124 14.7843 55.4179 14.847 55.0373C14.9097 54.6567 15.0645 54.3071 15.2917 54.0327C15.5189 53.7583 15.8085 53.5714 16.1237 53.4957C16.4388 53.42 16.7655 53.4588 17.0624 53.6074C17.3593 53.7559 17.6131 54.0073 17.7917 54.33C17.9702 54.6526 18.0655 55.032 18.0655 55.42C18.0654 55.9404 17.8942 56.4394 17.5895 56.8073C17.2848 57.1752 16.8716 57.382 16.4406 57.3821V57.3821Z" fill="black"/>
<path d="M77.1638 114.161C77.1472 114.082 77.1086 114.012 77.0542 113.962C76.9997 113.912 76.9327 113.886 76.8638 113.887C75.3944 113.905 67.6157 114.001 64.3177 114.017C64.2669 114.016 64.217 114.032 64.1727 114.061C64.1284 114.09 64.0911 114.132 64.0645 114.183C61.9445 118.16 58.2259 124.35 55.7699 128.379C55.7295 128.445 55.7095 128.526 55.7134 128.607C55.7172 128.689 55.7446 128.767 55.791 128.827L59.2228 133.368L59.1861 133.433C59.1739 133.458 59.1587 133.483 59.1464 133.508C58.8787 134.026 58.7327 134.619 58.7233 135.225C58.714 135.832 58.8418 136.431 59.0935 136.959C59.3451 137.488 59.7116 137.929 60.1552 138.235C60.5988 138.541 61.1035 138.702 61.6174 138.701H76.2108C76.5968 138.701 76.9789 138.61 77.3345 138.432C77.6901 138.255 78.0122 137.996 78.2817 137.67C78.5512 137.343 78.7627 136.957 78.9038 136.533C79.0449 136.108 79.1127 135.655 79.1032 135.2C79.0544 132.852 78.9261 129.167 78.6084 125.167C78.3454 121.463 77.8627 117.785 77.1638 114.161Z" fill="black"/>
<path d="M149.114 100.962C149.095 100.893 149.058 100.833 149.01 100.79C148.961 100.747 148.903 100.723 148.843 100.721C148.783 100.719 148.724 100.739 148.674 100.778C148.623 100.818 148.584 100.875 148.561 100.942C148.164 102.115 147.718 103.263 147.225 104.382C143.107 113.749 138.112 122.509 132.34 130.487C132.291 130.554 132.264 130.641 132.266 130.731C132.267 130.82 132.296 130.906 132.347 130.971L133.345 132.249C133.052 132.67 132.806 133.137 132.614 133.636C132.407 134.189 132.319 134.795 132.357 135.4C132.395 136.005 132.559 136.588 132.833 137.095C133.076 137.578 133.416 137.978 133.821 138.259C134.226 138.54 134.683 138.692 135.149 138.702H150.299C150.673 138.702 151.044 138.611 151.388 138.435C151.733 138.258 152.045 138 152.307 137.675C152.568 137.35 152.773 136.965 152.91 136.543C153.047 136.12 153.113 135.669 153.104 135.215C152.954 127.909 152.259 111.718 149.114 100.962Z" fill="black"/>
</g>
<defs>
<clipPath id="clip0_153_78">
<rect width="160.15" height="138.722" fill="white" transform="translate(0.849609 0.27832)"/>
</clipPath>
</defs>
</svg>
