<?xml version="1.0" encoding="utf-8"?>
<!-- Generator: Adobe Illustrator 24.0.0, SVG Export Plug-In . SVG Version: 6.00 Build 0)  -->
<svg version="1.1" id="Layer_1" xmlns="http://www.w3.org/2000/svg" xmlns:xlink="http://www.w3.org/1999/xlink" x="0px" y="0px"
	 viewBox="0 0 64 30" style="enable-background:new 0 0 64 30;" xml:space="preserve">
<style type="text/css">
	.st0{fill:#E47209;}
</style>
<path class="st0" d="M19.6,18.4c-0.2-0.2-0.3-0.5-0.5-0.7c0,0,0,0,0,0c0,0,0,0,0,0c-0.6-0.1-2.2-0.3-3.3-0.4c0,0,0,0-0.1,0
	c0,0,0,0,0,0c0,0,0,0,0,0c0,0,0,0,0,0.1c0,0.3,0,0.7,0,0.9c-0.4,0.4-0.8,0.8-1.1,1.3c-0.1,0.2-0.2,0.4-0.2,0.6c0,0.2,0,0.4,0.1,0.6
	c0.1,0.2,0.2,0.4,0.4,0.5c0.2,0.1,0.3,0.2,0.5,0.2h2c0.2,0,0.3,0,0.5-0.1c0.1-0.1,0.3-0.2,0.4-0.4l1.5-2.4
	C19.6,18.6,19.6,18.6,19.6,18.4C19.6,18.5,19.6,18.5,19.6,18.4z M61.6,10.7c-1.7-1.9-4.3-3.6-7.9-5.2C46.9,2.5,30.6,0.1,30,0
	c-0.1,0-0.1,0-0.2,0l-5.6,1.7h-8.2c-1.6,0-4.3,0.7-5,2.7C8.8,5.7,6.4,7.3,5.7,7.7C5.1,7.6,2.9,7.5,1,8.6C0.7,8.8,0.4,9.1,0.2,9.5
	C0.1,9.9,0,10.3,0,10.7c0,0.4,0.1,0.8,0.4,1.2c0.2,0.3,0.5,0.6,0.8,0.8c0,0,0,0,0,0c0.2,0.1,5.5,1.9,7.4,2.2
	c0.6,0.1,1.2,0.2,1.8,0.3c1.2,0.2,2.4,0.4,3.9,0.6c0,0,0,0,0,0c0,0,0,0,0,0l5.3,0.7c0,0,1.1,1.8,1.3,2c-0.3,0.4-0.5,0.9-0.7,1.4
	c-0.1,0.2-0.1,0.4-0.1,0.5s0.1,0.4,0.2,0.5c0.1,0.2,0.2,0.3,0.3,0.4c0.1,0.1,0.3,0.1,0.4,0.1h2.1c0.2,0,0.3,0,0.5-0.1
	c0.1-0.1,0.3-0.2,0.4-0.4l1.5-2.3c0.1-0.2,0.2-0.5,0.2-0.8c0-0.2,0-0.5,0-0.9c0,0,0,0,0-0.1c0,0,0,0,0-0.1c0,0,0,0,0,0
	c0,0,0,0,0.1,0c1.5,0,7.2,0,9.1-0.1c0,0,0.1,0,0.1,0c0,0,0,0.1,0,0.1c0.1,0.3,0.1,0.7,0.1,1c-0.6,0.4-1.1,1-1.5,1.7
	c-0.1,0.2-0.2,0.4-0.2,0.6c0,0.2,0,0.4,0.1,0.6c0.1,0.2,0.2,0.3,0.3,0.4c0.1,0.1,0.3,0.2,0.5,0.2h2.8c0.2,0,0.4-0.1,0.6-0.2
	c0.5-0.5,1.8-1.8,2-2c0,0,0-0.1,0.1-0.1l1.3-3.1l0.2,0c0.4,0,1.1-0.1,1.9-0.1c2.8-0.1,8.2-0.9,10.2-1.3c0.8-0.2,2.1,0.5,2.7,1.4
	c0.2,0.3,0.5,0.8,0.4,1.4c-0.5,2-2.6,3.8-6,5.2c-4.2,1.7-17.2,2.3-22.6,2.4c-0.3,0-0.6,0.1-0.8,0.4c-0.2,0.2-0.4,0.6-0.4,0.9
	c-0.1,0.4,0,0.7,0.2,1.1c0.2,0.3,0.4,0.6,0.7,0.7c2.3,1.1,6.3,1.8,11.3,1.8c4.2,0,9.2-0.5,14.6-1.8C60.8,26.4,64,21,64,16.6
	C64,14.5,63.2,12.4,61.6,10.7z M12.3,6c0.1,0,0.3,0,0.4,0.1c0.1,0.1,0.2,0.2,0.3,0.4C13,6.7,13,6.8,13,7c0,0.2-0.1,0.3-0.2,0.4
	c-0.1,0.1-0.2,0.2-0.4,0.2c-0.1,0-0.3,0-0.4,0c-0.1-0.1-0.2-0.2-0.3-0.3c-0.1-0.1-0.1-0.3-0.1-0.5c0-0.2,0.1-0.4,0.2-0.6
	C11.9,6.1,12.1,6,12.3,6z M10.6,13.9c-0.7-0.1-1.3-0.2-1.8-0.3c-1.3-0.2-4.6-1.3-6.2-1.8c0.6,0.1,1,0.1,1,0.1c0.3,0,1.1,0,2.1,0.1
	c0.8,0,1.7,0.1,2.5,0.1l0.7,1c0,0,0,0,0.1,0.1c0,0,0.1,0,0.1,0s0.1,0,0.1,0c0,0,0,0,0.1-0.1l0.4-1c0.2,0,0.5,0,0.7,0l0.6,1
	c0,0,0,0,0.1,0.1c0,0,0,0,0.1,0c0,0,0.1,0,0.1,0c0,0,0,0,0.1-0.1l0.6-1c2.1-0.2,5.6-0.4,7.5,3.2C15.7,14.7,12.9,14.2,10.6,13.9z
	 M40.5,20.1c0,0.2,0,0.4,0,0.6c0,0.2,0.1,0.4,0.3,0.5c0.2,0.2,0.4,0.3,0.7,0.3h2.7c0.2,0,0.3,0,0.5-0.1c0.1-0.1,0.3-0.2,0.4-0.4
	l1.7-2.6c0.1-0.2,0.2-0.3,0.2-0.5c0-0.2,0-0.4,0-0.6l0-0.5c0,0,0-0.1,0-0.1c0,0-0.1,0-0.1,0c-1.2,0.1-4.2,0.3-4.9,0.4
	c0,0-0.1,0-0.1,0c0,0,0,0.1,0,0.1c0,0.3,0,0.5,0,0.8c-0.3,0.2-0.6,0.5-0.8,0.9C40.8,19.2,40.6,19.6,40.5,20.1z"/>
</svg>
