<?xml version="1.0" encoding="utf-8"?>
<!-- Generator: Adobe Illustrator 24.0.0, SVG Export Plug-In . SVG Version: 6.00 Build 0)  -->
<svg version="1.1" id="Layer_1" xmlns="http://www.w3.org/2000/svg" xmlns:xlink="http://www.w3.org/1999/xlink" x="0px" y="0px"
	 viewBox="0 0 42 20" style="enable-background:new 0 0 42 20;" xml:space="preserve">
<style type="text/css">
	.st0{fill:#E47209;}
</style>
<path class="st0" d="M12.8,12c-0.1-0.2-0.2-0.3-0.3-0.5c0,0,0,0,0,0c0,0,0,0,0,0c-0.4,0-1.4-0.2-2.2-0.3c0,0,0,0,0,0c0,0,0,0,0,0
	c0,0,0,0,0,0c0,0,0,0,0,0c0,0.2,0,0.4,0,0.6c-0.3,0.3-0.5,0.5-0.7,0.9c-0.1,0.1-0.1,0.2-0.1,0.4c0,0.1,0,0.3,0.1,0.4
	c0.1,0.1,0.1,0.2,0.2,0.3C9.8,13.9,9.9,14,10,14h1.3c0.1,0,0.2,0,0.3-0.1s0.2-0.1,0.2-0.2l1-1.6C12.9,12.1,12.9,12.1,12.8,12
	C12.9,12,12.9,12,12.8,12z M40.1,6.9C39,5.7,37.4,4.6,35,3.6c-4.4-2-15-3.5-15.4-3.6c0,0-0.1,0-0.1,0l-3.7,1.1h-5.4
	c-1,0-2.8,0.5-3.3,1.7C5.8,3.7,4.2,4.7,3.8,5C3.4,5,2,4.9,0.8,5.6C0.5,5.7,0.4,5.9,0.3,6.2S0.1,6.7,0.1,7c0,0.3,0.1,0.5,0.2,0.8
	C0.5,8,0.7,8.1,0.9,8.2c0,0,0,0,0,0c0.1,0.1,3.6,1.2,4.8,1.4c0.4,0.1,0.7,0.1,1.2,0.2c0.7,0.1,1.6,0.3,2.5,0.4c0,0,0,0,0,0
	c0,0,0,0,0,0l3.5,0.4c0,0,0.7,1.1,0.9,1.3c-0.2,0.3-0.3,0.6-0.5,0.9c0,0.1-0.1,0.2,0,0.4c0,0.1,0,0.2,0.1,0.3
	c0.1,0.1,0.1,0.2,0.2,0.2s0.2,0.1,0.3,0.1h1.3c0.1,0,0.2,0,0.3-0.1c0.1-0.1,0.2-0.1,0.2-0.2l1-1.5c0.1-0.1,0.1-0.3,0.2-0.5
	c0-0.1,0-0.3,0-0.6c0,0,0,0,0,0c0,0,0,0,0,0c0,0,0,0,0,0c0,0,0,0,0,0c1,0,4.7,0,5.9,0c0,0,0,0,0.1,0c0,0,0,0,0,0.1
	c0,0.2,0.1,0.4,0,0.7c-0.4,0.3-0.7,0.7-1,1.1c-0.1,0.1-0.1,0.2-0.1,0.4c0,0.1,0,0.3,0.1,0.4c0.1,0.1,0.1,0.2,0.2,0.3
	c0.1,0.1,0.2,0.1,0.3,0.1h1.8c0.1,0,0.3,0,0.4-0.1c0.3-0.3,1.1-1.2,1.3-1.3c0,0,0,0,0-0.1l0.8-2l0.1,0c0.2,0,0.7-0.1,1.3-0.1
	c1.9-0.1,5.3-0.6,6.6-0.9c0.5-0.1,1.3,0.3,1.8,0.9c0.1,0.2,0.4,0.5,0.3,0.9c-0.3,1.3-1.7,2.5-3.9,3.4c-2.7,1.1-11.2,1.5-14.7,1.6
	c-0.2,0-0.4,0.1-0.5,0.3c-0.2,0.2-0.3,0.4-0.3,0.6c0,0.2,0,0.5,0.1,0.7c0.1,0.2,0.3,0.4,0.4,0.5c1.5,0.7,4.1,1.2,7.4,1.2
	c2.8,0,6-0.3,9.5-1.2c4.6-1.1,6.7-4.7,6.7-7.5C41.7,9.4,41.2,8.1,40.1,6.9z M8.1,3.9c0.1,0,0.2,0,0.3,0.1C8.4,4,8.5,4.1,8.5,4.2
	c0,0.1,0,0.2,0,0.3c0,0.1-0.1,0.2-0.1,0.3C8.3,4.9,8.2,5,8.2,5C8.1,5,8,5,7.9,4.9c-0.1,0-0.2-0.1-0.2-0.2C7.6,4.7,7.6,4.5,7.6,4.4
	c0-0.1,0-0.3,0.1-0.4C7.8,3.9,7.9,3.9,8.1,3.9z M7,9C6.6,8.9,6.2,8.9,5.8,8.8C4.9,8.7,2.8,8,1.8,7.6c0.4,0,0.6,0.1,0.6,0.1
	c0.2,0,0.7,0,1.4,0c0.5,0,1.1,0,1.7,0l0.5,0.7c0,0,0,0,0,0c0,0,0,0,0.1,0c0,0,0,0,0,0c0,0,0,0,0,0l0.3-0.6c0.2,0,0.3,0,0.4,0
	l0.4,0.6c0,0,0,0,0,0c0,0,0,0,0,0c0,0,0,0,0,0c0,0,0,0,0,0l0.4-0.7c1.4-0.1,3.6-0.3,4.9,2.1C10.3,9.6,8.5,9.3,7,9z M26.5,13
	c0,0.1,0,0.3,0,0.4c0,0.1,0.1,0.2,0.2,0.3c0.1,0.1,0.3,0.2,0.5,0.2h1.8c0.1,0,0.2,0,0.3-0.1c0.1-0.1,0.2-0.1,0.2-0.2l1.1-1.7
	c0.1-0.1,0.1-0.2,0.1-0.3c0-0.1,0-0.3,0-0.4l0-0.3c0,0,0,0,0-0.1c0,0,0,0-0.1,0c-0.7,0.1-2.7,0.2-3.2,0.2c0,0,0,0-0.1,0
	c0,0,0,0,0,0.1c0,0.2,0,0.3,0,0.5c-0.2,0.1-0.4,0.3-0.5,0.6C26.6,12.5,26.5,12.8,26.5,13z"/>
</svg>
