<?xml version="1.0" encoding="utf-8"?>
<!-- Generator: Adobe Illustrator 24.0.0, SVG Export Plug-In . SVG Version: 6.00 Build 0)  -->
<svg version="1.1" xmlns="http://www.w3.org/2000/svg" xmlns:xlink="http://www.w3.org/1999/xlink" x="0px" y="0px"
	 viewBox="0 0 284 246" style="enable-background:new 0 0 284 246;" xml:space="preserve">
<style type="text/css">
	.st0{display:none;}
	.st1{display:inline;}
	.st2{clip-path:url(#SVGID_2_);}
	.st3{clip-path:url(#SVGID_4_);}
</style>
<g id="Layer_1" class="st0">
	<g class="st1">
		<defs>
			<rect id="SVGID_1_" width="284" height="246"/>
		</defs>
		<clipPath id="SVGID_2_">
			<use xlink:href="#SVGID_1_"  style="overflow:visible;"/>
		</clipPath>
		<g class="st2">
			<path d="M248.8,196c10.8-21,19.7-46.7,19.7-74.1c0-13.8-4.3-29.4-11.5-41.9c-6.3-10.9-18-25-37.9-30.1
				c-25.2-6.6-50.7-0.4-71.2,4.5c-7.4,1.8-14.4,3.5-20.4,4.3c-13.4,1.9-27.6,1.6-39.9,1.1h0c-1.9-0.1-3.8-0.2-5.6-0.2
				c-7.7-0.3-25.5-0.6-25.5-0.6c-1-4.1-3.2-7.5-5.9-9.1c-1.2-0.6-2.4-1-3.7-1c-1.3,0-2.6,0.4-3.7,1.1c-3.8,2-5.6,6.6-4.8,11.7
				c-6.1,3.1-12,9.3-15.6,14.2c-3.1,4.2-5.7,10.8-8.3,17.2c-2.6,6.5-5.3,13.3-7.9,16c-0.7,0.7-1.2,1.4-1.7,2.3c0,0,0,0,0,0
				c-0.6-0.1-1.1-0.1-1.7,0c-0.6,0.1-1.1,0.4-1.5,0.8c-0.5,0.4-0.8,0.9-1.1,1.5c-0.3,0.6-0.5,1.2-0.5,1.9c-0.1,0.7,0,1.4,0.2,2
				c0.2,0.6,0.5,1.2,0.8,1.7c0.4,0.5,0.8,0.9,1.4,1.2s1.1,0.4,1.7,0.4c0.5,1.8,1.1,3.5,1.9,5.1c5.4,11,13.9,17.9,21.4,23.9
				c4.1,3.3,8,6.5,11.1,10c2.3,2.7,4.2,5.8,5.9,9.1c0,0,0,0.1,0.1,0.1c3.1,6.1,5.5,13.6,6,20.7c0.6,9,1.9,33.4,2.4,41.1
				c-1.5,0.6-2.9,1.4-4.1,2.5c-0.9,0.8-1.6,2-1.9,3.3c-0.3,1.3-0.3,2.7,0.1,4c0.4,1.3,1.1,2.5,2,3.3c0.9,0.8,2.1,1.2,3.3,1.2h25.1
				c0.8,0,1.6-0.2,2.3-0.6s1.4-1,1.9-1.7c5.6-7.9,19.4-28.2,28.2-46.6c34,0,57.2-1.5,70.7-4.5c2,15.2,4.7,32.5,5.7,38.7
				c-0.8,0.5-1.6,1-2.4,1.7c-1,0.9-1.7,2.2-2.1,3.6c-0.4,1.4-0.3,3,0.1,4.4c0.4,1.4,1.2,2.7,2.2,3.6c1,0.9,2.3,1.4,3.5,1.4H211
				c1.4,0,2.7-0.6,3.8-1.6c7.8-7.5,22-24.7,33.9-47.5C248.7,196.2,248.8,196.1,248.8,196z M82.7,123.8c-7.6,19-21,34.3-35.2,40.6
				c-1.6-3.1-3.5-5.9-5.7-8.4c-3.3-3.9-7.4-7.2-11.7-10.6c-7.4-6-15.1-12.2-19.9-22.1c-2.9-6-1.8-8.4-0.4-9.9
				c3.5-3.5,6.2-10.5,9.1-17.9c2.4-6,4.9-12.3,7.5-15.9c3.2-4.3,8.9-10.4,14.4-13c0.5-0.3,1-0.7,1.4-1.2c3,5.3,10.2,4.5,12-0.3
				c0.1-0.3,0.2-0.7,0.3-1.1c7.6,1.2,19.7,0.8,27.4,1.1c1.3,0.1,2.6,0.1,4,0.2C91.5,84.1,90.4,104.7,82.7,123.8z M229.3,175.9
				c-4.5-1-26.5-5-45.1,8c-0.9-7.1-1.5-13.1-1.5-16c0-0.8-0.3-1.5-0.7-2c-0.4-0.5-1.1-0.8-1.7-0.8c-0.6,0-1.2,0.3-1.7,0.8
				c-0.4,0.5-0.7,1.3-0.7,2c0,3.4,0.7,10.3,1.7,18.5c-11.6,2.6-30.6,4-58,4.3c5.4-3.9,9.8-9.6,12.9-16.9c4.4-10.2,6.4-23.6,5.6-38.5
				c-0.8-16.9-11.7-39.6-20.4-57.9c-2-4.2-4-8.3-5.6-11.9c4.6-0.2,9.2-0.6,13.8-1.2c6.2-0.9,13.3-2.6,20.8-4.4
				c20.1-4.8,45-10.8,69.2-4.5c33.3,8.7,45.6,45.4,45.6,66.5c0,24.3-7.2,47.2-16.6,66.5C244.4,183.5,238.7,178,229.3,175.9z"/>
			<path d="M32,89.2c-9.6-4.4-15.2,8-9.1,15.3c3.3,4,6.5,13.2,13.8,12.5C48.3,115.8,47.2,96.2,32,89.2z M27.6,101.3
				c-0.6,0-1.1-0.2-1.6-0.6c-0.5-0.4-0.8-0.9-1.1-1.6s-0.3-1.3-0.2-2c0.1-0.7,0.4-1.3,0.8-1.8c0.4-0.5,0.9-0.8,1.5-1
				c0.6-0.1,1.1-0.1,1.7,0.2c0.5,0.3,1,0.7,1.3,1.3c0.3,0.6,0.5,1.2,0.5,1.9c0,0.9-0.3,1.8-0.8,2.5
				C29.1,100.9,28.4,101.3,27.6,101.3z"/>
			<path d="M135.3,202c0-0.1-0.1-0.3-0.2-0.4c-0.1-0.1-0.2-0.1-0.3-0.1c-2.6,0-16.4,0.2-22.2,0.2c-0.1,0-0.2,0-0.3,0.1
				c-0.1,0.1-0.1,0.1-0.2,0.2c-3.8,7.1-10.4,18-14.7,25.2c-0.1,0.1-0.1,0.3-0.1,0.4c0,0.1,0.1,0.3,0.1,0.4l6.1,8.1l-0.1,0.1
				c0,0,0,0.1-0.1,0.1c-0.5,0.9-0.7,2-0.8,3c0,1.1,0.2,2.1,0.7,3.1c0.4,0.9,1.1,1.7,1.9,2.3c0.8,0.5,1.7,0.8,2.6,0.8h25.9
				c0.7,0,1.4-0.2,2-0.5c0.6-0.3,1.2-0.8,1.7-1.4c0.5-0.6,0.9-1.3,1.1-2c0.3-0.8,0.4-1.6,0.4-2.4c-0.1-4.2-0.3-10.7-0.9-17.8
				C137.4,214.9,136.6,208.4,135.3,202z"/>
			<path d="M262.9,178.5c0-0.1-0.1-0.2-0.2-0.3c-0.1-0.1-0.2-0.1-0.3-0.1c-0.1,0-0.2,0-0.3,0.1c-0.1,0.1-0.2,0.2-0.2,0.3
				c-0.7,2.1-1.5,4.1-2.4,6.1c-7.3,16.6-16.2,32.1-26.4,46.3c-0.1,0.1-0.1,0.3-0.1,0.4c0,0.2,0.1,0.3,0.1,0.4l1.8,2.3
				c-0.5,0.7-1,1.6-1.3,2.5c-0.4,1-0.5,2.1-0.5,3.1c0.1,1.1,0.4,2.1,0.8,3c0.4,0.9,1,1.6,1.8,2.1c0.7,0.5,1.5,0.8,2.4,0.8H265
				c0.7,0,1.3-0.2,1.9-0.5c0.6-0.3,1.2-0.8,1.6-1.3c0.5-0.6,0.8-1.3,1.1-2c0.2-0.7,0.4-1.6,0.3-2.4
				C269.7,226.3,268.5,197.6,262.9,178.5z"/>
		</g>
	</g>
</g>
<g id="Layer_2">
	<path class="st0" d="M248.5,196c10.8-21,19.7-46.7,19.7-74.1c0-13.8-4.3-29.4-11.5-41.9c-6.3-10.9-18-25-37.9-30.1
		c-25.2-6.6-50.7-0.4-71.2,4.5c-7.4,1.8-14.4,3.5-20.4,4.3c-13.4,1.9-27.6,1.6-39.9,1.1h0c-1.9-0.1-3.8-0.2-5.6-0.2
		c-7.7-0.3-25.5-0.6-25.5-0.6c-1-4.1-3.2-7.5-5.9-9.1c-1.2-0.6-2.4-1-3.7-1c-1.3,0-2.6,0.4-3.7,1.1c-3.8,2-5.6,6.6-4.8,11.7
		c-6.1,3.1-12,9.3-15.6,14.2c-3.1,4.2-5.7,10.8-8.3,17.2c-2.6,6.5-5.3,13.3-7.9,16c-0.7,0.7-1.2,1.4-1.7,2.3c0,0,0,0,0,0
		c-0.6-0.1-1.1-0.1-1.7,0c-0.6,0.1-1.1,0.4-1.5,0.8c-0.5,0.4-0.8,0.9-1.1,1.5c-0.3,0.6-0.5,1.2-0.5,1.9c-0.1,0.7,0,1.4,0.2,2
		c0.2,0.6,0.5,1.2,0.8,1.7c0.4,0.5,0.8,0.9,1.4,1.2s1.1,0.4,1.7,0.4c0.5,1.8,1.1,3.5,1.9,5.1c5.4,11,13.9,17.9,21.4,23.9
		c4.1,3.3,8,6.5,11.1,10c2.3,2.7,4.2,5.8,5.9,9.1c0,0,0,0.1,0.1,0.1c3.1,6.1,5.5,13.6,6,20.7c0.6,9,1.9,33.4,2.4,41.1
		c-1.5,0.6-2.9,1.4-4.1,2.5c-0.9,0.8-1.6,2-1.9,3.3c-0.3,1.3-0.3,2.7,0.1,4c0.4,1.3,1.1,2.5,2,3.3c0.9,0.8,2.1,1.2,3.3,1.2h25.1
		c0.8,0,1.6-0.2,2.3-0.6s1.4-1,1.9-1.7c5.6-7.9,19.4-28.2,28.2-46.6c34,0,57.2-1.5,70.7-4.5c2,15.2,4.7,32.5,5.7,38.7
		c-0.8,0.5-1.6,1-2.4,1.7c-1,0.9-1.7,2.2-2.1,3.6c-0.4,1.4-0.3,3,0.1,4.4c0.4,1.4,1.2,2.7,2.2,3.6c1,0.9,2.3,1.4,3.5,1.4h23.6
		c1.4,0,2.7-0.6,3.8-1.6c7.8-7.5,22-24.7,33.9-47.5C248.4,196.3,248.5,196.2,248.5,196z M82.5,123.8c-7.6,19-21,34.3-35.2,40.6
		c-1.6-3.1-3.5-5.9-5.7-8.4c-3.3-3.9-7.4-7.2-11.7-10.6c-7.4-6-15.1-12.2-19.9-22.1c-2.9-6-1.8-8.4-0.4-9.9
		c3.5-3.5,6.2-10.5,9.1-17.9c2.4-6,4.9-12.3,7.5-15.9c3.2-4.3,8.9-10.4,14.4-13c0.5-0.3,1-0.7,1.4-1.2c3,5.3,10.2,4.5,12-0.3
		c0.1-0.3,0.2-0.7,0.3-1.1c7.6,1.2,19.7,0.8,27.4,1.1c1.3,0.1,2.6,0.1,4,0.2C91.2,84.1,90.1,104.8,82.5,123.8z M229,176
		c-4.5-1-26.5-5-45.1,8c-0.9-7.1-1.5-13.1-1.5-16c0-0.8-0.3-1.5-0.7-2c-0.4-0.5-1.1-0.8-1.7-0.8c-0.6,0-1.2,0.3-1.7,0.8
		c-0.4,0.5-0.7,1.3-0.7,2c0,3.4,0.7,10.3,1.7,18.5c-11.6,2.6-30.6,4-58,4.3c5.4-3.9,9.8-9.6,12.9-16.9c4.4-10.2,6.4-23.6,5.6-38.5
		c-0.8-16.9-11.7-39.6-20.4-57.9c-2-4.2-4-8.3-5.6-11.9c4.6-0.2,9.2-0.6,13.8-1.2c6.2-0.9,13.3-2.6,20.8-4.4
		c20.1-4.8,45-10.8,69.2-4.5c33.3,8.7,45.6,45.4,45.6,66.5c0,24.3-7.2,47.2-16.6,66.5C244.1,183.5,238.4,178,229,176z"/>
	<path d="M31.7,89.3c-9.6-4.4-15.2,8-9.1,15.3c3.3,4,6.5,13.2,13.8,12.5C48,115.8,46.9,96.2,31.7,89.3z M27.4,101.3
		c-0.6,0-1.1-0.2-1.6-0.6c-0.5-0.4-0.8-0.9-1.1-1.6s-0.3-1.3-0.2-2c0.1-0.7,0.4-1.3,0.8-1.8c0.4-0.5,0.9-0.8,1.5-1
		c0.6-0.1,1.1-0.1,1.7,0.2c0.5,0.3,1,0.7,1.3,1.3c0.3,0.6,0.5,1.2,0.5,1.9c0,0.9-0.3,1.8-0.8,2.5C28.9,100.9,28.1,101.3,27.4,101.3z
		"/>
	<path d="M135,202c0-0.1-0.1-0.3-0.2-0.4c-0.1-0.1-0.2-0.1-0.3-0.1c-2.6,0-16.4,0.2-22.2,0.2c-0.1,0-0.2,0-0.3,0.1
		c-0.1,0.1-0.1,0.1-0.2,0.2c-3.8,7.1-10.4,18-14.7,25.2c-0.1,0.1-0.1,0.3-0.1,0.4c0,0.1,0.1,0.3,0.1,0.4l6.1,8.1l-0.1,0.1
		c0,0,0,0.1-0.1,0.1c-0.5,0.9-0.7,2-0.8,3c0,1.1,0.2,2.1,0.7,3.1c0.4,0.9,1.1,1.7,1.9,2.3c0.8,0.5,1.7,0.8,2.6,0.8h25.9
		c0.7,0,1.4-0.2,2-0.5c0.6-0.3,1.2-0.8,1.7-1.4c0.5-0.6,0.9-1.3,1.1-2c0.3-0.8,0.4-1.6,0.4-2.4c-0.1-4.2-0.3-10.7-0.9-17.8
		C137.1,214.9,136.3,208.4,135,202z"/>
	<path d="M262.6,178.6c0-0.1-0.1-0.2-0.2-0.3c-0.1-0.1-0.2-0.1-0.3-0.1c-0.1,0-0.2,0-0.3,0.1c-0.1,0.1-0.2,0.2-0.2,0.3
		c-0.7,2.1-1.5,4.1-2.4,6.1c-7.3,16.6-16.2,32.1-26.4,46.3c-0.1,0.1-0.1,0.3-0.1,0.4c0,0.2,0.1,0.3,0.1,0.4l1.8,2.3
		c-0.5,0.7-1,1.6-1.3,2.5c-0.4,1-0.5,2.1-0.5,3.1c0.1,1.1,0.4,2.1,0.8,3c0.4,0.9,1,1.6,1.8,2.1c0.7,0.5,1.5,0.8,2.4,0.8h26.9
		c0.7,0,1.3-0.2,1.9-0.5c0.6-0.3,1.2-0.8,1.6-1.3c0.5-0.6,0.8-1.3,1.1-2c0.2-0.7,0.4-1.6,0.3-2.4
		C269.4,226.4,268.2,197.6,262.6,178.6z"/>
</g>
<g id="Layer_3">
	<g>
		<defs>
			<rect id="SVGID_3_" width="284" height="246"/>
		</defs>
		<clipPath id="SVGID_4_">
			<use xlink:href="#SVGID_3_"  style="overflow:visible;"/>
		</clipPath>
		<g class="st3">
			<path d="M248.8,196c10.8-21,19.7-46.7,19.7-74.1c0-13.8-4.3-29.4-11.5-41.9c-6.3-10.9-18-25-37.9-30.1
				c-25.2-6.6-50.7-0.4-71.2,4.5c-7.4,1.8-14.4,3.5-20.4,4.3c-13.4,1.9-27.6,1.6-39.9,1.1h0c-1.9-0.1-3.8-0.2-5.6-0.2
				c-7.7-0.3-25.5-0.6-25.5-0.6c-1-4.1-3.2-7.5-5.9-9.1c-1.2-0.6-2.4-1-3.7-1c-1.3,0-2.6,0.4-3.7,1.1c-3.8,2-5.6,6.6-4.8,11.7
				c-6.1,3.1-12,9.3-15.6,14.2c-3.1,4.2-5.7,10.8-8.3,17.2c-2.6,6.5-5.3,13.3-7.9,16c-0.7,0.7-1.2,1.4-1.7,2.3c0,0,0,0,0,0
				c-0.6-0.1-1.1-0.1-1.7,0c-0.6,0.1-1.1,0.4-1.5,0.8c-0.5,0.4-0.8,0.9-1.1,1.5c-0.3,0.6-0.5,1.2-0.5,1.9c-0.1,0.7,0,1.4,0.2,2
				c0.2,0.6,0.5,1.2,0.8,1.7c0.4,0.5,0.8,0.9,1.4,1.2s1.1,0.4,1.7,0.4c0.5,1.8,1.1,3.5,1.9,5.1c5.4,11,13.9,17.9,21.4,23.9
				c4.1,3.3,8,6.5,11.1,10c2.3,2.7,4.2,5.8,5.9,9.1c0,0,0,0.1,0.1,0.1c3.1,6.1,5.5,13.6,6,20.7c0.6,9,1.9,33.4,2.4,41.1
				c-1.5,0.6-2.9,1.4-4.1,2.5c-0.9,0.8-1.6,2-1.9,3.3c-0.3,1.3-0.3,2.7,0.1,4c0.4,1.3,1.1,2.5,2,3.3c0.9,0.8,2.1,1.2,3.3,1.2h25.1
				c0.8,0,1.6-0.2,2.3-0.6s1.4-1,1.9-1.7c5.6-7.9,19.4-28.2,28.2-46.6c34,0,57.2-1.5,70.7-4.5c2,15.2,4.7,32.5,5.7,38.7
				c-0.8,0.5-1.6,1-2.4,1.7c-1,0.9-1.7,2.2-2.1,3.6c-0.4,1.4-0.3,3,0.1,4.4c0.4,1.4,1.2,2.7,2.2,3.6c1,0.9,2.3,1.4,3.5,1.4H211
				c1.4,0,2.7-0.6,3.8-1.6c7.8-7.5,22-24.7,33.9-47.5C248.7,196.2,248.8,196.1,248.8,196z M82.7,123.8c-7.6,19-21,34.3-35.2,40.6
				c-1.6-3.1-3.5-5.9-5.7-8.4c-3.3-3.9-7.4-7.2-11.7-10.6c-7.4-6-15.1-12.2-19.9-22.1c-2.9-6-1.8-8.4-0.4-9.9
				c3.5-3.5,6.2-10.5,9.1-17.9c2.4-6,4.9-12.3,7.5-15.9c3.2-4.3,8.9-10.4,14.4-13c0.5-0.3,1-0.7,1.4-1.2c3,5.3,10.2,4.5,12-0.3
				c0.1-0.3,0.2-0.7,0.3-1.1c7.6,1.2,19.7,0.8,27.4,1.1c1.3,0.1,2.6,0.1,4,0.2C91.5,84.1,90.4,104.7,82.7,123.8z M229.3,175.9
				c-4.5-1-26.5-5-45.1,8c-0.9-7.1-1.5-13.1-1.5-16c0-0.8-0.3-1.5-0.7-2c-0.4-0.5-1.1-0.8-1.7-0.8c-0.6,0-1.2,0.3-1.7,0.8
				c-0.4,0.5-0.7,1.3-0.7,2c0,3.4,0.7,10.3,1.7,18.5c-11.6,2.6-30.6,4-58,4.3c5.4-3.9,9.8-9.6,12.9-16.9c4.4-10.2,6.4-23.6,5.6-38.5
				c-0.8-16.9-11.7-39.6-20.4-57.9c-2-4.2-4-8.3-5.6-11.9c4.6-0.2,9.2-0.6,13.8-1.2c6.2-0.9,13.3-2.6,20.8-4.4
				c20.1-4.8,45-10.8,69.2-4.5c33.3,8.7,45.6,45.4,45.6,66.5c0,24.3-7.2,47.2-16.6,66.5C244.4,183.5,238.7,178,229.3,175.9z"/>
			<path d="M32,89.2c-9.6-4.4-15.2,8-9.1,15.3c3.3,4,6.5,13.2,13.8,12.5C48.3,115.8,47.2,96.2,32,89.2z M27.6,101.3
				c-0.6,0-1.1-0.2-1.6-0.6c-0.5-0.4-0.8-0.9-1.1-1.6s-0.3-1.3-0.2-2c0.1-0.7,0.4-1.3,0.8-1.8c0.4-0.5,0.9-0.8,1.5-1
				c0.6-0.1,1.1-0.1,1.7,0.2c0.5,0.3,1,0.7,1.3,1.3c0.3,0.6,0.5,1.2,0.5,1.9c0,0.9-0.3,1.8-0.8,2.5
				C29.1,100.9,28.4,101.3,27.6,101.3z"/>
			<path d="M135.3,202c0-0.1-0.1-0.3-0.2-0.4c-0.1-0.1-0.2-0.1-0.3-0.1c-2.6,0-16.4,0.2-22.2,0.2c-0.1,0-0.2,0-0.3,0.1
				c-0.1,0.1-0.1,0.1-0.2,0.2c-3.8,7.1-10.4,18-14.7,25.2c-0.1,0.1-0.1,0.3-0.1,0.4c0,0.1,0.1,0.3,0.1,0.4l6.1,8.1l-0.1,0.1
				c0,0,0,0.1-0.1,0.1c-0.5,0.9-0.7,2-0.8,3c0,1.1,0.2,2.1,0.7,3.1c0.4,0.9,1.1,1.7,1.9,2.3c0.8,0.5,1.7,0.8,2.6,0.8h25.9
				c0.7,0,1.4-0.2,2-0.5c0.6-0.3,1.2-0.8,1.7-1.4c0.5-0.6,0.9-1.3,1.1-2c0.3-0.8,0.4-1.6,0.4-2.4c-0.1-4.2-0.3-10.7-0.9-17.8
				C137.4,214.9,136.6,208.4,135.3,202z"/>
			<path d="M262.9,178.5c0-0.1-0.1-0.2-0.2-0.3c-0.1-0.1-0.2-0.1-0.3-0.1c-0.1,0-0.2,0-0.3,0.1c-0.1,0.1-0.2,0.2-0.2,0.3
				c-0.7,2.1-1.5,4.1-2.4,6.1c-7.3,16.6-16.2,32.1-26.4,46.3c-0.1,0.1-0.1,0.3-0.1,0.4c0,0.2,0.1,0.3,0.1,0.4l1.8,2.3
				c-0.5,0.7-1,1.6-1.3,2.5c-0.4,1-0.5,2.1-0.5,3.1c0.1,1.1,0.4,2.1,0.8,3c0.4,0.9,1,1.6,1.8,2.1c0.7,0.5,1.5,0.8,2.4,0.8H265
				c0.7,0,1.3-0.2,1.9-0.5c0.6-0.3,1.2-0.8,1.6-1.3c0.5-0.6,0.8-1.3,1.1-2c0.2-0.7,0.4-1.6,0.3-2.4
				C269.7,226.3,268.5,197.6,262.9,178.5z"/>
		</g>
	</g>
</g>
</svg>
