<?xml version="1.0" encoding="utf-8"?>
<!-- Generator: Adobe Illustrator 24.0.0, SVG Export Plug-In . SVG Version: 6.00 Build 0)  -->
<svg version="1.1" id="Layer_1" xmlns="http://www.w3.org/2000/svg" xmlns:xlink="http://www.w3.org/1999/xlink" x="0px" y="0px"
	 viewBox="0 0 46 20" style="enable-background:new 0 0 46 20;" xml:space="preserve">
<style type="text/css">
	.st0{opacity:0.5;enable-background:new    ;}
	.st1{fill:#4B9200;}
</style>
<path class="st0" d="M23,4.6C23,4.6,23,4.6,23,4.6C23.2,4.6,23.3,4.6,23,4.6z"/>
<path class="st1" d="M44.9,12.4c-0.5-0.2-3.3-1.7-4.4-1.8c-1.1-0.1-0.9,0.2-1.9-0.4c-1-0.6-1-0.6-1-0.6s0.5-0.9,0.7-2.2
	c0.2-1.2,0.4-1.9,0.4-1.9s1.8-1.3,2.8-0.8c1,0.5,0.9,0.6,1.5,0.3c0.5-0.3,0-0.8,0-0.8s0.4,0.5,0.7,0c0.1-0.2,0.5-0.8-0.2-1.6
	c-0.9-1-0.3-0.9-0.7-1.2c-0.4-0.3-1.4-0.9-2.2-1c-0.8-0.1-0.8,0-1.3-0.2C39,0.5,39.4,1,39.4,1S38,1,37.1,1.4c-0.9,0.5-0.9,0.6-1.9,1
	c-1,0.5-0.8,0-2.2,0.5c-1.4,0.5-2.8,1.8-3.8,2.1c-1.5,0.4-7.4-0.5-6.3-0.5c-0.7,0-2.8-0.1-2.8-0.1c-3.2,0.2-4.4,0.4-8.1,3.8
	c-3.8,3.4-5.3,3.8-8,3.8c-2.7,0.1-1.6-0.7-2.7-0.7c-1.1,0-0.5,0.6-0.5,1.1c0,0.5,1.5,1,3.3,1c1.8,0,4.5-0.7,9-4.5
	c1.4-1.1,2.1-1.8,2.6-2.1c-0.1,0.6-1,4.8-1.9,5.2c-0.9,0.5-2.4,1-3.5,1.8c-1.1,0.8-1.7,3-1.8,3.7c-0.1,0.7,0.2,1,0.5,1.2
	c0.3,0.2,0.5,0.5,1,0.5c0.5,0,0.2-0.4,0.1-0.7c-0.4-0.5-1-1.1,0-2.3c1.4-1.8,3.2-1.5,5.2-2.7c2.1-1.1,4.9-3.9,4.9-3.9
	s1.5-0.3,2.9,0.3c1.3,0.7,2.4,1.6,4.4,1.9c2,0.3,7.2-0.9,7.2-0.9s0.8,1.1,2.2,1.1c1.4,0.1,2.6-0.7,3.2-0.6c0.6,0.1,3,0.6,3.6,1
	c0.6,0.4,0.4,1.2,1.8,0.6C45.8,13.3,45.5,12.6,44.9,12.4z"/>
<path class="st0" d="M39.1,0L39.1,0C39.1,0,39.1,0,39.1,0z"/>
<path class="st1" d="M20.6,10.4c-0.4,0.4-1.7,1.6-3.1,2.6c0.2,0.6,0.4,1.2,0.4,1.5c0,0.9-1.4,3.1-1.4,3.8c0,0.7,0.3,1,0.7,1.3
	c0.4,0.3,0.7,0.7,0.8-0.1c0.1-0.8-0.6-0.5-0.6-0.9c0-0.5,0.6-1.5,1.1-2.1c0.5-0.6,1.7-1.7,2.2-2.7c0.3-0.6,0.9-2.2,1.2-3.4
	c-0.3,0-0.5-0.1-0.7-0.1C21,10.3,20.8,10.4,20.6,10.4z"/>
<path class="st1" d="M39.3,12.5c-0.4,0.1-0.8,0.3-1.4,0.4c0.4,0.3,0.7,0.6,0.7,0.7c0.1,0.5,0.2,0.7,0,0.9c-0.2,0.2-0.3,0.2-0.4,0.4
	c-0.1,0.2-0.2,0.9,0.2,0.9c0.3,0.1,0.5-0.1,0.6-0.3c0.1-0.2,0.7-2.1,0.6-2.6C39.6,12.9,39.5,12.7,39.3,12.5
	C39.3,12.5,39.3,12.5,39.3,12.5z"/>
</svg>
