<?xml version="1.0" encoding="utf-8"?>
<!-- Generator: Adobe Illustrator 24.0.0, SVG Export Plug-In . SVG Version: 6.00 Build 0)  -->
<svg version="1.1" id="Layer_1" xmlns="http://www.w3.org/2000/svg" xmlns:xlink="http://www.w3.org/1999/xlink" x="0px" y="0px"
	 viewBox="0 0 10 20" style="enable-background:new 0 0 10 20;" xml:space="preserve">
<style type="text/css">
	.st0{fill:#FE9013;}
</style>
<path class="st0" d="M8.1,6.3C7.7,5.9,7.2,5.6,6.9,5.4C6.5,5.2,6,5.1,5.5,5.1c-0.6,0-1,0.1-1.3,0.4C4,5.7,3.8,6.1,3.8,6.6
	C3.8,7,4,7.3,4.3,7.5C4.6,7.8,5,8,5.4,8.3c0.5,0.2,1,0.5,1.5,0.7s1,0.5,1.5,0.9c0.5,0.4,0.8,0.8,1.1,1.3c0.3,0.5,0.5,1.1,0.5,1.9
	c0,1.1-0.3,2.1-0.9,2.9c-0.6,0.8-1.5,1.3-2.7,1.6V20H4.1v-2.3c-0.7-0.1-1.4-0.3-2.2-0.6c-0.8-0.3-1.4-0.7-1.9-1.2l1.5-2.3
	c0.6,0.4,1.2,0.8,1.7,1c0.5,0.2,1.1,0.3,1.6,0.3c0.6,0,1.1-0.1,1.4-0.4c0.3-0.3,0.5-0.7,0.5-1.2c0-0.4-0.2-0.8-0.5-1
	c-0.3-0.3-0.7-0.5-1.1-0.8c-0.5-0.3-1-0.5-1.5-0.8c-0.5-0.3-1-0.6-1.5-0.9C1.7,9.4,1.3,9,1,8.5C0.7,8,0.5,7.4,0.5,6.7
	c0-1.1,0.3-2.1,0.9-2.9C2.1,3.1,3,2.6,4.1,2.4V0h2.3v2.4c0.8,0.1,1.4,0.3,2,0.7c0.6,0.3,1.1,0.8,1.5,1.2L8.1,6.3z"/>
</svg>
