<?xml version="1.0" encoding="utf-8"?>
<!-- Generator: Adobe Illustrator 24.0.0, SVG Export Plug-In . SVG Version: 6.00 Build 0)  -->
<svg version="1.1" id="Layer_1" xmlns="http://www.w3.org/2000/svg" xmlns:xlink="http://www.w3.org/1999/xlink" x="0px" y="0px"
	 viewBox="0 0 41 36" style="enable-background:new 0 0 41 36;" xml:space="preserve">
<style type="text/css">
	.st0{fill:#4B9200;}
</style>
<path class="st0" d="M13.7,18.5l2.7-9.8l6.9-4.5h1.4l7-4.2v1.3l-6.5,3.8l8.3-3.3l3,0.1l-2,1.9l-8.5,2.7l9.8-1.8l3.6,0.1l-3.2,1.3
	l-8.7,1.5l9-0.2l4,0.9l-4,1.3l-8.1-0.5l6.5,1.3l1.8,1.5L34,12.4l-5.1-1.5l5,2.4l0.9,1.6l-4.9,0.3l1.3,0.9l0.4,1.7l-1.6,0.8l0.5,1.4
	l-1.3,0.6l0.1,1H27v1.1h-1.9l0.7,0.8l-2.9-0.3l2.9,1.4l2.3,1.3l8.4,0.6l1.2,1.2l-1.2,0.7l-5.9-1.4l6.5,2.1l1,0.9h-2.7l-4.8-1.6
	l5.8,2.2l0.8,1l-1.7,0.4l-8.8-3.3l-2.7-0.2l1.8,2.5l-1.7-0.4l1.1,1.3l-5.9-0.4L17,30.1l-0.3-1.5L15,25.1L9.1,22l1.5,0l-1.5-1.1
	l2.1-0.1l-1.4-0.6l1.4-0.2l-1.2-0.7l1.6-0.4l-1.4-1L13.7,18.5z"/>
<path class="st0" d="M13.7,17l-7.3-1.9L5.4,13l-1.5,1.5v1.1l4.4,1.8l5,0.7L13.7,17z"/>
<path class="st0" d="M20.2,32.7l-1.4,0.8v0.7l0.2,0.5l-1.1-0.4v-0.9l-0.7,0.9l0.4,0.8l-1.3-1l1.4-1.4l1-0.2L20.2,32.7z"/>
<path class="st0" d="M17,32.5l-1,0.4l-0.3,0.9l0.7,0.7L16,33.8L17,32.5z"/>
<path class="st0" d="M17,31.8l-1.4,0.9l-0.3,0.5l-0.5,0.1l0.6-1l-1,0.4l-0.3,1l-0.3-0.5l0.6-1.1l-0.8,0.5l-0.1,0.8l-0.4-0.7l0.9-1.1
	h1.7l0.5-0.5L17,31.8z"/>
<path class="st0" d="M1.1,19.8l0.9-0.7h1.4l0-0.4l1.4-0.5H9l1.4,1l-2.3,0.2l2,0.8L8,20.5l2.1,0.6H8.2l1.3,1H8.2l-5.3-1.3H1.6
	l-0.9,0.4L1.1,19.8z M4.6,19.6c0.2,0,0.4-0.1,0.4-0.3c0-0.2-0.2-0.3-0.4-0.3c-0.2,0-0.4,0.1-0.4,0.3C4.2,19.5,4.4,19.6,4.6,19.6z"/>
</svg>
