<?xml version="1.0" encoding="utf-8"?>
<!-- Generator: Adobe Illustrator 24.0.0, SVG Export Plug-In . SVG Version: 6.00 Build 0)  -->
<svg version="1.1" id="Layer_1" xmlns="http://www.w3.org/2000/svg" xmlns:xlink="http://www.w3.org/1999/xlink" x="0px" y="0px"
	 viewBox="0 0 37 31" style="enable-background:new 0 0 37 31;" xml:space="preserve">
<style type="text/css">
	.st0{fill:#4B9200;}
</style>
<path class="st0" d="M19.4,7.9c0,0,1.5-1.5,2.9-2c0,0-3.2-4.4-10.1-5.9c0,0-2.3,1.4-2.8,4.2c0,0-1.8,0.4-1.8,1.3l2.2,0.8
	c0,0,4.2-0.6,4.7-0.5C15,6,14.6,7.4,14.2,7.7c0,0,0.2,0.5,0.5,0.7c0,0-1.1,1.7-3.8,0.8c0,0,1.5,2.6-2.3,3.2c0,0-2.2-0.5-2.6-2.8
	c0,0,2.6,0.2,2.9,0.5c0,0,0.6-0.3-1.5-0.6c0,0-0.3-0.2,0.9-1l-0.8,0L7.1,6.6c0,0-4.9,0.9-6.1,3.8c0,0-2.7,6.1,3.3,19.2
	c0,0,4,0.6,6.7-0.1c0,0,0.2-1.9-0.2-2.1l-1.8-0.8c0,0,3.5-4.7,2.4-5.6c0,0-1-0.7-1.3-1.2c0,0,1.5,0.6,2.1,0.6c0,0,0.7-2.2,2-3.7
	c0,0-3.2,10.3-1.9,13.2c0,0,8.9,2,8.5-1c0,0,0.1-1.1-1.3-2c0,0,2.4-2.2,2.6-2.4c0,0,2-0.9,0.5-4.4C21,16.5,22.5,20,22.5,20
	s10.2-7.2,3.6-12.9C26.1,7.1,23.5,4.7,19.4,7.9z"/>
<path class="st0" d="M13.8,6.5h-1.4H8.6l-1-0.4c0,0,0.4,1.5,0.7,1.6c0,0,1.2,0.1,1.8-0.4c0,0,1.3,1,1.6,1
	C11.7,8.3,13.6,7.5,13.8,6.5z"/>
<path class="st0" d="M9.8,7.8L9.4,8.5c0,0-0.4,0.4,0.4,0.4h0.6V8c0,0-0.3-0.2-0.4-0.2"/>
<path class="st0" d="M9.3,7.8L8.8,8.3L8.2,8.3C8.2,8.3,8.6,7.8,9.3,7.8z"/>
<path class="st0" d="M28.6,14.5c0,0-2.4,3.9-4.8,5.5l0.4,2.4c0,0,1.2-0.3,1.3-0.2c0.1,0.1,3.4,5.2,3.3,5.5c0,0-1.1,0.4-1.1,0.7
	l-0.1,0.9c0,0,5.9,0.5,7.6,0c0,0,1.8-1.6,0.4-5c0,0-2.5-2.3-2.6-3c0,0-0.5-1.3,0.3-2.9C33.3,18.2,34.5,14.1,28.6,14.5z"/>
<path class="st0" d="M23.9,23.4c0,0,0.1,1.3-3.5,3.5c0,0,1.6,1.5,1.3,2l1.6-0.2c0,0,1.1-2.3,1.1-2.6c0,0-0.8-0.5-0.9-0.8
	c0,0,2.8-1.2,1.8-2C25,23.3,23.9,23.3,23.9,23.4z"/>
</svg>
