<?xml version="1.0" encoding="utf-8"?>
<!-- Generator: Adobe Illustrator 24.0.0, SVG Export Plug-In . SVG Version: 6.00 Build 0)  -->
<svg version="1.1" xmlns="http://www.w3.org/2000/svg" xmlns:xlink="http://www.w3.org/1999/xlink" x="0px" y="0px"
	 viewBox="0 0 127 73" style="enable-background:new 0 0 127 73;" xml:space="preserve">
<style type="text/css">
	.st0{display:none;}
	.st1{display:inline;fill:#EDE60A;}
	.st2{fill:#333B41;stroke:#333B41;stroke-width:0.7;}
	.st3{display:none;fill:#333B41;stroke:#333B41;stroke-width:0.7;}
	.st4{fill:#3FDEEF;}
	.st5{fill:#5FFFBC;}
	.st6{fill:#FFFF35;}
	.st7{display:inline;}
	.st8{fill:#EDE60A;}
	.st9{display:inline;fill:#333B41;stroke:#333B41;stroke-width:0.7;}
	.st10{display:inline;fill:none;stroke:#333B41;stroke-width:1.9808;}
	.st11{fill:none;stroke:#333B41;stroke-width:1.6;}
</style>
<g id="Layer_1">
	<g id="Layer_2_1_" class="st0">
		<path class="st1" d="M5.3,40.1c0.1,0,0.6-0.3,1.2-0.2C7,40,7.3,40.5,7.4,40.6c0.9,1.2,2.3,1.9,3.4,2.9c1.6,1.5,3.2,2.5,4.4,3.3
			c2.3,1.5,4.1,2.7,6.6,3.3c1.1,0.3,5.8,1.5,9.8-0.5c1.4-0.7,2.8-1.9,5-1.8c0.8,0,1.5,0.3,1.8-0.1c0.4-0.5-0.2-1.9-1.2-4.1
			c-0.5-1.1-0.9-1.8-0.6-2.4c0.2-0.4,0.7-0.6,1-0.7c0.9-0.3,1.5,0,2.5,0.2c2,0.3,2.7-0.5,3.4,0.1c0.5,0.4,0.5,1.1,0.5,2.5
			c0,2-0.5,2.4-0.3,3.7c0.1,1,0.4,1,1.2,2.9c0.4,1.1,1,2.4,1.1,4c0.1,1.9-0.4,3.4-0.7,4.3c-0.9,2.4-2.4,3.9-3.8,5.3
			c-3.1,3-6.2,4.6-7.4,5.2c-3.9,1.8-7.1,2.2-9,2.4c-2.7,0.3-6,0.7-10-0.5c-3.3-1-5.4-2.5-7.1-3.8c-1.4-1.1-4.1-3.2-4.6-5.6
			c-0.1-0.4-0.3-1.6,0.3-2.1c0.4-0.4,1.1-0.3,1.2-0.6c0.1-0.4-0.5-0.8-1.1-1.4c-0.6-0.7-0.5-1.2-1-3.4C2.2,51.1,1.8,51,2,50
			c0.1-0.3,0.3-1.9,1.4-2.3c0.8-0.3,1.6,0.2,1.8,0S4.8,47,4.5,46.3c-0.9-1.8-0.2-3.8,0.1-4.6C4.7,40.6,5,40.3,5.3,40.1z"/>
	</g>
	<g id="Layer_1_1_">
		<path class="st2" d="M68.6,1c-3.2-0.1-6.3,0.8-9,2.6S55,8,53.9,11.1c0,0.1-0.1,0.3-0.3,0.4c-0.1,0.1-0.3,0.2-0.4,0.2
			c-1.6,0.3-3.1,1.1-4.1,2.4c-1.1,1.3-1.6,2.9-1.6,4.5c0,1.7,0.6,3.2,1.7,4.5c1.1,1.2,2.6,2.1,4.2,2.3c0.2,0,0.3,0.1,0.4,0.2
			c0.1,0.1,0.2,0.3,0.3,0.4c0.8,3,2.5,5.6,4.9,7.6c2.4,1.9,5.3,3.1,8.4,3.2c-0.7,2.5-1.1,5-1.2,7.5l-5.1-0.8c-1.1-0.2-2.2,0.1-3,0.7
			c-0.9,0.6-1.5,1.6-1.6,2.7c-0.2,1.1,0.1,2.2,0.7,3c0.6,0.9,1.6,1.5,2.7,1.6l6.9,1.1c0.2,1.1,0.4,2.1,0.7,3.2
			C65.9,57.5,65,59.7,65,62v1.4c0,0.2-0.1,0.4-0.2,0.6c-0.2,0.2-0.4,0.2-0.6,0.2h-0.5c-0.6,0-1.2,0.1-1.7,0.3c-0.5,0.2-1,0.6-1.5,1
			c-0.4,0.4-0.8,0.9-1,1.5s-0.3,1.1-0.3,1.7v1.2c0,0.3,0.1,0.7,0.2,1c0.1,0.3,0.3,0.6,0.6,0.8s0.5,0.4,0.8,0.6
			c0.3,0.1,0.6,0.2,1,0.2H94c4.3,0,8.6-0.9,12.6-2.7c4-1.8,7.5-4.4,10.4-7.6c4.6-4.6,7.6-10.5,8.7-16.9c0.7-5.5-0.8-11.1-4.2-15.6
			c-2.6-3.4-6.2-5.9-10.3-7.3c-2.8-0.8-5.8-0.8-8.6,0.2c-2.8,1-5.1,2.8-6.8,5.3c-0.3,0.5-0.5,1-0.6,1.5s-0.1,1.1,0,1.7
			c0.1,0.5,0.3,1.1,0.6,1.5c0.3,0.5,0.7,0.9,1.2,1.2s1,0.5,1.5,0.6s1.1,0.1,1.7,0c0.5-0.1,1.1-0.3,1.5-0.6c0.5-0.3,0.9-0.7,1.2-1.2
			c0.6-0.9,1.5-1.6,2.6-2c1-0.4,2.2-0.4,3.3-0.1c2.4,0.8,4.5,2.3,6.1,4.3c2,2.6,2.9,5.9,2.5,9.2c-0.9,4.7-3.1,9-6.5,12.3
			c-3.2,3.7-7.6,6.3-12.4,7.2h-0.1c0,0-0.1,0-0.1-0.1c0,0,0-0.1-0.1-0.1v-0.1c1.5-6.3,1.1-12.8-1.2-18.8c-1.2-3.8-3.1-7.2-5.7-10.2
			s-5.8-5.3-9.4-7c0.2-0.5,0.3-0.9,0.5-1.4c0-0.2,0.1-0.3,0.3-0.4c0.1-0.1,0.3-0.2,0.4-0.2c1.6-0.2,3.1-1.1,4.2-2.3
			c1.1-1.2,1.7-2.8,1.7-4.5s-0.6-3.3-1.6-4.5s-2.5-2.1-4.1-2.4c-0.1,0-0.3-0.1-0.4-0.2c-0.1-0.1-0.2-0.2-0.3-0.4
			c-1-2.9-2.9-5.4-5.3-7.2C74.6,2.1,71.7,1.1,68.6,1z M67.7,2.1c3-0.1,5.9,0.8,8.3,2.4s4.3,4.1,5.3,6.9c0.1,0.3,0.3,0.6,0.6,0.8
			c0.3,0.2,0.6,0.4,0.9,0.4c1.4,0.2,2.6,0.9,3.5,2s1.4,2.4,1.3,3.8s-0.5,2.7-1.4,3.8c-0.9,1-2.2,1.7-3.5,1.9c-0.4,0.1-0.7,0.2-1,0.5
			s-0.5,0.6-0.6,1C80.7,27.2,80,28.7,79,30c0.1-2.6-0.8-5.1-2.5-7.1v-0.1v-0.1v-0.1c0,0,0-0.1,0.1-0.1c1.4-1.2,2.2-2.8,2.5-4.6
			c0.2-1.8-0.3-3.6-1.3-5.1c-1.1-1.5-2.6-2.5-4.4-2.8c-1.8-0.4-3.6,0-5.1,0.9c-0.2,0.1-0.5,0.2-0.7,0.2c-0.3,0-0.5-0.1-0.7-0.2l0,0
			c-1.5-0.9-3.4-1.2-5.1-0.9c-1.8,0.4-3.3,1.4-4.4,2.8c-1.1,1.5-1.5,3.3-1.3,5.1c0.2,1.8,1.1,3.4,2.4,4.6c0,0,0,0,0.1,0.1v0.1v0.1
			c0,0,0,0.1-0.1,0.1c-1.2,1.4-2.1,3.1-2.4,4.9c-0.3-0.7-0.6-1.5-0.8-2.3c-0.1-0.4-0.3-0.7-0.6-1s-0.6-0.4-1-0.5
			c-1.4-0.2-2.6-0.9-3.5-1.9s-1.4-2.4-1.4-3.8s0.5-2.7,1.3-3.8c0.9-1.1,2.1-1.8,3.5-2c0.3-0.1,0.7-0.2,0.9-0.4
			c0.3-0.2,0.5-0.5,0.6-0.8c0.9-2.7,2.6-5,4.9-6.6C62.2,3.1,64.9,2.2,67.7,2.1z M62.8,11.1c0.2,0,0.3,0,0.5,0c1,0,2,0.3,2.9,0.9
			c0.4,0.2,0.8,0.4,1.3,0.4s0.9-0.1,1.3-0.4c1.3-0.8,2.9-1.1,4.3-0.7c1.5,0.3,2.8,1.2,3.7,2.4c0.9,1.2,1.3,2.8,1.1,4.3
			c-0.2,1.5-0.9,2.9-2.1,3.9c-0.1,0.1-0.2,0.3-0.3,0.4c-0.1,0.2-0.1,0.3-0.1,0.5s0,0.4,0.1,0.5c0.1,0.2,0.2,0.3,0.3,0.5
			c0.9,1.1,1.6,2.3,2,3.7c0.3,1.4,0.3,2.8,0,4.2c-1.4,1.4-3.1,2.5-5,3.2s-3.9,0.9-5.9,0.7s-3.9-0.8-5.6-1.8s-3.2-2.4-4.3-4.1
			c0-2.2,0.8-4.3,2.2-5.9c0.1-0.1,0.2-0.3,0.3-0.5s0.1-0.4,0.1-0.5c0-0.2-0.1-0.4-0.1-0.5c-0.1-0.2-0.2-0.3-0.3-0.4
			c-0.9-0.8-1.6-1.9-1.9-3c-0.3-1.2-0.3-2.4,0.1-3.6c0.4-1.2,1.1-2.2,2.1-2.9C60.4,11.5,61.6,11.1,62.8,11.1L62.8,11.1z M107.1,23.1
			c1.3,0,2.5,0.2,3.8,0.5c3.8,1.3,7.2,3.7,9.7,6.9c3.2,4.2,4.6,9.5,4,14.8c-1.1,6.2-4,11.8-8.4,16.3c-2.8,3.1-6.2,5.6-10,7.4
			c-3.8,1.7-7.9,2.6-12.1,2.6H61.7c-0.2,0-0.4,0-0.6-0.1c-0.2-0.1-0.3-0.2-0.5-0.3c-0.1-0.1-0.2-0.3-0.3-0.5s-0.1-0.4-0.1-0.6v-1.2
			c0-0.5,0.1-0.9,0.3-1.3s0.4-0.8,0.7-1.1c0.3-0.3,0.7-0.6,1.1-0.7s0.9-0.3,1.3-0.3h0.5c0.3,0,0.5,0,0.7-0.1s0.5-0.2,0.6-0.4
			c0.2-0.2,0.3-0.4,0.4-0.6s0.1-0.5,0.1-0.7V62c0-2.1,0.9-4.1,2.4-5.6s3.5-2.3,5.7-2.3c2.1,0,4.2,0.8,5.7,2.3s2.4,3.5,2.4,5.6v2.5
			c0,0.1,0.1,0.3,0.2,0.4s0.2,0.2,0.4,0.2c0.1,0,0.3-0.1,0.4-0.2s0.2-0.2,0.2-0.4V62c0-1.6-0.4-3.2-1.2-4.6c-0.8-1.4-2-2.6-3.4-3.4
			c0.9-0.2,1.7-0.6,2.4-1.1c0.7-0.5,1.3-1.2,1.7-1.9c0.4-0.8,0.7-1.6,0.9-2.5s0.1-1.8-0.2-2.6c-0.6-2.2-1.4-4.3-2.4-6.3
			c-0.1-0.1-0.2-0.2-0.3-0.3c-0.1,0-0.3,0-0.4,0c-0.1,0.1-0.2,0.2-0.3,0.3c0,0.1,0,0.3,0,0.4c1,2,1.8,4,2.4,6.1
			c0.2,0.9,0.2,1.8,0,2.7s-0.6,1.7-1.2,2.4s-1.4,1.2-2.2,1.5c-0.9,0.3-1.8,0.4-2.7,0.2l-16.5-2.6c-0.8-0.1-1.5-0.6-1.9-1.2
			c-0.5-0.6-0.6-1.4-0.5-2.2s0.5-1.5,1.2-1.9c0.6-0.5,1.4-0.7,2.2-0.5l12.7,2c0.1,0,0.3,0,0.4-0.1s0.2-0.2,0.2-0.4
			c0-0.1,0-0.3-0.1-0.4c-0.1-0.1-0.2-0.2-0.4-0.2l-6.5-1c0.1-2.6,0.5-5.2,1.3-7.7c2.7-0.1,5.3-0.9,7.5-2.4s4-3.5,5.2-6
			c3.4,1.6,6.5,3.9,9,6.7s4.4,6.2,5.5,9.8c2.2,5.8,2.6,12.2,1.2,18.2c-0.1,0.2,0,0.5,0,0.7c0.1,0.2,0.2,0.4,0.3,0.6
			c0.2,0.2,0.4,0.3,0.6,0.4s0.4,0.1,0.7,0c5-1,9.6-3.7,13-7.5c3.5-3.5,5.9-8,6.8-12.9c0.4-3.6-0.6-7.1-2.7-10
			c-1.7-2.2-4-3.8-6.6-4.7c-1.3-0.4-2.7-0.3-4,0.1c-1.3,0.5-2.4,1.3-3.1,2.4c-0.2,0.3-0.5,0.6-0.9,0.9c-0.3,0.2-0.7,0.4-1.1,0.5
			s-0.8,0.1-1.2,0c-0.4-0.1-0.8-0.2-1.1-0.5c-0.3-0.2-0.6-0.5-0.9-0.9c-0.2-0.3-0.4-0.7-0.5-1.1s-0.1-0.8,0-1.2
			c0.1-0.4,0.2-0.8,0.5-1.1c1.2-1.7,2.7-3.1,4.5-4.1C103,23.6,105,23.1,107.1,23.1z M67.9,52.8l3.3,0.5c-1,0.4-2,0.9-2.8,1.6
			C68.2,54.2,68.1,53.5,67.9,52.8L67.9,52.8z"/>
		<path class="st2" d="M72.1,14.6c-0.6,0-1.2,0.3-1.6,0.7s-0.7,1-0.7,1.7c0,0.6,0.2,1.2,0.7,1.7c0.4,0.4,1,0.7,1.7,0.7
			c0.6,0,1.2-0.2,1.7-0.7c0.4-0.4,0.7-1,0.7-1.7c0-0.3-0.1-0.6-0.2-0.9c-0.1-0.3-0.3-0.6-0.5-0.8s-0.5-0.4-0.8-0.5
			C72.7,14.7,72.4,14.6,72.1,14.6z M72.1,15.8c0.2,0,0.3,0,0.5,0.1c0.2,0.1,0.3,0.2,0.4,0.3s0.2,0.3,0.3,0.4
			c0.1,0.2,0.1,0.3,0.1,0.5s0,0.3-0.1,0.5S73.1,17.9,73,18c-0.1,0.1-0.3,0.2-0.4,0.3c-0.2,0.1-0.3,0.1-0.5,0.1s-0.3,0-0.5-0.1
			s-0.3-0.2-0.4-0.3c-0.1-0.1-0.2-0.3-0.3-0.4c-0.1-0.2-0.1-0.3-0.1-0.5c0-0.3,0.1-0.6,0.4-0.9C71.4,15.9,71.8,15.8,72.1,15.8z"/>
		<path class="st2" d="M62.8,14.6c-0.6,0-1.2,0.3-1.6,0.7c-0.4,0.4-0.7,1-0.7,1.7c0,0.3,0,0.6,0.2,0.9c0.1,0.3,0.3,0.6,0.5,0.8
			c0.2,0.2,0.5,0.4,0.8,0.5s0.6,0.2,0.9,0.2s0.6-0.1,0.9-0.2s0.5-0.3,0.8-0.5c0.2-0.2,0.4-0.5,0.5-0.8s0.2-0.6,0.2-0.9
			s-0.1-0.6-0.2-0.9c-0.1-0.3-0.3-0.6-0.5-0.8s-0.5-0.4-0.8-0.5C63.4,14.7,63.1,14.6,62.8,14.6z M62.8,15.8c0.2,0,0.3,0,0.5,0.1
			c0.2,0.1,0.3,0.2,0.4,0.3c0.1,0.1,0.2,0.3,0.3,0.4c0.1,0.2,0.1,0.3,0.1,0.5s0,0.3-0.1,0.5s-0.2,0.3-0.3,0.4s-0.3,0.2-0.4,0.3
			c-0.2,0.1-0.3,0.1-0.5,0.1s-0.3,0-0.5-0.1S62,18.1,61.9,18c-0.1-0.1-0.2-0.3-0.3-0.4c-0.1-0.2-0.1-0.3-0.1-0.5
			c0-0.3,0.1-0.6,0.4-0.9C62.2,15.9,62.5,15.8,62.8,15.8z"/>
		<path class="st2" d="M63.5,28.8c0.4,0.6,1,1.2,1.7,1.5c0.7,0.4,1.5,0.5,2.2,0.5s1.5-0.2,2.2-0.5c0.7-0.4,1.3-0.9,1.7-1.5
			c0.1-0.1,0.1-0.3,0.1-0.4s-0.1-0.3-0.2-0.4c0,0-0.2-0.1-0.3,0c-0.1,0-0.3,0.1-0.4,0.2c-0.3,0.5-0.8,0.9-1.3,1.2
			c-0.5,0.3-1.1,0.4-1.7,0.4s-1.2-0.1-1.7-0.4s-1-0.7-1.3-1.2C64.3,28.1,64.2,28,64,28c-0.1,0-0.3,0-0.4,0.1
			c-0.1,0.1-0.2,0.2-0.2,0.4C63.4,28.6,63.4,28.7,63.5,28.8z"/>
	</g>
	<path class="st3" d="M42.7,58c-0.2-0.1-0.6,0-0.7,0.2c-2.3,4.7-7.9,8.7-13.9,10.1c-0.3,0.1-0.5,0.3-0.4,0.6
		c0.1,0.2,0.3,0.4,0.5,0.4c0.1,0,0.1,0,0.1,0c6.4-1.4,12.3-5.7,14.7-10.7C43.1,58.4,43,58.2,42.7,58z"/>
	<g id="Layer_7">
		<polygon class="st4" points="62.6,8.8 64.5,14.6 70.6,14.6 65.6,18.2 67.5,24.1 62.6,20.5 57.6,24.1 59.5,18.2 54.6,14.6 
			60.7,14.6 		"/>
	</g>
	<g id="Layer_8">
		<polygon class="st4" points="72.1,8.8 74,14.6 80.1,14.6 75.2,18.2 77.1,24.1 72.1,20.5 67.2,24.1 69.1,18.2 64.1,14.6 70.2,14.6 
					"/>
	</g>
	<g id="Layer_3">
		<polygon class="st5" points="72.1,10.2 73.6,15 78.6,15 74.6,17.9 76.1,22.6 72.1,19.7 68.1,22.6 69.6,17.9 65.6,15 70.6,15 		"/>
	</g>
	<g id="Layer_4">
		<polygon class="st5" points="62.6,10.2 64.1,15 69.1,15 65.1,17.9 66.6,22.6 62.6,19.7 58.5,22.6 60.1,17.9 56.1,15 61,15 		"/>
	</g>
	<g id="Layer_5">
		<polygon class="st6" points="62.6,13 63.4,15.6 66.1,15.6 63.9,17.2 64.8,19.8 62.6,18.2 60.4,19.8 61.2,17.2 59,15.6 61.7,15.6 
					"/>
	</g>
	<g id="Layer_6">
		<polygon class="st6" points="72.1,13.3 73,15.9 75.7,15.9 73.5,17.5 74.3,20.1 72.1,18.5 69.9,20.1 70.7,17.5 68.5,15.9 
			71.3,15.9 		"/>
	</g>
</g>
<g id="Layer_4_1_" class="st0">
	<g id="Layer_2_2_" class="st7">
		<path class="st8" d="M5.3,40c0.1,0,0.6-0.3,1.2-0.2c0.5,0.1,0.8,0.6,0.9,0.7c0.9,1.2,2.3,1.9,3.4,2.9c1.6,1.5,3.2,2.5,4.4,3.3
			c2.3,1.5,4.1,2.7,6.6,3.3c1.1,0.3,5.8,1.5,9.8-0.5c1.4-0.7,2.8-1.9,5-1.8c0.8,0,1.5,0.3,1.8-0.1c0.4-0.5-0.2-1.9-1.2-4.1
			c-0.5-1.1-0.9-1.8-0.6-2.4c0.2-0.4,0.7-0.6,1-0.7c0.9-0.3,1.5,0,2.5,0.2c2,0.3,2.7-0.5,3.4,0.1c0.5,0.4,0.5,1.1,0.5,2.5
			c0,2-0.5,2.4-0.3,3.7c0.1,1,0.4,1,1.2,2.9c0.4,1.1,1,2.4,1.1,4c0.1,1.9-0.4,3.4-0.7,4.3c-0.9,2.4-2.4,3.9-3.8,5.3
			c-3.1,3-6.2,4.6-7.4,5.2c-3.9,1.8-7.1,2.2-9,2.4c-2.7,0.3-6,0.7-10-0.5c-3.3-1-5.4-2.5-7.1-3.8c-1.4-1.1-4.1-3.2-4.6-5.6
			c-0.1-0.4-0.3-1.6,0.3-2.1c0.4-0.4,1.1-0.3,1.2-0.6C5,58,4.4,57.6,3.8,57c-0.6-0.7-0.5-1.2-1-3.4c-0.6-2.6-1-2.7-0.8-3.7
			c0.1-0.3,0.3-1.9,1.4-2.3c0.8-0.3,1.6,0.2,1.8,0s-0.4-0.7-0.7-1.4c-0.9-1.8-0.2-3.8,0.1-4.6C4.7,40.5,5,40.2,5.3,40z"/>
	</g>
	<path class="st9" d="M45.4,50.2c-0.2-0.3-0.4-0.6-0.5-1c-0.8-1.9-0.8-3.4-0.5-5.3c0.2-1.4,0.2-2-0.2-2.6c-0.5-0.6-1.2-0.6-2.2-0.7
		h-0.2c-0.3-0.1-0.6-0.1-0.8-0.1c-2.3-0.1-3.7-0.1-4.3,0.8c-0.6,0.8-0.2,2,0.7,3.7c0.4,0.9,0.6,1.7,0.7,2.3c-1,0.1-2.2,0.5-3.7,1.1
		c-2.9,1.1-7,2.7-11.9,1.3c-5.8-1.6-10.7-6-13.3-8.4c-1.3-1.1-1.8-1.6-2.2-1.8c-0.6-0.2-1.4,0.2-1.8,0.5L5,40.1
		c-0.3,0.2-0.7,0.6-0.9,1c-0.4,1.3-0.5,3.7,0.5,6.5c-0.4-0.2-0.6-0.2-0.8-0.3c-0.6-0.1-1.3,0.4-1.8,0.9l-0.2,0.2
		C1.4,48.7,1,49.1,1,49.6c-0.1,2.1,1,5.4,3.5,8.5l0,0c-0.6,0.1-1.1,0.8-1.5,1.4v0.2c-0.2,0.4-0.4,0.9-0.3,1.4c0.6,2.3,3.1,5.7,7.2,8
		c2.5,1.4,6.4,2.8,11.7,2.8c2.3,0,5-0.3,7.9-1c6.8-1.6,13.2-6.2,15.8-11.6C46.8,56.1,46.9,52.9,45.4,50.2z M5,41.4L5,41.4
		c0.2,0.1,0.4,0.4,0.6,0.7c1.6,2.7,5,8.7,13,11.7c-5-1.2-9.4-3.6-12.1-5.1c-0.2-0.1-0.4-0.2-0.5-0.3C4.7,45.6,4.6,42.9,5,41.4z
		 M2.2,49.7c0,0,0-0.1,0.1-0.2c0.2,0.2,0.5,0.5,0.8,0.8c2.5,2.7,8.5,9,19.3,9.6c0.4,0,0.7,0,1,0c1.1,0,2.2-0.1,3.2-0.3
		c-0.1,0.1-0.3,0.1-0.4,0.1c-6.8,1.5-14.3-0.2-18.3-1.1c-0.7-0.2-1.2-0.3-1.6-0.3C3.2,55.2,2,51.7,2.2,49.7z M44.3,59
		c-2.5,5.1-8.5,9.5-15,11c-16.7,3.8-24.5-5.3-25.5-9.1c0-0.1,0-0.1,0.1-0.3c0.3,0.1,0.7,0.3,1,0.6c3.4,2,11.4,6.6,22.5,4
		c7.3-1.6,11.1-7,13.2-10.9c0.1-0.2,0.1-0.6-0.2-0.7c-0.2-0.1-0.6-0.1-0.7,0.2c-2,3.7-5.6,8.8-12.6,10.4c-10.7,2.4-18.4-2-21.7-3.9
		c-0.5-0.3-0.8-0.5-1.1-0.6c0.2-0.4,0.4-0.6,0.6-0.6c0.3-0.1,1.6,0.2,2.8,0.5c2.9,0.7,7.6,1.7,12.6,1.7c2,0,4.2-0.2,6.2-0.7
		c5.3-1.2,8.4-4.2,10.9-7.3c0.2-0.2,0.1-0.6-0.1-0.7c-0.2-0.2-0.6-0.1-0.8,0.1c-0.2,0.3-0.5,0.6-0.8,0.9c-4.3,3.7-8.6,5.5-13.3,5.2
		c-10.5-0.6-16.2-6.7-18.7-9.3c-0.4-0.4-0.6-0.6-0.8-0.9c0.3-0.2,0.5-0.3,0.7-0.3c0.3,0.1,1.3,0.6,2.3,1.2c3.5,1.9,10,5.5,16.8,5.9
		c0.4,0,0.7,0,1,0c2.4,0,4.4-0.5,6.2-1.2H30c0.1,0,0.1-0.1,0.1-0.1c2.3-0.9,4.1-2.2,5.6-3.2c0.5-0.3,1-0.7,1.4-1
		c0.2-0.2,0.3-0.5,0.2-0.7c-0.2-0.2-0.5-0.3-0.7-0.2c-0.5,0.3-1,0.6-1.5,1c-1.6,1-3.4,2.3-5.6,3.1c-2.9,0.9-5.8,0.9-8.6,0.1
		C11.8,50.6,8,44.1,6.4,41.3c-0.2-0.4-0.4-0.7-0.5-0.9c0.3-0.1,0.5-0.2,0.6-0.2c0.2,0.1,1,0.8,1.8,1.5C11,44.4,16,48.8,22,50.6
		c1.5,0.4,2.9,0.6,4.3,0.6c3.4,0,6.1-1.1,8.3-1.9c1.6-0.6,2.9-1.1,3.8-1h0.1h0.1c0,0,0,0,0.1,0s0.1,0,0.1-0.1c0,0,0.1,0,0.1-0.1
		C39,48.1,39,48,39,48l0.1-0.1l0.1-0.1c0,0,0-0.1,0.1-0.1c0,0,0,0,0-0.1v-0.1v-0.1c-0.1-0.7-0.2-2-0.8-3.3c-0.3-0.6-1.1-2.2-0.7-2.7
		c0.3-0.5,1.9-0.4,3.4-0.3c0.2,0,0.5,0,0.7,0.1h0.2c0.8,0.1,1.3,0.2,1.5,0.3c0.2,0.2,0.2,0.8,0.1,1.8c-0.7,2.1-0.7,3.8,0.3,6
		c0.1,0.3,0.3,0.7,0.5,1C45.8,53.1,45.7,55.9,44.3,59z"/>
	<path class="st9" d="M42.7,57.9c-0.2-0.1-0.6,0-0.7,0.2c-2.3,4.7-7.9,8.7-13.9,10.1c-0.3,0.1-0.5,0.3-0.4,0.6
		c0.1,0.2,0.3,0.4,0.5,0.4c0.1,0,0.1,0,0.1,0c6.4-1.4,12.3-5.7,14.7-10.7C43.1,58.3,43,58.1,42.7,57.9z"/>
</g>
<g id="Layer_9">
</g>
<g id="Layer_3_1_">
	<path class="st8" d="M37,66.1c0-5,4-9.2,8.9-9.4c0.1-0.7,0.2-1.6,0.2-2.5c-0.1-1.6-0.7-2.9-1.1-4c-0.8-1.9-1.1-1.9-1.2-2.9
		c-0.2-1.3,0.3-1.7,0.3-3.7c0-1.4,0-2.1-0.5-2.5c-0.7-0.6-1.4,0.2-3.4-0.1c-1-0.2-1.6-0.5-2.5-0.2c-0.3,0.1-0.8,0.3-1,0.7
		c-0.3,0.6,0.1,1.3,0.6,2.4c1,2.2,1.6,3.6,1.2,4.1c-0.3,0.4-1,0.1-1.8,0.1c-2.2-0.1-3.6,1.1-5,1.8c-4,2-8.7,0.8-9.8,0.5
		c-2.5-0.6-4.3-1.8-6.6-3.3c-1.2-0.8-2.8-1.8-4.4-3.3c-1.1-1-2.5-1.7-3.4-2.9c-0.1-0.1-0.4-0.6-0.9-0.7c-0.6-0.1-1.1,0.2-1.2,0.2
		c-0.3,0.2-0.6,0.5-0.7,1.6c-0.3,0.8-1,2.8-0.1,4.6C5,47.3,5.6,47.8,5.4,48c-0.2,0.2-1-0.3-1.8,0c-1.1,0.4-1.3,2-1.4,2.3
		C2,51.3,2.4,51.4,3,54c0.5,2.2,0.4,2.7,1,3.4c0.6,0.6,1.2,1,1.1,1.4C5,59.1,4.3,59,3.9,59.4c-0.6,0.5-0.4,1.7-0.3,2.1
		c0.5,2.4,3.2,4.5,4.6,5.6c1.7,1.3,3.8,2.8,7.1,3.8c4,1.2,7.3,0.8,10,0.5c1.9-0.2,5.1-0.6,9-2.4c0.6-0.3,1.6-0.8,2.9-1.6
		C37.1,67,37,66.5,37,66.1z"/>
</g>
<g id="Layer_8_1_">
</g>
<g id="Layer_5_1_">
	<path class="st2" d="M37.1,66.7c-2.3,1.5-5,2.7-7.8,3.3c-16.7,3.8-24.5-5.3-25.5-9.1c0-0.1,0-0.1,0.1-0.3c0.3,0.1,0.7,0.3,1,0.6
		c3.4,2,11.4,6.6,22.5,4c7.3-1.6,11.1-7,13.2-10.9c0.1-0.2,0.1-0.6-0.2-0.7c-0.2-0.1-0.6-0.1-0.7,0.2c-2,3.7-5.6,8.8-12.6,10.4
		c-10.7,2.4-18.4-2-21.7-3.9c-0.5-0.3-0.8-0.5-1.1-0.6c0.2-0.4,0.4-0.6,0.6-0.6c0.3-0.1,1.6,0.2,2.8,0.5c2.9,0.7,7.6,1.7,12.6,1.7
		c2,0,4.2-0.2,6.2-0.7c5.3-1.2,8.4-4.2,10.9-7.3c0.2-0.2,0.1-0.6-0.1-0.7c-0.2-0.2-0.6-0.1-0.8,0.1c-0.2,0.3-0.5,0.6-0.8,0.9
		c-4.3,3.7-8.6,5.5-13.3,5.2c-10.5-0.6-16.2-6.7-18.7-9.3c-0.4-0.4-0.6-0.6-0.8-0.9c0.3-0.2,0.5-0.3,0.7-0.3
		c0.3,0.1,1.3,0.6,2.3,1.2c3.5,1.9,10,5.5,16.8,5.9c0.4,0,0.7,0,1,0c2.4,0,4.4-0.5,6.2-1.2H30c0.1,0,0.1-0.1,0.1-0.1
		c2.3-0.9,4.1-2.2,5.6-3.2c0.5-0.3,1-0.7,1.4-1c0.2-0.2,0.3-0.5,0.2-0.7c-0.2-0.2-0.5-0.3-0.7-0.2c-0.5,0.3-1,0.6-1.5,1
		c-1.6,1-3.4,2.3-5.6,3.1c-2.9,0.9-5.8,0.9-8.6,0.1C11.8,50.6,8,44.1,6.4,41.3c-0.2-0.4-0.4-0.7-0.5-0.9c0.3-0.1,0.5-0.2,0.6-0.2
		c0.2,0.1,1,0.8,1.8,1.5C11,44.4,16,48.8,22,50.6c1.5,0.4,2.9,0.6,4.3,0.6c3.4,0,6.1-1.1,8.3-1.9c1.6-0.6,2.9-1.1,3.8-1h0.1h0.1
		c0,0,0,0,0.1,0c0.1,0,0.1,0,0.1-0.1c0,0,0.1,0,0.1-0.1C39,48.1,39,48,39,48l0.1-0.1l0.1-0.1c0,0,0-0.1,0.1-0.1c0,0,0,0,0-0.1v-0.1
		v-0.1c-0.1-0.7-0.2-2-0.8-3.3c-0.3-0.6-1.1-2.2-0.7-2.7c0.3-0.5,1.9-0.4,3.4-0.3c0.2,0,0.5,0,0.7,0.1h0.2c0.8,0.1,1.3,0.2,1.5,0.3
		c0.2,0.2,0.2,0.8,0.1,1.8c-0.7,2.1-0.7,3.8,0.3,6c0.1,0.3,0.3,0.7,0.5,1c1,2.1,1.2,4.2,0.6,6.5c0.4-0.1,0.7-0.1,1.1-0.1
		c0.5-2.3,0.3-4.5-0.8-6.5c-0.2-0.3-0.4-0.6-0.5-1c-0.8-1.9-0.8-3.4-0.5-5.3c0.2-1.4,0.2-2-0.2-2.6c-0.5-0.6-1.2-0.6-2.2-0.7h-0.2
		c-0.3-0.1-0.6-0.1-0.8-0.1c-2.3-0.1-3.7-0.1-4.3,0.8c-0.6,0.8-0.2,2,0.7,3.7c0.4,0.9,0.6,1.7,0.7,2.3c-1,0.1-2.2,0.5-3.7,1.1
		c-2.9,1.1-7,2.7-11.9,1.3c-5.8-1.6-10.7-6-13.3-8.4c-1.3-1.1-1.8-1.6-2.2-1.8c-0.6-0.2-1.4,0.2-1.8,0.5L5,40.1
		c-0.3,0.2-0.7,0.6-0.9,1c-0.4,1.3-0.5,3.7,0.5,6.5c-0.4-0.2-0.6-0.2-0.8-0.3c-0.6-0.1-1.3,0.4-1.8,0.9l-0.2,0.2
		C1.4,48.7,1,49.1,1,49.6c-0.1,2.1,1,5.4,3.5,8.5c-0.6,0.1-1.1,0.8-1.5,1.4v0.2c-0.2,0.4-0.4,0.9-0.3,1.4c0.6,2.3,3.1,5.7,7.2,8
		c2.5,1.4,6.4,2.8,11.7,2.8c2.3,0,5-0.3,7.9-1c2.7-0.6,5.3-1.7,7.7-3.2C37.1,67.4,37.1,67,37.1,66.7z M5,41.4l0.1-0.1
		c0.1,0.2,0.3,0.5,0.5,0.8c1.6,2.7,5,8.7,13,11.7c-5-1.2-9.4-3.6-12.1-5.1c-0.2-0.1-0.4-0.2-0.5-0.3C4.7,45.6,4.6,42.9,5,41.4z
		 M2.2,49.7c0,0,0-0.1,0.1-0.2c0.2,0.2,0.5,0.5,0.8,0.8c2.5,2.7,8.5,9,19.3,9.6c0.4,0,0.7,0,1,0c1.1,0,2.2-0.1,3.2-0.3
		c-0.1,0.1-0.3,0.1-0.4,0.1c-6.8,1.5-14.3-0.2-18.3-1.1c-0.7-0.2-1.2-0.3-1.6-0.3C3.2,55.2,2,51.7,2.2,49.7z"/>
</g>
<g id="Layer_7_1_">
</g>
<g id="Layer_6_1_">
	<path class="st2" d="M37.4,63.6c-2.6,2.1-5.9,3.7-9.3,4.5c-0.3,0.1-0.5,0.3-0.4,0.6c0.1,0.2,0.3,0.4,0.5,0.4c0.1,0,0.1,0,0.1,0
		c3.2-0.7,6.2-2.1,8.8-4C37.1,64.7,37.2,64.1,37.4,63.6z"/>
</g>
<g id="Layer_10">
</g>
<g id="Layer_11" class="st0">
	<path class="st10" d="M46.2,56c-4.7,0.8-9.7,6.2-9.7,11.2c0,0.2,0,0.5,0,0.7"/>
</g>
<g id="Layer_12">
	<path class="st11" d="M38.2,67.5c-0.9-1.5-1.2-3.1-0.3-5.3c0.3-0.8,1.1-1.8,1.7-2.5c0.5-0.6,1.3-1.3,2.6-1.9
		c1.9-0.9,3.1-0.8,4.3-0.6"/>
</g>
</svg>
