<?xml version="1.0" encoding="utf-8"?>
<!-- Generator: Adobe Illustrator 24.0.0, SVG Export Plug-In . SVG Version: 6.00 Build 0)  -->
<svg version="1.1" id="Layer_1" xmlns="http://www.w3.org/2000/svg" xmlns:xlink="http://www.w3.org/1999/xlink" x="0px" y="0px"
	 viewBox="0 0 38 28" style="enable-background:new 0 0 38 28;" xml:space="preserve">
<style type="text/css">
	.st0{fill:#4B9200;}
</style>
<path class="st0" d="M34.9,20.5c1.5-2.9,2.8-6.4,2.8-10.2c0-1.9-0.6-4-1.6-5.8c-0.9-1.5-2.5-3.4-5.3-4.1c-3.5-0.9-7.1-0.1-10,0.6
	c-1,0.2-2,0.5-2.9,0.6C16,1.9,14,1.8,12.3,1.8h0c-0.3,0-0.5,0-0.8,0c-1.1,0-3.6-0.1-3.6-0.1c-0.1-0.6-0.4-1-0.8-1.2
	C6.9,0.3,6.8,0.3,6.6,0.3c-0.2,0-0.4,0.1-0.5,0.1C5.5,0.7,5.3,1.3,5.4,2C4.5,2.4,3.7,3.3,3.2,4C2.8,4.5,2.4,5.5,2,6.3
	C1.7,7.2,1.3,8.2,0.9,8.5C0.8,8.6,0.8,8.7,0.7,8.8c0,0,0,0,0,0c-0.1,0-0.2,0-0.2,0C0.4,8.9,0.3,8.9,0.2,9C0.2,9,0.1,9.1,0.1,9.2
	C0,9.3,0,9.3,0,9.4c0,0.1,0,0.2,0,0.3c0,0.1,0.1,0.2,0.1,0.2c0.1,0.1,0.1,0.1,0.2,0.2c0.1,0,0.2,0.1,0.2,0.1
	c0.1,0.2,0.2,0.5,0.3,0.7c0.8,1.5,2,2.5,3,3.3c0.6,0.5,1.1,0.9,1.6,1.4c0.3,0.4,0.6,0.8,0.8,1.3c0,0,0,0,0,0
	c0.4,0.8,0.8,1.9,0.8,2.9c0.1,1.2,0.3,4.6,0.3,5.7c-0.2,0.1-0.4,0.2-0.6,0.3c-0.1,0.1-0.2,0.3-0.3,0.5c0,0.2,0,0.4,0,0.6
	c0.1,0.2,0.2,0.3,0.3,0.5c0.1,0.1,0.3,0.2,0.5,0.2h3.5c0.1,0,0.2,0,0.3-0.1s0.2-0.1,0.3-0.2c0.8-1.1,2.7-3.9,4-6.4
	c4.8,0,8-0.2,9.9-0.6c0.3,2.1,0.7,4.5,0.8,5.3c-0.1,0.1-0.2,0.1-0.3,0.2c-0.1,0.1-0.2,0.3-0.3,0.5c-0.1,0.2,0,0.4,0,0.6
	c0.1,0.2,0.2,0.4,0.3,0.5c0.1,0.1,0.3,0.2,0.5,0.2h3.3c0.2,0,0.4-0.1,0.5-0.2C31.3,26,33.2,23.7,34.9,20.5
	C34.9,20.5,34.9,20.5,34.9,20.5z M11.6,10.6c-1.1,2.6-2.9,4.7-4.9,5.6c-0.2-0.4-0.5-0.8-0.8-1.2c-0.5-0.5-1-1-1.6-1.5
	c-1-0.8-2.1-1.7-2.8-3C1,9.7,1.2,9.3,1.4,9.1c0.5-0.5,0.9-1.4,1.3-2.5C3,5.8,3.3,5,3.7,4.5c0.5-0.6,1.3-1.4,2-1.8
	c0.1,0,0.1-0.1,0.2-0.2c0.4,0.7,1.4,0.6,1.7,0c0,0,0-0.1,0-0.1c1.1,0.2,2.8,0.1,3.8,0.2c0.2,0,0.4,0,0.6,0
	C12.8,5.1,12.7,7.9,11.6,10.6z M32.2,17.7c-0.6-0.1-3.7-0.7-6.3,1.1c-0.1-1-0.2-1.8-0.2-2.2c0-0.1,0-0.2-0.1-0.3
	c-0.1-0.1-0.1-0.1-0.2-0.1c-0.1,0-0.2,0-0.2,0.1C25,16.4,25,16.5,25,16.6c0,0.5,0.1,1.4,0.2,2.5c-1.6,0.4-4.3,0.6-8.1,0.6
	c0.8-0.5,1.4-1.3,1.8-2.3c0.6-1.4,0.9-3.2,0.8-5.3c-0.1-2.3-1.6-5.4-2.9-8C16.5,3.6,16.3,3,16,2.5c0.6,0,1.3-0.1,1.9-0.2
	c0.9-0.1,1.9-0.4,2.9-0.6c2.8-0.7,6.3-1.5,9.7-0.6c4.7,1.2,6.4,6.2,6.4,9.1c0,3.3-1,6.5-2.3,9.1C34.3,18.8,33.5,18,32.2,17.7z"/>
<path class="st0" d="M4.5,6C2.9,5.4,2,7.1,3,8.1c0.5,0.5,1.1,1.8,2.2,1.7C7.1,9.6,6.9,6.9,4.5,6z M3.8,7.6c-0.1,0-0.2,0-0.3-0.1
	C3.4,7.5,3.4,7.4,3.3,7.3c0-0.1,0-0.2,0-0.3c0-0.1,0.1-0.2,0.1-0.2c0.1-0.1,0.1-0.1,0.2-0.1c0.1,0,0.2,0,0.3,0
	c0.1,0,0.2,0.1,0.2,0.2C4.2,7,4.2,7,4.2,7.1c0,0.1,0,0.2-0.1,0.3C4,7.6,3.9,7.6,3.8,7.6z"/>
<path class="st0" d="M19,20.9C19,20.9,19,20.8,19,20.9C19,20.8,19,20.8,19,20.9c-0.4-0.1-2.4,0-3.2,0c0,0,0,0,0,0c0,0,0,0,0,0
	c-0.5,1-1.5,2.7-2.1,3.7c0,0,0,0,0,0.1c0,0,0,0,0,0.1l0.9,1.2l0,0c0,0,0,0,0,0c-0.1,0.1-0.1,0.3-0.1,0.4c0,0.2,0,0.3,0.1,0.5
	c0.1,0.1,0.2,0.3,0.3,0.3c0.1,0.1,0.2,0.1,0.4,0.1h3.6c0.1,0,0.2,0,0.3-0.1c0.1,0,0.2-0.1,0.2-0.2c0.1-0.1,0.1-0.2,0.2-0.3
	c0-0.1,0.1-0.2,0-0.3c0-0.6,0-1.6-0.1-2.6C19.3,22.8,19.2,21.8,19,20.9z"/>
<path class="st0" d="M36.7,18.3C36.7,18.2,36.7,18.2,36.7,18.3C36.7,18.2,36.7,18.2,36.7,18.3c-0.1-0.1-0.1-0.1-0.1,0c0,0,0,0,0,0
	c-0.1,0.3-0.2,0.6-0.3,0.8c-1,2.2-2.3,4.3-3.7,6.3c0,0,0,0,0,0.1c0,0,0,0,0,0.1l0.2,0.3c-0.1,0.1-0.1,0.2-0.2,0.3
	c-0.1,0.1-0.1,0.3-0.1,0.4c0,0.1,0.1,0.3,0.1,0.4c0.1,0.1,0.1,0.2,0.2,0.3c0.1,0.1,0.2,0.1,0.3,0.1H37c0.1,0,0.2,0,0.3-0.1
	c0.1,0,0.2-0.1,0.2-0.2c0.1-0.1,0.1-0.2,0.2-0.3c0-0.1,0.1-0.2,0-0.3C37.7,24.7,37.5,20.8,36.7,18.3z"/>
</svg>
