<?xml version="1.0" encoding="utf-8"?>
<!-- Generator: Adobe Illustrator 24.0.0, SVG Export Plug-In . SVG Version: 6.00 Build 0)  -->
<svg version="1.1" id="Layer_1" xmlns="http://www.w3.org/2000/svg" xmlns:xlink="http://www.w3.org/1999/xlink" x="0px" y="0px"
	 viewBox="0 0 108 60" style="enable-background:new 0 0 108 60;" xml:space="preserve">
<style type="text/css">
	.st0{fill:#FE9013;}
	.st1{fill:#FF2A2A;}
	.st2{opacity:0.66;fill:#FFFF2A;stroke:#000000;stroke-miterlimit:10;enable-background:new    ;}
	.st3{fill:#333B41;}
</style>
<g id="Layer_5">
	<path class="st0" d="M47.8,14c7.1-13,57.2-8.8,59.6,0c0.1,0.5-0.1,0.3-0.1,3.8c-0.1,6.6-0.2,9.9,0,10.9s0,4.6-0.9,5.9
		c-0.6,0.9-0.2,1.4-1.6,1.6c-1.6,0.2-3.1,0.2-3.5,0.2c0,0-46.2,2-54.5-0.2c-0.3-0.1,0-2,0.1-2.6c0.1-0.7,1.7-0.7,2.6-1.1
		c3.5-1.2,5.5-1.7,6.3-1.9c4.6-1.4,4-1.6,5.6-1.8c1.5-0.1,2.3-0.5,3.5-1.2c0.4-0.2,1.6-0.8,2-2.2c0-0.1,0.4-1.6-0.7-2.8
		c-0.2-0.2-1-1.1-3.3-1.3c-3.8-0.4-5.9,1.4-12.4,2.6c-1.7,0.3-2.2,0.3-2.6,0.1C45.3,22.9,46.3,16.8,47.8,14z"/>
</g>
<g id="Layer_6">
	<path class="st0" d="M47.6,6.2c0.9,1.9,6.4,0.6,11.2,0c7.8-1.1,5.5,0.5,22.1,0.1C96,5.8,98,4.5,102.7,6c0.8,0.3,3.9,1.3,4.6,0.3
		c0.6-0.9-0.8-2.9-1-3.2c-0.3-0.5-1.2-1.6-2.7-2.2c-1.7-0.6-2.9,0-4.8,0.3c-2.6,0.4-4,0-6.8-0.3C80.3-0.4,71.2,4.2,60.8,1.1
		c0,0-4.9-1.5-9.5-0.1c-0.6,0.2-1.7,0.5-2.5,1.5C47.9,3.5,47.2,5.2,47.6,6.2z"/>
</g>
<g id="Layer_2_1_">
	<rect x="47.4" y="5.8" width="58.9" height="7.3"/>
</g>
<g id="Layer_3">
	<circle class="st1" cx="93" cy="28.8" r="4.5"/>
</g>
<g id="Layer_4">
	<circle class="st2" cx="98.3" cy="28.8" r="4.5"/>
</g>
<g id="Layer_1_1_">
	<path class="st3" d="M47,25c-0.1,0-0.1,0-0.2-0.1c-15.3-5.7-22.4,5-22.4,5c-0.2,0.2-0.4,0.4-0.6,0.5L5.6,36.3c-1,0.3-1.9,1-2.4,1.8
		C2.7,38.9,2.4,40,2.5,41l1.2,14.8c0,0.3,0.1,0.6,0.3,0.9c0.2,0.3,0.4,0.5,0.7,0.6c0.3,0.2,0.6,0.2,0.9,0.2s0.6-0.1,0.9-0.2l0,0
		l18.3-10.2c0.2-0.1,0.4-0.2,0.7-0.2c0,0,15.8,0.6,21.7,1.7c5.2,1,7.4-0.9,7.5-0.9l0,0c0.1-0.1,0.1-0.1,0.2-0.1L72.4,38H47.9l0,0
		c-0.1,0-0.2,0-0.3,0c-0.9-0.3-1.5-0.9-1.9-1.6c-0.2-0.4-0.3-0.9-0.2-1.4c0-0.5,0.2-0.9,0.4-1.4c0.4-0.6,1-1,1.8-1.2l15.9-5
		c0.9-0.3,1.4-1,1.6-1.8c0.1-0.4,0.1-0.7,0-1.1c-0.1-0.3-0.2-0.6-0.4-0.9c-0.5-0.6-1.5-0.9-3-0.7l-13.5,2.4l0,0
		c-0.2,0-0.5,0-0.7-0.1C47.4,25.2,47.2,25.1,47,25z M46.1,22.1V5.9c0-1.6,0.7-3.1,1.7-4.1C48.9,0.7,50.3,0,52,0h50.2
		c1.6,0,3.1,0.7,4.1,1.7c1.1,1.1,1.7,2.5,1.7,4.1V32c0,1.6-0.7,3.1-1.7,4.1c-1.1,1.1-2.5,1.7-4.1,1.7H77.6L56,49.7
		c-0.6,0.4-3.7,2.5-9.4,1.4c-5.2-1-18.7-1.6-21-1.7l-18,10l0,0C7,59.8,6.3,60,5.5,60c-0.7,0-1.4-0.2-2.1-0.5
		c-0.7-0.4-1.2-0.8-1.6-1.4c-0.4-0.6-0.6-1.3-0.7-2L0,41.2c-0.1-1.6,0.3-3.2,1.2-4.5C2,35.5,3.3,34.5,4.9,34l17.7-5.7
		C24.1,26.3,31.7,17.5,46.1,22.1z M77.3,35.5L77.3,35.5h24.9c0.9,0,1.8-0.4,2.4-1s1-1.5,1-2.4v-19h-57v9.7l12.7-2.3
		c2.5-0.4,4.2,0.3,5.3,1.5c0.5,0.6,0.8,1.3,1,2c0.1,0.3,0.1,0.6,0.1,0.9h3.7c0.3,0,0.6,0.3,0.6,0.6s-0.3,0.6-0.6,0.6h-3.8
		c-0.2,0.9-0.6,1.8-1.3,2.4c0.1,0.1,0.1,0.2,0.1,0.4c0,0.3-0.3,0.6-0.6,0.6h-1c-0.2,0.1-0.3,0.1-0.5,0.2l-16,5c-0.1,0-0.2,0-0.3,0.1
		h-0.1c0,0,0,0.1-0.1,0.2c0,0.1,0,0.2,0,0.3s0.1,0.1,0.1,0.2H77.3z M93,23.5c0.9,0,1.8,0.2,2.5,0.6c0.3-0.2,0.6-0.3,1-0.4
		c0.5-0.2,1-0.2,1.6-0.2c1.5,0,2.8,0.6,3.8,1.6s1.6,2.3,1.6,3.8s-0.6,2.8-1.6,3.8c-1,1-2.3,1.6-3.8,1.6c-0.5,0-1.1-0.1-1.6-0.2
		c-0.3-0.1-0.7-0.2-1-0.4c-0.8,0.4-1.6,0.6-2.5,0.6c-1.5,0-2.8-0.6-3.8-1.6s-1.6-2.3-1.6-3.8s0.6-2.8,1.6-3.8
		C90.2,24.1,91.5,23.5,93,23.5z M97,25.3c0.8,0.9,1.3,2.2,1.3,3.6s-0.5,2.6-1.3,3.6c0.3,0.1,0.7,0.2,1.1,0.2c1,0,1.9-0.4,2.6-1.1
		c0.7-0.7,1.1-1.6,1.1-2.6s-0.4-1.9-1.1-2.6s-1.6-1.1-2.6-1.1C97.7,25.1,97.3,25.2,97,25.3z M95.6,26.2c-0.7-0.7-1.6-1.1-2.6-1.1
		s-1.9,0.4-2.6,1.1s-1.1,1.6-1.1,2.6s0.4,1.9,1.1,2.6s1.6,1.1,2.6,1.1s1.9-0.4,2.6-1.1s1.1-1.6,1.1-2.6S96.3,26.9,95.6,26.2z
		 M68.6,29.6c-0.3,0-0.6-0.3-0.6-0.6c0-0.3,0.3-0.6,0.6-0.6h2.1c0.3,0,0.6,0.3,0.6,0.6c0,0.3-0.3,0.6-0.6,0.6H68.6z M92.6,19
		c-0.3,0-0.6-0.3-0.6-0.6s0.3-0.6,0.6-0.6h8c0.3,0,0.6,0.3,0.6,0.6s-0.3,0.6-0.6,0.6H92.6z M74.4,19c-0.3,0-0.6-0.3-0.6-0.6
		s0.3-0.6,0.6-0.6h11.5c0.3,0,0.6,0.3,0.6,0.6S86.2,19,85.9,19H74.4z M51,19c-0.3,0-0.6-0.3-0.6-0.6s0.3-0.6,0.6-0.6h16.8
		c0.3,0,0.6,0.3,0.6,0.6S68.1,19,67.8,19H51z M105.5,11.5V6.7h-57v4.8H105.5z M105.4,5c-0.2-0.6-0.5-1.1-0.9-1.6
		c-0.6-0.6-1.5-1-2.4-1H52c-0.9,0-1.8,0.4-2.4,1c-0.4,0.4-0.7,1-0.9,1.6H105.4z"/>
</g>
</svg>
