<svg width="21" height="37" viewBox="0 0 21 37" fill="none" xmlns="http://www.w3.org/2000/svg">
<path fill-rule="evenodd" clip-rule="evenodd" d="M6.99607 33.9609V34.9318L7.45284 35.5337C7.92874 36.1617 7.15471 36.0031 6.33028 36.0259L5.70601 36.0423L5.23338 36.4085C4.39542 37.0561 4.00024 37.3734 4.24192 36.2867L4.36463 35.7306L3.47302 35.7357C2.57114 35.6704 2.69245 35.5225 3.54534 35.1754L4.96417 34.5964L5.1382 33.8872C1.78451 31.4937 1.81764 25.8002 2.78157 22.1773L4.30165 16.4618C2.15637 18.88 2.22029 19.8598 1.22836 22.9266C0.956353 23.7683 0.318087 24.3851 0.127728 23.2028C-0.26279 20.7878 0.250435 17.8106 1.55403 15.8385C3.13662 13.4431 6.23044 9.00418 6.31302 8.00479C6.43386 6.54536 5.91784 5.10787 5.91784 3.39743C5.91784 -1.13248 14.3207 -1.13248 14.3207 3.39743C14.3207 5.10787 13.8047 6.54536 13.9255 8.00479C14.0081 9.00418 17.1019 13.4431 18.6845 15.8385C19.9881 17.8106 20.5013 20.7878 20.1108 23.2028C19.9205 24.3851 19.2822 23.7683 19.0102 22.9266C18.0183 19.8598 18.0822 18.88 15.9369 16.4618L17.457 22.1773C18.4209 25.8002 18.4541 31.4937 15.1004 33.8872L15.2744 34.5964L16.6932 35.1754C17.5461 35.5225 17.6674 35.6704 16.7655 35.7357L15.8739 35.7306L15.9966 36.2867C16.2383 37.3734 15.8431 37.0561 15.0052 36.4085L14.5325 36.0423L13.9083 36.0259C13.0839 36.0031 12.3098 36.1617 12.7857 35.5337L13.2425 34.9318V33.9609H6.99607ZM12.3999 3.02418C12.7167 3.02418 12.9733 3.28079 12.9733 3.59712C12.9733 3.91439 12.7167 4.171 12.3999 4.171C12.0831 4.171 11.8265 3.91439 11.8265 3.59712C11.8265 3.28079 12.0831 3.02418 12.3999 3.02418ZM7.8387 3.02418C8.15503 3.02418 8.41164 3.28079 8.41164 3.59712C8.41164 3.91439 8.15503 4.171 7.8387 4.171C7.52143 4.171 7.26482 3.91439 7.26482 3.59712C7.26482 3.28079 7.52143 3.02418 7.8387 3.02418ZM10.1188 6.59109L11.3809 4.76681L10.9302 4.25172C10.9782 3.29525 12.0705 2.04438 12.9891 2.50349C13.9447 2.98032 14.0198 6.23276 11.4597 7.04039C14.143 9.17354 15.5809 17.5116 15.5809 22.2776C15.5809 27.7737 13.1356 32.2295 10.1193 32.2295C7.10292 32.2295 4.65764 27.7737 4.65764 22.2776C4.65764 17.5176 6.12079 9.19547 8.80496 7.04879C6.13572 6.2309 6.29809 2.7727 7.3432 2.46663C8.24508 2.20208 9.23094 3.35544 9.27759 4.27924L8.85721 4.76681L10.1188 6.59109Z" fill="#4B9200"/>
</svg>
