<?xml version="1.0" encoding="utf-8"?>
<!-- Generator: Adobe Illustrator 24.0.0, SVG Export Plug-In . SVG Version: 6.00 Build 0)  -->
<svg version="1.1" id="Layer_1" xmlns="http://www.w3.org/2000/svg" xmlns:xlink="http://www.w3.org/1999/xlink" x="0px" y="0px"
	 viewBox="0 0 128 128" style="enable-background:new 0 0 128 128;" xml:space="preserve">
<style type="text/css">
	.st0{fill:#E47209;}
	.st1{fill:#4B9200;}
	.st2{fill:#FFFFFF;}
</style>
<path class="st0" d="M37.9,38.3c0,0,0.2-14.5-1.1-19.5c-1.5-4.8-9-5.7-9-5.7s2-7.2,8.6-6.4c6.6,0.9,10.3,7.5,12.7,13.4
	c5.3,13.4,6.4,31.4,6.4,31.4l-16,38.4l-16-4.6C23.4,85.1,37.9,38.3,37.9,38.3z"/>
<path class="st0" d="M62.7,69.5l2-2.6c0,0,5.3,2.2,8.8,2c3.5-0.2,12.7-2,12.7-2L86.7,82l-25-4.4C61.8,77.4,62.7,69.5,62.7,69.5z"/>
<path class="st0" d="M94.6,53.9c0,0-0.7-11.4-0.7-15.8c0-4.6-2.6-20.2,7.7-20c7.7,0.2,5.7,11.6,5.7,11.6l-2.9,3.3
	c0,0,4.2,22,5.9,27.7c3.3,11.4-0.9,14.9-0.9,14.9l-15.8,2.2L94.6,53.9z"/>
<path class="st1" d="M14.2,9.3c-4.6,1.3-4,5.5-3.7,7.2c0.2,1.8,1.1,2,3.1,2.2c2,0.2,17.1,2.9,20.4,3.7c3.3,0.9,12.1,2.9,19.3,3.5
	c7.2,0.7,28.6,4,30.5,4.6c2,0.4,5.9,2.2,15.4,3.3c9.4,1.1,14.3,2.4,14.9,1.8c0.7-0.7,0.4-8.6-0.4-9.7c-0.9-1.1-14.1-3.3-18.7-3.3
	c-4.6-0.2-7.2,0.2-7.2,0.2S77,20.7,71.5,19.4S56.3,17,50,16.5c-6.6-0.4-19.8-2.4-19.8-2.4s-5.9-2.6-7.9-3.3
	C21.2,10.2,18.3,8.2,14.2,9.3L14.2,9.3z"/>
<path class="st0" d="M66.9,19.4l-8.6,51.8c0,0,6.4,0.9,7.9-0.9s3.7-7.2,4.2-16c0.2-4.2-0.2-17.1-0.2-17.1s5.7,14.5,7.2,18.9
	c1.5,4.4,4.8,20.2,4.8,20.2l8.6-8.3l-18-45.5C73,22.5,66.9,19.4,66.9,19.4z"/>
<path class="st0" d="M30.2,8.8c1.8,0.7-0.7,2.9-1.1,3.7c-0.4,0.9-0.9,2-0.9,2s2-2.2,3.3-3.3c1.5-1.1,3.5-1.8,4.6-0.7
	c1.3,1.3-0.2,2-1.8,3.1c-0.4,0.4-1.3,1.1-2,1.8c-0.9,1.1-1.8,2.4-2.2,2.9c-0.7,1.1-2,2-3.1,1.8c-0.7-0.2-0.4-2.6-0.4-2.6
	s0,1.3-1.1,0.7c-1.1-0.7-1.1-4,0-6.1C26.5,9.9,28.5,8.2,30.2,8.8z"/>
<path class="st0" d="M34.4,18.7c2.6-2.6,7.5-4,5.7-5.5c-1.8-1.5-5.3,0.2-7.5,2.6s-3.1,5.7-1.8,6.1C32,22.2,32.8,20.3,34.4,18.7z"/>
<path class="st0" d="M99.2,21.1c-1.8,0.2-0.4,2.6,0,3.5c0.4,1.3,0.9,3.3,1.1,5.5c0.2,3.3,1.5,3.1,2.2,1.8c0.4-0.9,0.7-2.6,0.7-3.7
	c0-1.8-0.4-2.6-0.2-2.6c0.4,0,0.9,2.4,1.1,4c0,1.8-0.2,3.7,0.9,3.7c1.3,0.2,2.2-1.5,2.2-3.7c0-1.8-0.2-3.3,0-3.3s0.7,1.8,0.7,4
	c0,1.3-0.2,3.5,0.7,3.5c1.3-0.2,2.2-4.2,1.5-7c-0.4-2.2-2-4.8-3.3-5.1c-1.3-0.2-0.9,1.5-0.9,1.5s-0.7-2.2-2.6-2.2
	c-1.8-0.2-1.5,1.5-1.5,1.5S100.9,20.9,99.2,21.1z"/>
<path class="st0" d="M113,66c-3.1,0.4-6.8,6.1-6.8,6.1s-4.8-10.3-9-16.5c-4-6.1-13.4-22.4-14.5-26.1s-1.1-6.8,0.2-7
	c1.1-0.2,0.4-0.7,0.4-0.7s0.7-4.2-3.5-5.9c-3.5-1.3-6.4,0.9-6.4,0.9s-1.5-2-5.9-2s-8.8,2-11,9c-2,5.9-2,17.1-2.2,21.1
	c0,4-1.5,12.7-5.1,18.7c-3.3,5.9-8.1,12.1-8.8,15.2c-0.4,3.1,0.7,7-2,7c-2.6-0.2-4.4-2.9-2.4-7.2c2-4.2,5.9-9,5.9-9L48,50.2l3.5,1.5
	c0.9-4.2,2-10.5-8.8-15.8c-10.8-5.1-28.3-1.1-32.1,12.7c-1.3,4.6-1.3,9-1.3,12.5c0,5.9,1.8,13.8,3.5,19.8c2.6,8.8,6.8,15.2,8.1,17.6
	c2.9,5.1,8.3,10.8,9.2,10.5c0.9-0.4,1.1-2.4,1.1-2.4s2,2.6,6.1,5.7c4.2,3.1,10.3,7.5,11.6,6.8s-0.4-3.3-0.4-3.3s4.8,2.6,9.4,3.7
	c3.7,0.9,11.9,1.3,11.9,0s-3.1-2.4-2.6-3.3c0.4-0.9,1.8,1.5,10.3,0.9c6.1-0.4,17.4-3.7,23.5-13.2c6.1-9.4,9.9-16.5,12.1-21.3
	c2.4-4.6,5.1-8.8,5.7-11C119.8,69.5,119.8,64.9,113,66z M82.2,70.2c-0.4,1.3-4.4,2.6-8.6,2.6c-4.2,0-7.7-1.1-8.8-3.1
	c-1.1-2,1.3-4.8,2.4-10.5c0.9-5.7,0.4-16.5,0.4-23.3c0-6.6,2-13.2,2-13.2s0.2,6.1,0.7,9c0.4,2.4,1.3,5.1,2.4,8.6
	c0.9,2.6,5.1,10.1,7,16.5C81.8,63.1,82.9,68.2,82.2,70.2z"/>
<path class="st0" d="M34.8,43.3c-5.7-0.4-4.2-2.6-9.4-2.9C20.3,40.3,14,46.6,14,53.9c0,7.7,5.1,17.6,18.7,18.2
	c5.3,0.2,7.9-0.7,7.9-0.7c3.7-5.1,6.8-9.4,9-13.6c1.3-2.6,1.8-4.8,2.2-7c0.4-2,0.2-4-2.6-6.6C43.8,38.9,39.7,43.5,34.8,43.3z"/>
<ellipse class="st2" cx="23.6" cy="50.4" rx="3.3" ry="3.3"/>
<ellipse class="st2" cx="43.2" cy="51" rx="3.3" ry="3.1"/>
<path class="st2" d="M33.7,49.3c-3.3-0.4-5.3,2-5.3,2s0.7,1.3,1.8,2.6c0.4,0.4,1.1,1.8,1.1,2.2c0,0.4-1.8,0.9-3.1,0.7
	c-2.4-0.2-3.3-2-4.4-1.1c-1.1,0.7,0.2,2.6,1.3,3.1c1.1,0.7,2.6,0.9,4,0.7c1.8-0.2,3.5-1.1,3.5-1.1s2,1.5,3.1,1.8
	c2.4,0.7,4,0,5.3-0.9c0.9-0.7,1.8-2.2,1.1-2.6c-1.3-0.9-2.2,1.3-4.2,1.3s-3.3-1.5-3.3-1.5s1.1-1.3,1.5-1.8c0.7-0.7,2.2-2.2,2.2-2.2
	S37.7,49.7,33.7,49.3z"/>
<path class="st0" d="M36.6,99.6c-0.9,1.1-5.7-3.3-7.2-5.3c-1.5-2-4-4.8-2.2-6.1c1.8-1.3,3.7,2.9,5.3,4.6
	C33.7,94.7,37.2,98.9,36.6,99.6z"/>
<path class="st0" d="M41.9,98.5c-2,2.2,2,5.7,5.5,8.1s8.8,3.7,9.4,3.1c0.4-0.7-3.7-2.9-7.2-5.7S43.2,97.1,41.9,98.5z"/>
<path class="st0" d="M61.2,96.5c-0.2,1.3,2.9,2.9,7.5,2.6c4.6-0.2,7.9-2.4,7.7-3.3c-0.2-0.9-4.4,0.2-7.7,0.2
	C65.4,96,61.6,93.6,61.2,96.5z"/>
<path class="st0" d="M65.6,111.6c0,2.4,6.8,2,11.2,0.4c5.5-2,8.1-6.4,7.5-7c-0.9-0.9-3.7,2.9-9.2,4.2
	C72.6,109.9,65.6,109.2,65.6,111.6z"/>
</svg>
