<?xml version="1.0" encoding="utf-8"?>
<!-- Generator: Adobe Illustrator 24.0.0, SVG Export Plug-In . SVG Version: 6.00 Build 0)  -->
<svg version="1.1" id="Layer_1" xmlns="http://www.w3.org/2000/svg" xmlns:xlink="http://www.w3.org/1999/xlink" x="0px" y="0px"
	 viewBox="0 0 128 128" style="enable-background:new 0 0 128 128;" xml:space="preserve">
<style type="text/css">
	.st0{fill:#010605;}
</style>
<path d="M36.3,37c0,0,0.3-15.4-1.3-20.5c-1.5-5.2-9.4-5.9-9.4-5.9s2.1-7.6,9-6.8S45.5,11.5,48,17.9C53.6,32,54.7,51,54.7,51L38,91.3
	l-16.9-4.9C21.1,86.4,36.3,37,36.3,37z"/>
<path d="M62.4,69.8l2.1-2.8c0,0,5.5,2.4,9.3,2.1s13.5-2.1,13.5-2.1l0.4,15.9l-26.3-4.7C61.4,78.2,62.4,69.8,62.4,69.8z"/>
<path d="M96.1,53.4c0,0-0.7-12-0.7-16.8s-2.7-21.3,8-21c8.2,0.2,6.1,12.3,6.1,12.3l-3,3.5c0,0,4.4,23.2,6.2,29.3
	c3.5,12.2-0.8,15.8-0.8,15.8l-16.8,2.1L96.1,53.4z"/>
<path d="M11.2,6.4C6.4,7.8,7.1,12.2,7.3,14s1.1,2.1,3.2,2.3s18,3,21.5,3.9c3.5,1,12.7,3,20.4,3.7s30.1,4.2,32.2,4.8
	c2.1,0.6,6.3,2.3,16.3,3.5c10,1.3,15.1,2.5,15.8,1.8c0.7-0.7,0.4-9-0.4-10.3s-14.9-3.4-19.7-3.5s-7.6,0.3-7.6,0.3s-11.3-2.3-17-3.7
	s-15.9-2.5-22.8-3.1c-6.9-0.6-20.8-2.5-20.8-2.5S22,8.5,19.9,7.7C18.7,7.2,15.7,5.2,11.2,6.4L11.2,6.4z"/>
<path d="M66.9,17.1l-9,54.8c0,0,6.8,1,8.3-0.8c1.6-1.8,4-7.6,4.4-16.9c0.2-4.5-0.1-18.2-0.1-18.2s6.1,15.2,7.6,19.9
	c1.6,4.7,5.1,21.3,5.1,21.3l9.2-8.9l-19-48C73.3,20.2,66.9,17.1,66.9,17.1z"/>
<path d="M28.1,5.8c2,0.6-0.8,3.1-1.3,3.9S25.9,12,25.9,12s2-2.3,3.4-3.4c1.5-1.2,3.8-1.9,4.8-0.8c1.3,1.5-0.1,2-1.8,3.2
	c-0.5,0.4-1.3,1.1-2,1.9c-1,1.1-1.9,2.5-2.3,3.1c-0.8,1.1-2,2.2-3.2,1.8c-0.8-0.3-0.4-2.8-0.4-2.8s-0.1,1.3-1.2,0.7
	c-1.1-0.6-1.1-4.2-0.1-6.4C24.2,7.2,26.3,5.3,28.1,5.8z"/>
<path d="M32.5,16.2c2.8-2.9,7.9-4.1,6-5.8s-5.6,0.1-8,2.8s-3.2,6-1.9,6.4C29.9,19.9,30.9,17.9,32.5,16.2z"/>
<path d="M101,18.9c-1.9,0.3-0.5,2.7-0.1,3.7c0.6,1.4,0.9,3.5,1.1,5.8c0.3,3.4,1.7,3.3,2.4,1.9c0.5-1,0.6-2.7,0.6-3.9
	c0-1.9-0.5-2.9-0.2-2.9c0.4,0,1,2.5,1.1,4.2c0.1,1.9-0.2,3.9,0.8,4c1.4,0.2,2.2-1.6,2.3-3.9c0.1-1.8-0.2-3.6,0-3.6
	c0.1,0,0.8,1.8,0.8,4.1c0,1.4-0.3,3.8,0.8,3.7c1.4-0.1,2.2-4.5,1.7-7.4c-0.4-2.4-2.1-5.1-3.4-5.3c-1.3-0.2-0.9,1.7-0.9,1.7
	s-0.8-2.3-2.7-2.4c-1.8-0.1-1.7,1.5-1.7,1.5S102.7,18.6,101,18.9z"/>
<path d="M115.6,66c-3.2,0.4-7.1,6.5-7.1,6.5s-5.2-10.9-9.4-17.4S84.9,31.6,83.7,27.5s-1.1-7.2,0.3-7.4c1.3-0.1,0.5-0.8,0.5-0.8
	s0.6-4.5-3.7-6.2c-3.7-1.5-6.8,0.9-6.8,0.9S72.4,12,67.8,12s-9.2,2-11.6,9.5c-2,6.3-2.2,18-2.3,22.1c-0.1,4.1-1.7,13.4-5.3,19.6
	c-3.6,6.2-8.6,12.8-9.2,16s0.7,7.5-2.1,7.3S32.8,83.5,35,79s6.3-9.6,6.3-9.6l6.3-20.5l3.7,1.7c1-4.3,2.2-11.2-9.3-16.6
	S12,32.8,8,47.4c-1.3,4.8-1.4,9.5-1.4,13.2c0,6.3,1.8,14.7,3.7,20.8c2.7,9.2,7.2,16,8.7,18.5c3.1,5.3,8.8,11.4,9.7,11.1
	c1-0.4,1.2-2.6,1.2-2.6s2.2,2.8,6.6,6s11,7.8,12.4,7.2s-0.6-3.4-0.6-3.4s5,2.7,10,4c3.9,1,12.6,1.3,12.5,0s-3.2-2.6-2.8-3.6
	c0.4-0.9,1.8,1.7,10.8,1c6.6-0.5,18.3-3.9,24.9-13.8s10.3-17.5,12.8-22.4s5.4-9.3,5.9-11.5C122.7,69.8,122.7,65.1,115.6,66z
	 M83,70.4c-0.4,1.3-4.6,2.7-8.9,2.8c-4.3,0.1-8.2-1.2-9.3-3.2c-1.1-2,1.5-5.1,2.4-11.2s0.5-17.5,0.6-24.5s2.2-14,2.2-14
	s0.2,6.6,0.7,9.5c0.4,2.6,1.3,5.4,2.6,9.1c1,2.7,5.3,10.7,7.4,17.5C82.7,63.2,83.7,68.4,83,70.4z"/>
<path d="M33.1,42.2c-6-0.4-4.5-2.7-9.9-3s-12,6.5-12.1,14.1c-0.1,8.1,5.3,18.6,19.8,19.2c5.5,0.3,8.5-0.6,8.5-0.6
	c3.8-5.4,7.3-9.8,9.6-14.3c1.4-2.8,1.9-5,2.4-7.4c0.4-2.1,0.2-4.1-2.8-6.8C42.5,37.7,38,42.5,33.1,42.2z"/>
<ellipse class="st0" cx="21.2" cy="49.6" rx="3.4" ry="3.4"/>
<ellipse class="st0" cx="41.9" cy="50.4" rx="3.4" ry="3.3"/>
<path class="st0" d="M31.9,48.4c-3.5-0.4-5.5,2.1-5.5,2.1s0.8,1.3,1.8,2.8c0.4,0.6,1.3,1.9,1.3,2.3s-1.9,0.8-3.1,0.8
	c-2.4-0.1-3.5-2.1-4.6-1.3c-1.1,0.8,0.2,2.7,1.5,3.3c1.3,0.6,2.8,1,4.3,0.8c1.7-0.2,3.6-1.2,3.6-1.2s2.2,1.5,3.1,1.8
	c2.5,0.6,4.1,0.1,5.5-0.9c0.8-0.7,1.8-2.4,1.1-2.8c-1.5-0.9-2.2,1.4-4.4,1.4c-2.2,0-3.6-1.7-3.6-1.7s1.1-1.3,1.6-1.7
	c0.8-0.7,2.3-2.3,2.3-2.3S36,48.9,31.9,48.4z"/>
<path d="M35,101.6c-1,1.3-6-3.5-7.6-5.5s-4.1-5.2-2.4-6.6c1.7-1.4,4,3,5.5,5S35.6,100.9,35,101.6z"/>
<path d="M40.3,100.5c-2.2,2.3,2.1,6,5.7,8.6s9.3,4,9.9,3.2c0.6-0.8-3.9-3-7.7-6S41.8,98.9,40.3,100.5z"/>
<path d="M60.8,98.3c-0.2,1.4,3,3.1,7.9,2.8s8.3-2.4,8.1-3.4S72.2,98,68.6,98C65.1,98.1,61.3,95.3,60.8,98.3z"/>
<path d="M65.4,114.3c-0.1,2.5,7.3,2.1,11.9,0.5c5.7-2,8.7-6.7,7.8-7.5c-0.8-0.8-3.8,3.1-9.7,4.5C72.8,112.4,65.5,111.9,65.4,114.3z"
	/>
</svg>
