<?xml version="1.0" encoding="utf-8"?>
<!-- Generator: Adobe Illustrator 24.0.0, SVG Export Plug-In . SVG Version: 6.00 Build 0)  -->
<svg version="1.1" id="Layer_1" xmlns="http://www.w3.org/2000/svg" xmlns:xlink="http://www.w3.org/1999/xlink" x="0px" y="0px"
	 viewBox="0 0 128 128" style="enable-background:new 0 0 128 128;" xml:space="preserve">
<style type="text/css">
	.st0{fill:#E47209;}
	.st1{fill:#4B9200;}
	.st2{fill:#FFFFFF;}
</style>
<path class="st0" d="M40.3,40.6c0,0,0.2-13.2-1-17.8c-1.4-4.4-8.2-5.2-8.2-5.2s1.8-6.6,7.8-5.8c6,0.8,9.4,6.8,11.6,12.2
	c4.8,12.2,5.8,28.6,5.8,28.6L41.7,87.5l-14.6-4.2C27.1,83.1,40.3,40.6,40.3,40.6z"/>
<path class="st0" d="M62.9,68.9l1.8-2.4c0,0,4.8,2,8,1.8c3.2-0.2,11.6-1.8,11.6-1.8l0.4,13.8l-22.8-4C62.1,76.1,62.9,68.9,62.9,68.9
	z"/>
<path class="st0" d="M91.8,54.7c0,0-0.6-10.4-0.6-14.4c0-4.2-2.4-18.4,7-18.2c7,0.2,5.2,10.6,5.2,10.6l-2.6,3c0,0,3.8,20,5.4,25.2
	c3,10.4-0.8,13.6-0.8,13.6l-14.4,2L91.8,54.7z"/>
<path class="st1" d="M18.7,14.2c-4.2,1.2-3.6,5-3.4,6.6c0.2,1.6,1,1.8,2.8,2c1.8,0.2,15.6,2.6,18.6,3.4s11,2.6,17.6,3.2
	c6.6,0.6,26,3.6,27.8,4.2c1.8,0.4,5.4,2,14,3s13,2.2,13.6,1.6c0.6-0.6,0.4-7.8-0.4-8.8c-0.8-1-12.8-3-17-3c-4.2-0.2-6.6,0.2-6.6,0.2
	s-9.8-2-14.8-3.2c-5-1.2-13.8-2.2-19.6-2.6c-6-0.4-18-2.2-18-2.2s-5.4-2.4-7.2-3C25.1,15,22.5,13.2,18.7,14.2L18.7,14.2z"/>
<path class="st0" d="M66.7,23.4l-7.8,47.1c0,0,5.8,0.8,7.2-0.8c1.4-1.6,3.4-6.6,3.8-14.6c0.2-3.8-0.2-15.6-0.2-15.6
	s5.2,13.2,6.6,17.2c1.4,4,4.4,18.4,4.4,18.4l7.8-7.6L72,26.2C72.2,26.2,66.7,23.4,66.7,23.4z"/>
<path class="st0" d="M33.3,13.8c1.6,0.6-0.6,2.6-1,3.4C31.9,18,31.5,19,31.5,19s1.8-2,3-3c1.4-1,3.2-1.6,4.2-0.6
	c1.2,1.2-0.2,1.8-1.6,2.8c-0.4,0.4-1.2,1-1.8,1.6c-0.8,1-1.6,2.2-2,2.6c-0.6,1-1.8,1.8-2.8,1.6c-0.6-0.2-0.4-2.4-0.4-2.4
	s0,1.2-1,0.6c-1-0.6-1-3.6,0-5.6C29.9,14.8,31.7,13.2,33.3,13.8z"/>
<path class="st0" d="M37.1,22.8c2.4-2.4,6.8-3.6,5.2-5c-1.6-1.4-4.8,0.2-6.8,2.4s-2.8,5.2-1.6,5.6C34.9,26,35.7,24.2,37.1,22.8z"/>
<path class="st0" d="M96,25c-1.6,0.2-0.4,2.4,0,3.2c0.4,1.2,0.8,3,1,5c0.2,3,1.4,2.8,2,1.6c0.4-0.8,0.6-2.4,0.6-3.4
	c0-1.6-0.4-2.4-0.2-2.4c0.4,0,0.8,2.2,1,3.6c0,1.6-0.2,3.4,0.8,3.4c1.2,0.2,2-1.4,2-3.4c0-1.6-0.2-3,0-3c0.2,0,0.6,1.6,0.6,3.6
	c0,1.2-0.2,3.2,0.6,3.2c1.2-0.2,2-3.8,1.4-6.4c-0.4-2-1.8-4.4-3-4.6s-0.8,1.4-0.8,1.4s-0.6-2-2.4-2c-1.6-0.2-1.4,1.4-1.4,1.4
	S97.6,24.8,96,25z"/>
<path class="st0" d="M108.6,65.7c-2.8,0.4-6.2,5.6-6.2,5.6s-4.4-9.4-8.2-15C90.6,50.7,82,36,81,32.6c-1-3.4-1-6.2,0.2-6.4
	c1-0.2,0.4-0.6,0.4-0.6s0.6-3.8-3.2-5.4C75.2,19,72.6,21,72.6,21s-1.4-1.8-5.4-1.8s-8,1.8-10,8.2c-1.8,5.4-1.8,15.6-2,19.2
	c0,3.6-1.4,11.6-4.6,17c-3,5.4-7.4,11-8,13.8c-0.4,2.8,0.6,6.4-1.8,6.4c-2.4-0.2-4-2.6-2.2-6.6c1.8-3.8,5.4-8.2,5.4-8.2l5.4-17.6
	l3.2,1.4c0.8-3.8,1.8-9.6-8-14.4c-9.8-4.6-25.8-1-29.2,11.6c-1.2,4.2-1.2,8.2-1.2,11.4c0,5.4,1.6,12.6,3.2,18c2.4,8,6.2,13.8,7.4,16
	c2.6,4.6,7.6,9.8,8.4,9.6c0.8-0.4,1-2.2,1-2.2s1.8,2.4,5.6,5.2c3.8,2.8,9.4,6.8,10.6,6.2c1.2-0.6-0.4-3-0.4-3s4.4,2.4,8.6,3.4
	c3.4,0.8,10.8,1.2,10.8,0s-2.8-2.2-2.4-3c0.4-0.8,1.6,1.4,9.4,0.8c5.6-0.4,15.8-3.4,21.4-12c5.6-8.6,9-15,11-19.4
	c2.2-4.2,4.6-8,5.2-10C114.8,68.9,114.8,64.7,108.6,65.7z M80.6,69.5c-0.4,1.2-4,2.4-7.8,2.4c-3.8,0-7-1-8-2.8
	c-1-1.8,1.2-4.4,2.2-9.6c0.8-5.2,0.4-15,0.4-21.2c0-6,1.8-12,1.8-12s0.2,5.6,0.6,8.2c0.4,2.2,1.2,4.6,2.2,7.8
	c0.8,2.4,4.6,9.2,6.4,15C80.2,63.1,81.2,67.7,80.6,69.5z"/>
<path class="st0" d="M37.5,45.2c-5.2-0.4-3.8-2.4-8.6-2.6c-4.6-0.2-10.4,5.6-10.4,12.2c0,7,4.6,16,17,16.6c4.8,0.2,7.2-0.6,7.2-0.6
	c3.4-4.6,6.2-8.6,8.2-12.4c1.2-2.4,1.6-4.4,2-6.4c0.4-1.8,0.2-3.6-2.4-6C45.7,41.2,41.9,45.4,37.5,45.2z"/>
<ellipse class="st2" cx="27.3" cy="51.5" rx="3" ry="3"/>
<ellipse class="st2" cx="45.1" cy="52.1" rx="3" ry="2.8"/>
<path class="st2" d="M36.5,50.5c-3-0.4-4.8,1.8-4.8,1.8s0.6,1.2,1.6,2.4c0.4,0.4,1,1.6,1,2c0,0.4-1.6,0.8-2.8,0.6
	c-2.2-0.2-3-1.8-4-1c-1,0.6,0.2,2.4,1.2,2.8c1,0.6,2.4,0.8,3.6,0.6c1.6-0.2,3.2-1,3.2-1s1.8,1.4,2.8,1.6c2.2,0.6,3.6,0,4.8-0.8
	c0.8-0.6,1.6-2,1-2.4c-1.2-0.8-2,1.2-3.8,1.2c-1.8,0-3-1.4-3-1.4s1-1.2,1.4-1.6c0.6-0.6,2-2,2-2S40.1,50.9,36.5,50.5z"/>
<path class="st0" d="M39.1,96.3c-0.8,1-5.2-3-6.6-4.8c-1.4-1.8-3.6-4.4-2-5.6c1.6-1.2,3.4,2.6,4.8,4.2
	C36.5,91.9,39.7,95.7,39.1,96.3z"/>
<path class="st0" d="M43.9,95.3c-1.8,2,1.8,5.2,5,7.4c3.2,2.2,8,3.4,8.6,2.8c0.4-0.6-3.4-2.6-6.6-5.2C47.7,97.7,45.1,94.1,43.9,95.3
	z"/>
<path class="st0" d="M61.5,93.5c-0.2,1.2,2.6,2.6,6.8,2.4c4.2-0.2,7.2-2.2,7-3s-4,0.2-7,0.2C65.3,93.1,61.9,90.9,61.5,93.5z"/>
<path class="st0" d="M65.5,107.3c0,2.2,6.2,1.8,10.2,0.4c5-1.8,7.4-5.8,6.8-6.4c-0.8-0.8-3.4,2.6-8.4,3.8
	C71.8,105.7,65.5,105.1,65.5,107.3z"/>
</svg>
