<?xml version="1.0" encoding="utf-8"?>
<!-- Generator: Adobe Illustrator 24.0.0, SVG Export Plug-In . SVG Version: 6.00 Build 0)  -->
<svg version="1.1" id="Layer_1" xmlns="http://www.w3.org/2000/svg" xmlns:xlink="http://www.w3.org/1999/xlink" x="0px" y="0px"
	 viewBox="0 0 128 128" style="enable-background:new 0 0 128 128;" xml:space="preserve">
<style type="text/css">
	.st0{fill:#4B9200;}
	.st1{fill:#FFFFFF;}
</style>
<path class="st0" d="M52.3,52c0,0,0.1-6.6-0.5-8.9c-0.7-2.2-4.1-2.6-4.1-2.6s0.9-3.3,3.9-2.9c3,0.4,4.7,3.4,5.8,6.1
	c2.4,6.1,2.9,14.3,2.9,14.3L53,75.5l-7.3-2.1C45.7,73.3,52.3,52,52.3,52z"/>
<path class="st0" d="M63.6,66.2l0.9-1.2c0,0,2.4,1,4,0.9s5.8-0.9,5.8-0.9l0.2,6.9l-11.4-2C63.2,69.8,63.6,66.2,63.6,66.2z"/>
<path class="st0" d="M78.1,59.1c0,0-0.3-5.2-0.3-7.2c0-2.1-1.2-9.2,3.5-9.1c3.5,0.1,2.6,5.3,2.6,5.3l-1.3,1.5c0,0,1.9,10,2.7,12.6
	c1.5,5.2-0.4,6.8-0.4,6.8l-7.2,1L78.1,59.1z"/>
<path d="M41.5,38.8c-2.1,0.6-1.8,2.5-1.7,3.3s0.5,0.9,1.4,1s7.8,1.3,9.3,1.7s5.5,1.3,8.8,1.6s13,1.8,13.9,2.1c0.9,0.2,2.7,1,7,1.5
	s6.5,1.1,6.8,0.8s0.2-3.9-0.2-4.4c-0.4-0.5-6.4-1.5-8.5-1.5C76.2,44.8,75,45,75,45s-4.9-1-7.4-1.6s-6.9-1.1-9.8-1.3
	c-3-0.2-9-1.1-9-1.1s-2.7-1.2-3.6-1.5C44.7,39.2,43.4,38.3,41.5,38.8L41.5,38.8z"/>
<path class="st0" d="M65.5,43.4L61.6,67c0,0,2.9,0.4,3.6-0.4s1.7-3.3,1.9-7.3c0.1-1.9-0.1-7.8-0.1-7.8s2.6,6.6,3.3,8.6
	s2.2,9.2,2.2,9.2l3.9-3.8l-8.2-20.7C68.3,44.8,65.5,43.4,65.5,43.4z"/>
<path class="st0" d="M48.8,38.6c0.8,0.3-0.3,1.3-0.5,1.7s-0.4,0.9-0.4,0.9s0.9-1,1.5-1.5c0.7-0.5,1.6-0.8,2.1-0.3
	c0.6,0.6-0.1,0.9-0.8,1.4c-0.2,0.2-0.6,0.5-0.9,0.8c-0.4,0.5-0.8,1.1-1,1.3c-0.3,0.5-0.9,0.9-1.4,0.8c-0.3-0.1-0.2-1.2-0.2-1.2
	s0,0.6-0.5,0.3s-0.5-1.8,0-2.8C47.1,39.1,48,38.3,48.8,38.6z"/>
<path class="st0" d="M50.7,43.1c1.2-1.2,3.4-1.8,2.6-2.5c-0.8-0.7-2.4,0.1-3.4,1.2s-1.4,2.6-0.8,2.8C49.6,44.7,50,43.8,50.7,43.1z"
	/>
<path class="st0" d="M80.2,44.2c-0.8,0.1-0.2,1.2,0,1.6c0.2,0.6,0.4,1.5,0.5,2.5c0.1,1.5,0.7,1.4,1,0.8c0.2-0.4,0.3-1.2,0.3-1.7
	c0-0.8-0.2-1.2-0.1-1.2c0.2,0,0.4,1.1,0.5,1.8c0,0.8-0.1,1.7,0.4,1.7c0.6,0.1,1-0.7,1-1.7c0-0.8-0.1-1.5,0-1.5s0.3,0.8,0.3,1.8
	c0,0.6-0.1,1.6,0.3,1.6c0.6-0.1,1-1.9,0.7-3.2c-0.2-1-0.9-2.2-1.5-2.3s-0.4,0.7-0.4,0.7s-0.3-1-1.2-1c-0.8-0.1-0.7,0.7-0.7,0.7
	S81,44.1,80.2,44.2z"/>
<path class="st0" d="M86.5,64.6c-1.4,0.2-3.1,2.8-3.1,2.8s-2.2-4.7-4.1-7.5c-1.8-2.8-6.1-10.2-6.6-11.9s-0.5-3.1,0.1-3.2
	c0.5-0.1,0.2-0.3,0.2-0.3s0.3-1.9-1.6-2.7c-1.6-0.6-2.9,0.4-2.9,0.4s-0.7-0.9-2.7-0.9s-4,0.9-5,4.1c-0.9,2.7-0.9,7.8-1,9.6
	c0,1.8-0.7,5.8-2.3,8.5c-1.5,2.7-3.7,5.5-4,6.9c-0.2,1.4,0.3,3.2-0.9,3.2c-1.2-0.1-2-1.3-1.1-3.3c0.9-1.9,2.7-4.1,2.7-4.1l2.7-8.8
	l1.6,0.7c0.4-1.9,0.9-4.8-4-7.2c-4.9-2.3-12.9-0.5-14.6,5.8c-0.6,2.1-0.6,4.1-0.6,5.7c0,2.7,0.8,6.3,1.6,9c1.2,4,3.1,6.9,3.7,8
	c1.3,2.3,3.8,4.9,4.2,4.8c0.4-0.2,0.5-1.1,0.5-1.1s0.9,1.2,2.8,2.6c1.9,1.4,4.7,3.4,5.3,3.1s-0.2-1.5-0.2-1.5s2.2,1.2,4.3,1.7
	c1.7,0.4,5.4,0.6,5.4,0s-1.4-1.1-1.2-1.5c0.2-0.4,0.8,0.7,4.7,0.4c2.8-0.2,7.9-1.7,10.7-6c2.8-4.3,4.5-7.5,5.5-9.7
	c1.1-2.1,2.3-4,2.6-5C89.6,66.2,89.6,64.1,86.5,64.6z M72.5,66.5c-0.2,0.6-2,1.2-3.9,1.2s-3.5-0.5-4-1.4s0.6-2.2,1.1-4.8
	c0.4-2.6,0.2-7.5,0.2-10.6c0-3,0.9-6,0.9-6s0.1,2.8,0.3,4.1c0.2,1.1,0.6,2.3,1.1,3.9c0.4,1.2,2.3,4.6,3.2,7.5
	C72.3,63.3,72.8,65.6,72.5,66.5z"/>
<path class="st0" d="M50.9,54.3c-2.6-0.2-1.9-1.2-4.3-1.3c-2.3-0.1-5.2,2.8-5.2,6.1c0,3.5,2.3,8,8.5,8.3c2.4,0.1,3.6-0.3,3.6-0.3
	c1.7-2.3,3.1-4.3,4.1-6.2c0.6-1.2,0.8-2.2,1-3.2c0.2-0.9,0.1-1.8-1.2-3C55,52.3,53.1,54.4,50.9,54.3z"/>
<ellipse class="st1" cx="45.8" cy="57.5" rx="1.5" ry="1.5"/>
<ellipse class="st1" cx="54.7" cy="57.8" rx="1.5" ry="1.4"/>
<path class="st1" d="M50.4,57c-1.5-0.2-2.4,0.9-2.4,0.9s0.3,0.6,0.8,1.2c0.2,0.2,0.5,0.8,0.5,1s-0.8,0.4-1.4,0.3
	c-1.1-0.1-1.5-0.9-2-0.5c-0.5,0.3,0.1,1.2,0.6,1.4c0.5,0.3,1.2,0.4,1.8,0.3c0.8-0.1,1.6-0.5,1.6-0.5s0.9,0.7,1.4,0.8
	c1.1,0.3,1.8,0,2.4-0.4c0.4-0.3,0.8-1,0.5-1.2c-0.6-0.4-1,0.6-1.9,0.6s-1.5-0.7-1.5-0.7s0.5-0.6,0.7-0.8c0.3-0.3,1-1,1-1
	S52.2,57.2,50.4,57z"/>
<path class="st0" d="M51.7,79.9c-0.4,0.5-2.6-1.5-3.3-2.4s-1.8-2.2-1-2.8c0.8-0.6,1.7,1.3,2.4,2.1C50.4,77.7,52,79.6,51.7,79.9z"/>
<path class="st0" d="M54.1,79.4c-0.9,1,0.9,2.6,2.5,3.7s4,1.7,4.3,1.4c0.2-0.3-1.7-1.3-3.3-2.6S54.7,78.8,54.1,79.4z"/>
<path class="st0" d="M62.9,78.5c-0.1,0.6,1.3,1.3,3.4,1.2s3.6-1.1,3.5-1.5s-2,0.1-3.5,0.1S63.1,77.2,62.9,78.5z"/>
<path class="st0" d="M64.9,85.4c0,1.1,3.1,0.9,5.1,0.2c2.5-0.9,3.7-2.9,3.4-3.2c-0.4-0.4-1.7,1.3-4.2,1.9
	C68.1,84.6,64.9,84.3,64.9,85.4z"/>
</svg>
