<?xml version="1.0" encoding="utf-8"?>
<!-- Generator: Adobe Illustrator 24.0.0, SVG Export Plug-In . SVG Version: 6.00 Build 0)  -->
<svg version="1.1" id="Layer_1" xmlns="http://www.w3.org/2000/svg" xmlns:xlink="http://www.w3.org/1999/xlink" x="0px" y="0px"
	 viewBox="0 0 87 96" style="enable-background:new 0 0 87 96;" xml:space="preserve">
<style type="text/css">
	.st0{fill:#4B9200;}
	.st1{fill-rule:evenodd;clip-rule:evenodd;fill:#333B41;}
	.st2{fill:none;stroke:#333B41;stroke-width:1.5;}
	.st3{fill:#FFFFFF;filter:url(#Adobe_OpacityMaskFilter);}
	.st4{mask:url(#path-5-inside-1_29901_157_1_);fill:none;stroke:#4B9200;stroke-width:3;}
	.st5{fill:#FFFFFF;filter:url(#Adobe_OpacityMaskFilter_1_);}
	.st6{mask:url(#path-6-inside-2_29901_157_1_);fill:none;stroke:#4B9200;stroke-width:3;}
	.st7{fill:#FFFFFF;filter:url(#Adobe_OpacityMaskFilter_2_);}
	.st8{mask:url(#path-7-inside-3_29901_157_1_);fill:none;stroke:#4B9200;stroke-width:3;}
</style>
<path class="st0" d="M40,5.3c-0.3-0.3-0.7-0.6-1-0.7c-0.3-0.2-0.7-0.2-1.1-0.2c-0.5,0-0.8,0.1-1.1,0.3c-0.2,0.2-0.4,0.5-0.4,1
	c0,0.3,0.1,0.6,0.4,0.8c0.3,0.2,0.6,0.4,1,0.6c0.4,0.2,0.8,0.4,1.2,0.6c0.4,0.2,0.9,0.5,1.2,0.8c0.4,0.3,0.7,0.7,1,1.1
	s0.4,1,0.4,1.6c0,0.9-0.3,1.7-0.8,2.4c-0.5,0.7-1.3,1.1-2.3,1.4v2.1h-1.9v-2c-0.6-0.1-1.2-0.2-1.8-0.5c-0.6-0.3-1.2-0.6-1.6-1
	l1.3-1.9c0.5,0.4,1,0.7,1.4,0.9c0.5,0.2,0.9,0.3,1.4,0.3c0.5,0,1-0.1,1.2-0.3c0.3-0.2,0.4-0.6,0.4-1c0-0.3-0.1-0.6-0.4-0.9
	c-0.3-0.2-0.6-0.5-1-0.7c-0.4-0.2-0.8-0.4-1.2-0.7c-0.4-0.2-0.9-0.5-1.2-0.8c-0.4-0.3-0.7-0.7-1-1.1c-0.3-0.4-0.4-0.9-0.4-1.5
	c0-1,0.3-1.8,0.8-2.4c0.5-0.6,1.3-1,2.2-1.2V0h1.9v2c0.6,0.1,1.2,0.3,1.7,0.6c0.5,0.3,0.9,0.6,1.3,1L40,5.3z"/>
<path class="st1" d="M87,76l-3.6-2.2l-8,14.4l3.9,1.9L87,76z"/>
<path class="st2" d="M81.5,73.2c-9.4-10.8-17.7-8-28.7-0.8c-9.7,6.4-16.9,1.9-24.1,5c-1.7,0.8-4.1,2.8-1.9,4.7
	c1.1,0.8,5.5,1.7,6.9,1.4c7.5-1.7,9.7,1.7,21-0.6c-3.3,2.5-14.1,0.8-20.7,1.7c-5.3,1.1-13.8-3-6.9-7.7c-3-1.4-5.8-2.2-9.1-2.5
	c-3.3-2.5-8.6-5.5-11.3-6.6c-2.2-1.4-7.7-0.8-4.1,2.8C6,73.8,15.7,81.3,17.6,82.4c7.7,4.7,14.9,8,22.4,12.2c0,0,2.5,1.4,7.5-0.6
	c3.6-1.7,19.6-10.5,23.5-9.1c2.2,0.8,3.3,1.4,3.3,1.4L81.5,73.2z"/>
<path class="st1" d="M34.8,72.4c0.6-1.1,1.1-1.9,1.9-2.2c0.8-0.3,1.1,0.3,1.7,0.8c0.6,0.8,0.8,1.1,1.7,1.7c0.3,0.3,0.8,0.3,1.1,0.3
	l-0.6-0.3c-0.8-0.6-1.4-1.1-1.1-2.2c0-0.3-0.3-0.8,0.3-0.8c0.6,0.3,1.4,0.8,2.2,0.8c0,0,0.8,0.3,0.6,0c0-0.3-0.6-0.6-0.8-0.8
	C40,68.3,40,68,40,66c0.3-2.8-0.8-5-2.8-6.9c-4.4-4.4-2.5-10.5,0.8-16.3c3-5.3,5.8-6.1,2.8-12.4c-1.1-2.8-3-5.5-3.3-7.2
	c0-0.6,0-0.3,0,0c-0.3,1.7,0.8,4.1,1.9,6.6c2.5,5.5,1.9,6.1-1.7,11.1c-3.9,5-6.6,10.2-5,15.8c1.1,3.9,6.6,7.7,3.9,10.2
	c-1.4,1.1-3.3,3.9-3.6,5.5c-0.3,0.8-0.3,0.8-0.6,1.4c-0.3,0.3,0,0.3,0.3,0.3C34.2,73.8,34.2,73.2,34.8,72.4z"/>
<defs>
	<filter id="Adobe_OpacityMaskFilter" filterUnits="userSpaceOnUse" x="36.7" y="43.3" width="20.9" height="20.8">
		<feColorMatrix  type="matrix" values="1 0 0 0 0  0 1 0 0 0  0 0 1 0 0  0 0 0 1 0"/>
	</filter>
</defs>
<mask maskUnits="userSpaceOnUse" x="36.7" y="43.3" width="20.9" height="20.8" id="path-5-inside-1_29901_157_1_">
	<path class="st3" d="M41.1,62.2c6.9,0,12.4-8.8,12.2-14.9c-7.7,2.2-12.2,4.4-13,7.7c-0.6,1.7-0.3,2.8,1.1,3c0.8-0.3,3-3.9,7.2-5.5
		c-3.6,3.3-4.1,5.3-7.2,8h-0.3C40,60,38.9,59.1,38.6,58c-0.6-1.1-0.6-2.5-0.3-3.9c1.1-3,4.1-5.5,9.4-7.5c2.8-0.8,5.3-1.9,8-1.9
		c-1.1,6.1-1.9,11.1-5.5,14.9C45.8,64.1,41.4,62.2,41.1,62.2z"/>
</mask>
<path class="st4" d="M41.1,62.2c6.9,0,12.4-8.8,12.2-14.9c-7.7,2.2-12.2,4.4-13,7.7c-0.6,1.7-0.3,2.8,1.1,3c0.8-0.3,3-3.9,7.2-5.5
	c-3.6,3.3-4.1,5.3-7.2,8h-0.3C40,60,38.9,59.1,38.6,58c-0.6-1.1-0.6-2.5-0.3-3.9c1.1-3,4.1-5.5,9.4-7.5c2.8-0.8,5.3-1.9,8-1.9
	c-1.1,6.1-1.9,11.1-5.5,14.9C45.8,64.1,41.4,62.2,41.1,62.2z"/>
<defs>
	<filter id="Adobe_OpacityMaskFilter_1_" filterUnits="userSpaceOnUse" x="19.3" y="24.5" width="18.7" height="18.7">
		<feColorMatrix  type="matrix" values="1 0 0 0 0  0 1 0 0 0  0 0 1 0 0  0 0 0 1 0"/>
	</filter>
</defs>
<mask maskUnits="userSpaceOnUse" x="19.3" y="24.5" width="18.7" height="18.7" id="path-6-inside-2_29901_157_1_">
	<path class="st5" d="M33.9,41.2c-6.1,0.3-10.8-7.5-10.5-12.7c6.6,1.9,10.5,3.9,11.3,6.6c0.6,1.4,0,2.5-1.1,2.8
		c-0.8-0.3-2.8-3.3-6.4-4.7c3.3,2.8,3.9,4.4,6.4,6.9l0.3-0.3c1.1-0.3,1.9-0.8,2.2-1.9c0.6-1.1,0.6-2.2,0-3.3c-0.8-2.8-3.3-5-8-6.4
		c-2.5-0.8-4.4-1.7-6.9-1.9c1.1,5.3,1.7,9.7,5,13C29.8,43.1,33.6,41.4,33.9,41.2z"/>
</mask>
<path class="st6" d="M33.9,41.2c-6.1,0.3-10.8-7.5-10.5-12.7c6.6,1.9,10.5,3.9,11.3,6.6c0.6,1.4,0,2.5-1.1,2.8
	c-0.8-0.3-2.8-3.3-6.4-4.7c3.3,2.8,3.9,4.4,6.4,6.9l0.3-0.3c1.1-0.3,1.9-0.8,2.2-1.9c0.6-1.1,0.6-2.2,0-3.3c-0.8-2.8-3.3-5-8-6.4
	c-2.5-0.8-4.4-1.7-6.9-1.9c1.1,5.3,1.7,9.7,5,13C29.8,43.1,33.6,41.4,33.9,41.2z"/>
<defs>
	<filter id="Adobe_OpacityMaskFilter_2_" filterUnits="userSpaceOnUse" x="40.3" y="16.7" width="16.5" height="16.7">
		<feColorMatrix  type="matrix" values="1 0 0 0 0  0 1 0 0 0  0 0 1 0 0  0 0 0 1 0"/>
	</filter>
</defs>
<mask maskUnits="userSpaceOnUse" x="40.3" y="16.7" width="16.5" height="16.7" id="path-7-inside-3_29901_157_1_">
	<path class="st7" d="M44.2,31.5c5,0,9.1-6.4,9.1-11.1c-6.1,1.7-9.1,3.3-10,5.8c-0.3,1.1,0,1.9,0.8,2.2c0.8,0,2.5-2.8,5.5-4.1
		c-2.8,2.5-3.3,3.9-5.5,6.1c-1.1-0.3-1.7-1.1-1.9-1.9c-0.6-0.8-0.6-1.9-0.3-2.8c0.8-2.5,3-4.1,6.9-5.5c2.2-0.8,4.1-1.4,6.1-1.7
		c-0.8,4.4-1.4,8.3-4.1,11.3C47.5,33.2,44.2,31.5,44.2,31.5z"/>
</mask>
<path class="st8" d="M44.2,31.5c5,0,9.1-6.4,9.1-11.1c-6.1,1.7-9.1,3.3-10,5.8c-0.3,1.1,0,1.9,0.8,2.2c0.8,0,2.5-2.8,5.5-4.1
	c-2.8,2.5-3.3,3.9-5.5,6.1c-1.1-0.3-1.7-1.1-1.9-1.9c-0.6-0.8-0.6-1.9-0.3-2.8c0.8-2.5,3-4.1,6.9-5.5c2.2-0.8,4.1-1.4,6.1-1.7
	c-0.8,4.4-1.4,8.3-4.1,11.3C47.5,33.2,44.2,31.5,44.2,31.5z"/>
</svg>
