<?xml version="1.0" encoding="utf-8"?>
<!-- Generator: Adobe Illustrator 24.0.0, SVG Export Plug-In . SVG Version: 6.00 Build 0)  -->
<svg version="1.1" id="Layer_1" xmlns="http://www.w3.org/2000/svg" xmlns:xlink="http://www.w3.org/1999/xlink" x="0px" y="0px"
	 viewBox="0 0 87 96" style="enable-background:new 0 0 87 96;" xml:space="preserve">
<style type="text/css">
	.st0{fill:#4B9200;}
	.st1{fill-rule:evenodd;clip-rule:evenodd;fill:#333B41;}
	.st2{fill:none;stroke:#333B41;stroke-width:1.5;}
	.st3{fill:none;stroke:#4B9200;stroke-width:1.5;}
</style>
<path class="st0" d="M40,5.3c-0.3-0.3-0.7-0.6-1-0.7c-0.3-0.2-0.7-0.2-1.1-0.2c-0.5,0-0.8,0.1-1.1,0.3c-0.2,0.2-0.4,0.5-0.4,1
	c0,0.3,0.1,0.6,0.4,0.8c0.3,0.2,0.6,0.4,1,0.6c0.4,0.2,0.8,0.4,1.2,0.6c0.4,0.2,0.9,0.5,1.2,0.8c0.4,0.3,0.7,0.7,1,1.1
	s0.4,1,0.4,1.6c0,0.9-0.3,1.7-0.8,2.4c-0.5,0.7-1.3,1.1-2.3,1.4v2.1h-1.9v-2c-0.6-0.1-1.2-0.2-1.8-0.5c-0.6-0.3-1.2-0.6-1.6-1
	l1.3-1.9c0.5,0.4,1,0.7,1.4,0.9c0.5,0.2,0.9,0.3,1.4,0.3c0.5,0,1-0.1,1.2-0.3c0.3-0.2,0.4-0.6,0.4-1c0-0.3-0.1-0.6-0.4-0.9
	c-0.3-0.2-0.6-0.5-1-0.7c-0.4-0.2-0.8-0.4-1.2-0.7c-0.4-0.2-0.9-0.5-1.2-0.8c-0.4-0.3-0.7-0.7-1-1.1c-0.3-0.4-0.4-0.9-0.4-1.5
	c0-1,0.3-1.8,0.8-2.4c0.5-0.6,1.3-1,2.2-1.2V0h1.9v2c0.6,0.1,1.2,0.3,1.7,0.6c0.5,0.3,0.9,0.6,1.3,1L40,5.3z"/>
<path class="st1" d="M87,76l-3.6-2.2l-8,14.4l3.9,1.9L87,76z"/>
<path class="st2" d="M81.5,73.2c-9.4-10.8-17.7-8-28.7-0.8c-9.7,6.4-16.9,1.9-24.1,5c-1.7,0.8-4.1,2.8-1.9,4.7
	c1.1,0.8,5.5,1.7,6.9,1.4c7.5-1.7,9.7,1.7,21-0.6c-3.3,2.5-14.1,0.8-20.7,1.7c-5.3,1.1-13.8-3-6.9-7.7c-3-1.4-5.8-2.2-9.1-2.5
	c-3.3-2.5-8.6-5.5-11.3-6.6c-2.2-1.4-7.7-0.8-4.1,2.8C6,73.8,15.7,81.3,17.6,82.4c7.7,4.7,14.9,8,22.4,12.2c0,0,2.5,1.4,7.5-0.6
	c3.6-1.7,19.6-10.5,23.5-9.1c2.2,0.8,3.3,1.4,3.3,1.4L81.5,73.2z"/>
<path class="st1" d="M34.8,72.4c0.6-1.1,1.1-1.9,1.9-2.2c0.8-0.3,1.1,0.3,1.7,0.8c0.6,0.8,0.8,1.1,1.7,1.7c0.3,0.3,0.8,0.3,1.1,0.3
	l-0.6-0.3c-0.8-0.6-1.4-1.1-1.1-2.2c0-0.3-0.3-0.8,0.3-0.8c0.6,0.3,1.4,0.8,2.2,0.8c0,0,0.8,0.3,0.6,0c0-0.3-0.6-0.6-0.8-0.8
	C40,68.3,40,68,40,66c0.3-2.8-0.8-5-2.8-6.9c-4.4-4.4-2.5-10.5,0.8-16.3c3-5.3,5.8-6.1,2.8-12.4c-1.1-2.8-3-5.5-3.3-7.2
	c0-0.6,0-0.3,0,0c-0.3,1.7,0.8,4.1,1.9,6.6c2.5,5.5,1.9,6.1-1.7,11.1c-3.9,5-6.6,10.2-5,15.8c1.1,3.9,6.6,7.7,3.9,10.2
	c-1.4,1.1-3.3,3.9-3.6,5.5c-0.3,0.8-0.3,0.8-0.6,1.4c-0.3,0.3,0,0.3,0.3,0.3C34.2,73.8,34.2,73.2,34.8,72.4z"/>
<path class="st3" d="M53.1,46.5l0.9-0.3l0,0.9c0.1,3.3-1.2,7.2-3.5,10.2c-1.2,1.6-2.6,3-4.3,4c1.1-0.4,2.3-1.1,3.5-2.3
	c3.2-3.5,4.1-7.9,5.2-13.6c-1,0.1-1.9,0.3-2.9,0.6c-0.6,0.2-1.3,0.4-2,0.6c0,0-0.1,0-0.1,0c-0.6,0.2-1.3,0.4-1.9,0.6
	c-5.1,1.9-7.9,4.3-8.9,7c-0.3,1.3-0.2,2.5,0.2,3.3l0,0.1l0,0.1c0.2,0.7,0.9,1.3,1.8,1.9c1.1-1,1.8-1.9,2.5-2.8
	c-0.2,0.2-0.3,0.4-0.5,0.5c-0.1,0.1-0.2,0.3-0.4,0.4c-0.2,0.2-0.4,0.4-0.6,0.5c-0.2,0.1-0.4,0.3-0.6,0.4l-0.2,0.1l-0.2,0
	c-0.9-0.2-1.6-0.7-1.8-1.5c-0.2-0.7-0.1-1.6,0.2-2.5c0.5-1.9,2-3.4,4.3-4.7C46.1,48.8,49.2,47.6,53.1,46.5z"/>
<path class="st3" d="M26.4,28.4c-1.5-0.5-2.8-1-4.2-1.2c0,0.2,0.1,0.5,0.1,0.7c0.1,0.6,0.3,1.3,0.4,1.9c0-0.4,0-0.9,0-1.3l0-0.9
	l0.9,0.3c3.3,1,6,2,8,3.1c1.8,1,3.1,2.1,3.7,3.6c-0.8-2.3-3.1-4.2-7.4-5.5l0,0l0,0C27.3,28.7,26.8,28.5,26.4,28.4z M25.7,37.3
	c-0.6-0.8-1.1-1.6-1.5-2.5c0.6,1.4,1.4,2.7,2.6,3.9l0,0l0,0c0.6,0.7,1.3,1.2,1.9,1.5C27.5,39.5,26.5,38.4,25.7,37.3z M35.5,37.5
	c0.4-0.9,0.4-1.7,0-2.6c0.3,0.8,0.3,1.6,0,2.2c-0.3,0.7-0.9,1.2-1.7,1.4l-0.2,0.1l-0.2-0.1c-0.1,0-0.2-0.1-0.2-0.1
	c0.2,0.2,0.4,0.4,0.6,0.6l0,0c1-0.2,1.5-0.7,1.7-1.4L35.5,37.5L35.5,37.5z"/>
<path class="st3" d="M50.8,28.7c-0.3,0.4-0.7,0.8-1,1.1c0.2-0.1,0.3-0.3,0.5-0.5C50.4,29.1,50.6,28.9,50.8,28.7z M54,19.5
	C54,19.4,54,19.4,54,19.5c-1.5,0.3-3.1,0.7-4.9,1.4v0l0,0c-3.5,1.2-5.4,2.6-6.2,4.5c0.6-1.2,1.6-2.2,3.1-3c1.7-1,4.1-1.8,7.1-2.7
	L54,19.5z M43.9,29.2c-0.3-0.1-0.6-0.3-0.8-0.5c0.2,0.3,0.4,0.6,0.8,0.8c0.1-0.1,0.2-0.2,0.3-0.3c0,0-0.1,0-0.1,0H44L43.9,29.2z"/>
</svg>
