<?xml version="1.0" encoding="utf-8"?>
<!-- Generator: Adobe Illustrator 24.0.0, SVG Export Plug-In . SVG Version: 6.00 Build 0)  -->
<svg version="1.1" id="Layer_1" xmlns="http://www.w3.org/2000/svg" xmlns:xlink="http://www.w3.org/1999/xlink" x="0px" y="0px"
	 viewBox="0 0 64 30" style="enable-background:new 0 0 64 30;" xml:space="preserve">
<style type="text/css">
	.st0{fill:#E47209;}
</style>
<path class="st0" d="M22.3,17.7c-0.1-0.2-0.3-0.4-0.4-0.5c0,0,0,0,0,0c0,0,0,0,0,0c-0.5-0.1-1.7-0.2-2.6-0.3c0,0,0,0,0,0
	c0,0,0,0,0,0c0,0,0,0,0,0c0,0,0,0,0,0c0,0.3,0,0.5,0,0.7c-0.3,0.3-0.6,0.7-0.9,1.1c-0.1,0.1-0.1,0.3-0.2,0.5c0,0.2,0,0.3,0.1,0.5
	s0.2,0.3,0.3,0.4c0.1,0.1,0.3,0.1,0.4,0.1h1.6c0.1,0,0.2,0,0.4-0.1c0.1-0.1,0.2-0.2,0.3-0.3l1.2-1.9C22.3,17.8,22.3,17.8,22.3,17.7
	C22.3,17.7,22.3,17.7,22.3,17.7L22.3,17.7z M55.1,11.6c-1.3-1.5-3.3-2.8-6.2-4.1c-5.3-2.4-18-4.2-18.5-4.3c-0.1,0-0.1,0-0.2,0
	l-4.4,1.3h-6.4c-1.3,0-3.4,0.6-3.9,2.1c-1.6,1-3.5,2.3-4,2.6C11,9.2,9.3,9.1,7.8,10c-0.2,0.2-0.5,0.4-0.6,0.7C7.1,11,7,11.3,7,11.7
	s0.1,0.7,0.3,0.9c0.2,0.3,0.4,0.5,0.7,0.6c0,0,0,0,0,0c0.2,0.1,4.3,1.5,5.8,1.7c0.4,0.1,0.9,0.1,1.4,0.2c0.9,0.2,1.9,0.3,3,0.5
	c0,0,0,0,0,0c0,0,0,0,0,0l4.2,0.5c0,0,0.9,1.4,1,1.6c-0.2,0.3-0.4,0.7-0.5,1.1c0,0.1-0.1,0.3-0.1,0.4c0,0.1,0.1,0.3,0.1,0.4
	c0.1,0.1,0.2,0.2,0.3,0.3c0.1,0.1,0.2,0.1,0.4,0.1h1.6c0.1,0,0.3,0,0.4-0.1c0.1-0.1,0.2-0.2,0.3-0.3l1.2-1.8
	c0.1-0.2,0.2-0.4,0.2-0.6c0-0.2,0-0.4,0-0.7c0,0,0,0,0,0c0,0,0,0,0,0c0,0,0,0,0,0c0,0,0,0,0,0c1.2,0,5.6,0,7.1-0.1c0,0,0,0,0.1,0
	c0,0,0,0,0,0.1c0.1,0.3,0.1,0.5,0,0.8c-0.5,0.3-0.9,0.8-1.2,1.4c-0.1,0.1-0.1,0.3-0.1,0.5c0,0.2,0,0.3,0.1,0.5
	c0.1,0.1,0.2,0.3,0.3,0.3c0.1,0.1,0.2,0.1,0.4,0.1h2.2c0.2,0,0.3,0,0.4-0.1c0.4-0.4,1.4-1.4,1.6-1.6c0,0,0,0,0-0.1l1-2.4l0.2,0
	c0.3,0,0.8-0.1,1.5-0.1c2.2-0.1,6.4-0.7,8-1c0.6-0.1,1.6,0.4,2.1,1.1c0.2,0.2,0.4,0.7,0.3,1.1c-0.4,1.6-2,3-4.6,4.1
	c-3.3,1.3-13.4,1.8-17.7,1.9c-0.2,0-0.5,0.1-0.7,0.3c-0.2,0.2-0.3,0.4-0.3,0.7c0,0.3,0,0.6,0.1,0.8c0.1,0.3,0.3,0.4,0.5,0.6
	c1.8,0.9,4.9,1.4,8.9,1.4c3.3,0,7.2-0.4,11.4-1.4c5.5-1.3,8-5.6,8-9C57,14.6,56.4,13,55.1,11.6z M16.6,8c0.1,0,0.2,0,0.3,0.1
	C17,8.1,17,8.2,17.1,8.4c0,0.1,0.1,0.3,0,0.4C17.1,8.9,17,9,17,9.1c-0.1,0.1-0.2,0.2-0.3,0.2c-0.1,0-0.2,0-0.3,0
	c-0.1-0.1-0.2-0.1-0.2-0.2C16.1,8.9,16,8.7,16,8.6c0-0.2,0.1-0.3,0.2-0.5C16.3,8,16.4,8,16.6,8z M15.3,14.1c-0.5-0.1-1-0.2-1.4-0.2
	c-1-0.2-3.6-1-4.9-1.4c0.4,0.1,0.8,0.1,0.8,0.1c0.3,0,0.9,0,1.6,0c0.6,0,1.3,0,2,0.1l0.6,0.8c0,0,0,0,0,0c0,0,0,0,0.1,0s0,0,0.1,0
	c0,0,0,0,0-0.1l0.3-0.8c0.2,0,0.4,0,0.5,0l0.5,0.8c0,0,0,0,0,0c0,0,0,0,0.1,0c0,0,0,0,0.1,0c0,0,0,0,0-0.1l0.4-0.8
	c1.7-0.1,4.4-0.3,5.8,2.5C19.2,14.8,17.1,14.4,15.3,14.1z M38.7,19c0,0.2,0,0.3,0,0.5c0,0.2,0.1,0.3,0.2,0.4
	c0.1,0.2,0.3,0.3,0.5,0.3h2.1c0.1,0,0.3,0,0.4-0.1c0.1-0.1,0.2-0.2,0.3-0.3l1.3-2c0.1-0.1,0.1-0.3,0.2-0.4c0-0.1,0-0.3,0-0.5l0-0.4
	c0,0,0-0.1,0-0.1c0,0,0,0-0.1,0c-0.9,0.1-3.3,0.2-3.8,0.3c0,0,0,0-0.1,0c0,0,0,0,0,0.1c0,0.2,0,0.4,0,0.6c-0.2,0.2-0.4,0.4-0.6,0.7
	C38.9,18.3,38.7,18.6,38.7,19L38.7,19z"/>
</svg>
