<?xml version="1.0" encoding="utf-8"?>
<!-- Generator: Adobe Illustrator 24.0.0, SVG Export Plug-In . SVG Version: 6.00 Build 0)  -->
<svg version="1.1" id="Layer_1" xmlns="http://www.w3.org/2000/svg" xmlns:xlink="http://www.w3.org/1999/xlink" x="0px" y="0px"
	 viewBox="0 0 54 48" style="enable-background:new 0 0 54 48;" xml:space="preserve">
<path d="M20.1,25l2.7-9.9l6.9-4.5H31l7.1-4.3v1.3l-6.5,3.8L40,8.1l3,0.1l-2.1,1.9l-8.5,2.8l9.8-1.8l3.7,0.1l-3.3,1.3L34,14.1
	l9.1-0.1l4,1l-4,1.3l-8.2-0.5l6.6,1.3l1.8,1.6l-2.6,0.2l-5.2-1.6l5.1,2.4l0.9,1.6l-5,0.2l1.3,1l0.4,1.7l-1.6,0.7l0.5,1.5L35.7,27
	l0.1,1h-2.3v1.1h-1.9l0.7,0.8l-2.9-0.4l2.9,1.5l2.3,1.3l8.4,0.6l1.2,1.2l-1.2,0.7l-5.9-1.5l6.6,2.1l1,1h-2.7l-4.9-1.6l5.8,2.2l0.7,1
	l-1.7,0.4l-8.9-3.3l-2.7-0.1l1.8,2.5L30.5,37l1.1,1.3l-6-0.3l-2.1-1.3l-0.3-1.6l-1.6-3.5l-5.9-3.2h1.6l-1.6-1.1l2.1-0.1l-1.4-0.6
	l1.3-0.1l-1.3-0.7l1.6-0.4l-1.3-1L20.1,25z"/>
<path d="M20.1,23.4l-7.3-1.8l-1-2.1L10.4,21v1.2l4.4,1.8l5.1,0.7L20.1,23.4z"/>
<path d="M26.7,39.3l-1.4,0.8v0.7l0.2,0.5L24.4,41v-1l-0.7,0.9l0.4,0.8l-1.3-1l1.4-1.4l1-0.1L26.7,39.3z"/>
<path d="M23.4,39.1l-1,0.4l-0.3,0.9l0.7,0.7l-0.4-0.7L23.4,39.1z"/>
<path d="M23.4,38.5l-1.5,0.9l-0.3,0.5L21.1,40l0.6-1l-1,0.4l-0.3,1L20,39.9l0.6-1.1l-0.8,0.5l-0.1,0.8l-0.4-0.7l1-1.1h1.8l0.5-0.5
	L23.4,38.5z"/>
<path d="M7.4,26.3l0.9-0.7h1.4l0.1-0.4l1.4-0.5h4.3l1.5,1l-2.3,0.2l2.1,0.8l-2.2,0.4l2.1,0.6h-1.9l1.3,1h-1.3l-5.4-1.5H7.9L7,27.7
	L7.4,26.3z M11,26.1c0.2,0,0.4-0.1,0.4-0.3c0-0.1-0.1-0.3-0.4-0.3c-0.2,0-0.4,0.1-0.4,0.3S10.7,26.1,11,26.1z"/>
</svg>
