<?xml version="1.0" encoding="utf-8"?>
<!-- Generator: Adobe Illustrator 24.0.0, SVG Export Plug-In . SVG Version: 6.00 Build 0)  -->
<svg version="1.1" id="Layer_1" xmlns="http://www.w3.org/2000/svg" xmlns:xlink="http://www.w3.org/1999/xlink" x="0px" y="0px"
	 viewBox="0 0 55 47" style="enable-background:new 0 0 55 47;" xml:space="preserve">
<style type="text/css">
	.st0{fill:#E47209;}
</style>
<path class="st0" d="M28.8,15.2c0,0,1.7-1.7,3.3-2.3c0,0-3.6-4.9-11.3-6.5c0,0-2.6,1.6-3.1,4.6c0,0-2,0.4-2,1.5l2.5,0.9
	c0,0,4.6-0.7,5.2-0.6s0.1,1.8-0.4,2.1c0,0,0.1,0.6,0.5,0.8c0,0-1.2,1.9-4.3,0.9c0,0,1.7,2.8-2.6,3.6c0,0-2.5-0.6-2.8-3.1
	c0,0,2.9,0.2,3.2,0.5c0,0,0.7-0.4-1.7-0.7c0,0-0.4-0.3,0.9-1.2l-0.9-0.1l-0.2-2c0,0-5.4,0.9-6.8,4.3c0,0-3,6.8,3.7,21.5
	c0,0,4.4,0.7,7.4-0.1c0,0,0.1-2.1-0.2-2.4l-2-0.9c0,0,3.8-5.3,2.7-6.2c0,0-1.2-0.8-1.5-1.3c0,0,1.7,0.7,2.3,0.7c0,0,0.8-2.4,2.3-4.1
	c0,0-3.6,11.5-2.1,14.7c0,0,10,2.3,9.4-1.1c0,0,0.1-1.2-1.5-2.3c0,0,2.8-2.4,2.8-2.8c0,0,2.3-0.9,0.6-4.9c-1.7-4-0.1-0.1-0.1-0.1
	s11.3-8.1,4.1-14.4C36.3,14.4,33.4,11.7,28.8,15.2z"/>
<path class="st0" d="M22.5,13.8h-1.6h-4.2l-1.1-0.5c0,0,0.5,1.7,0.7,1.7c0,0,1.3,0.1,2-0.4c0,0,1.4,1.1,1.8,1.1
	C20.2,15.7,22.3,14.9,22.5,13.8z"/>
<path class="st0" d="M18.1,15.2L17.6,16c0,0-0.4,0.4,0.5,0.4h0.7v-1c0,0-0.4-0.2-0.5-0.2"/>
<path class="st0" d="M17.6,15.2L17,15.7l-0.7-0.1C16.2,15.7,16.8,15.2,17.6,15.2z"/>
<path class="st0" d="M39,22.6c0,0-2.7,4.3-5.3,6.1l0.4,2.7c0,0,1.4-0.3,1.5-0.2c0.1,0.1,3.8,5.8,3.7,6.1c0,0-1.2,0.4-1.2,0.7
	L38,39.1c0,0,6.5,0.5,8.4,0c0,0,2-1.7,0.4-5.6c0,0-2.8-2.5-2.9-3.3c0,0-0.5-1.5,0.4-3.2C44.3,26.8,45.7,22.2,39,22.6z"/>
<path class="st0" d="M33.9,32.6c0,0,0.1,1.5-3.8,3.8c0,0,1.8,1.7,1.4,2.3l1.8-0.1c0,0,1.2-2.6,1.2-2.9c0,0-0.9-0.6-1-0.9
	c0,0,3.2-1.3,2-2.2C35.1,32.4,33.9,32.4,33.9,32.6z"/>
</svg>
