<?xml version="1.0" encoding="utf-8"?>
<!-- Generator: Adobe Illustrator 24.0.0, SVG Export Plug-In . SVG Version: 6.00 Build 0)  -->
<svg version="1.1" id="Layer_1" xmlns="http://www.w3.org/2000/svg" xmlns:xlink="http://www.w3.org/1999/xlink" x="0px" y="0px"
	 viewBox="0 0 512 512" style="enable-background:new 0 0 512 512;" xml:space="preserve">
<path d="M253.7,167.7c-40.9,0-81,27.5-96.5,47.3c-36.4,46.3-56.8,140.2,92.6,115.8c44.1-7.2,72-49.4,77.9-86.8
	c20.9,7.3,52.7-1.3,53.4-20.3c0.9-25.5-43.9-52.8-69.5-32.3C293.9,174.2,273.7,167.7,253.7,167.7L253.7,167.7z M354.3,221.6
	c2.6,0,4.8,2.1,4.8,4.8s-2.1,4.8-4.8,4.8s-4.8-2.1-4.8-4.8S351.6,221.6,354.3,221.6z M368.8,251.5c-4.7,2.4-10,4.1-15.4,4.9
	c11.7,23.4,15.6,49.2,24.2,73.5C379,312.6,378.9,279.5,368.8,251.5L368.8,251.5z M246.7,341.5c-3.2,0.8-6.4,1.5-9.6,2l11.6,24.3
	c-9.8,0-20.2,0.2-31.3,0.7l-6.3-23.5c-3.4-0.2-6.8-0.5-10.1-0.9l6.7,25c-3.8,0.2-7.6,0.5-11.5,0.8l0.8,9.5c40.5-3.4,73.3-2.2,97.4,0
	l0.9-9.5c-10.4-1-22.4-1.7-35.9-2L246.7,341.5z"/>
</svg>
