<?xml version="1.0" encoding="utf-8"?>
<!-- Generator: Adobe Illustrator 24.0.0, SVG Export Plug-In . SVG Version: 6.00 Build 0)  -->
<svg version="1.1" id="Layer_1" xmlns="http://www.w3.org/2000/svg" xmlns:xlink="http://www.w3.org/1999/xlink" x="0px" y="0px"
	 viewBox="0 0 58 42" style="enable-background:new 0 0 58 42;" xml:space="preserve">
<style type="text/css">
	.st0{fill:#4B9200;}
</style>
<path class="st0" d="M48.2,29.2c1.8-3.4,3.3-7.7,3.3-12.2c0-2.3-0.7-4.8-1.9-6.9c-1.1-1.8-3-4.1-6.4-5C39,4,34.6,5,31.2,5.8
	c-1.2,0.3-2.4,0.5-3.4,0.7c-2.3,0.3-4.7,0.2-6.7,0.2l0,0c-0.3,0-0.6,0-0.9,0c-1.3-0.1-4.3-0.1-4.3-0.1c-0.2-0.7-0.5-1.2-1-1.5
	C14.7,5,14.5,5,14.3,5S13.8,5,13.7,5.1c-0.6,0.4-0.9,1.2-0.8,2c-1,0.5-2,1.6-2.6,2.3c-0.5,0.7-0.9,1.8-1.4,2.9
	C8.4,13.4,8,14.5,7.6,15c-0.1,0.1-0.2,0.2-0.3,0.4l0,0c-0.1,0-0.2,0-0.3,0c-0.1,0-0.2,0.1-0.2,0.2s-0.2,0.2-0.2,0.2
	c0,0-0.1,0.2-0.1,0.2s0,0.2,0,0.3c0,0.1,0.1,0.2,0.2,0.3c0.1,0.1,0.2,0.2,0.2,0.2s0.2,0.1,0.3,0.1c0.1,0.2,0.2,0.5,0.3,0.8
	c0.9,1.8,2.3,2.9,3.6,4c0.7,0.5,1.3,1.1,1.9,1.6c0.4,0.5,0.7,0.9,1,1.5l0,0c0.5,1,0.9,2.2,1,3.4c0.1,1.5,0.3,5.5,0.4,6.8
	c-0.2,0.1-0.5,0.2-0.7,0.4c-0.2,0.2-0.2,0.3-0.3,0.5s-0.1,0.5,0,0.7c0.1,0.2,0.2,0.4,0.3,0.5c0.2,0.2,0.4,0.2,0.5,0.2h4.2
	c0.2,0,0.2,0,0.4-0.1c0.2-0.1,0.2-0.2,0.3-0.3c0.9-1.3,3.3-4.7,4.7-7.7c5.7,0,9.6-0.2,11.9-0.7c0.3,2.5,0.8,5.4,0.9,6.4
	c-0.2,0.1-0.3,0.2-0.4,0.3c-0.2,0.2-0.3,0.4-0.4,0.6c-0.1,0.2-0.1,0.5,0,0.7c0.1,0.2,0.2,0.5,0.4,0.6s0.4,0.2,0.6,0.2h4
	c0.2,0,0.5-0.1,0.6-0.2C43.8,35.8,46.2,33,48.2,29.2C48.1,29.3,48.1,29.3,48.2,29.2z M20.4,17.4c-1.2,3.1-3.5,5.7-5.9,6.7
	c-0.3-0.5-0.6-0.9-0.9-1.4c-0.5-0.6-1.2-1.2-1.9-1.8c-1.2-1-2.6-2-3.3-3.6c-0.5-1-0.3-1.4-0.1-1.6c0.5-0.5,1-1.7,1.6-2.9
	c0.3-0.9,0.7-1.9,1.2-2.6c0.5-0.7,1.5-1.7,2.4-2.1c0.1-0.1,0.2-0.2,0.2-0.2c0.5,0.9,1.7,0.7,2-0.1c0-0.1,0-0.1,0.1-0.2
	c1.2,0.2,3.3,0.2,4.6,0.2c0.2,0,0.5,0,0.7,0C21.8,10.8,21.6,14.2,20.4,17.4z M44.9,25.9c-0.8-0.2-4.4-0.9-7.5,1.3
	c-0.2-1.2-0.2-2.2-0.2-2.6c0-0.2-0.1-0.2-0.2-0.3c-0.1-0.1-0.2-0.2-0.2-0.2s-0.2,0.1-0.3,0.2c-0.1,0.1-0.2,0.2-0.2,0.3
	c0,0.5,0.2,1.7,0.3,3c-1.9,0.4-5.1,0.6-9.7,0.7c0.9-0.6,1.6-1.6,2.2-2.8c0.8-1.7,1.1-3.9,0.9-6.4c-0.2-2.8-1.9-6.5-3.4-9.5
	c-0.3-0.7-0.7-1.4-0.9-1.9c0.8,0,1.6-0.1,2.3-0.2c1-0.2,2.3-0.4,3.5-0.7C34.8,6.1,39,5,43.1,6.1c5.6,1.4,7.7,7.4,7.7,10.9
	c0,4-1.2,7.8-2.8,10.9C47.4,27.2,46.5,26.2,44.9,25.9z"/>
<path class="st0" d="M11.8,11.9c-1.9-0.7-2.9,1.3-1.8,2.5c0.6,0.6,1.2,2.2,2.6,2C14.9,16.1,14.8,13,11.8,11.9z M11,13.8
	c-0.1,0-0.2,0-0.3-0.1s-0.2-0.2-0.2-0.2c-0.1-0.1-0.1-0.2,0-0.3c0-0.1,0.1-0.2,0.2-0.3s0.2-0.2,0.3-0.2c0.1,0,0.2,0,0.3,0
	c0.1,0.1,0.2,0.1,0.2,0.2c0.1,0.1,0.1,0.2,0.1,0.3c0,0.2-0.1,0.3-0.2,0.4C11.3,13.7,11.1,13.8,11,13.8z"/>
<path class="st0" d="M29.2,29.6C29.1,29.6,29.1,29.6,29.2,29.6c-0.1-0.1-0.1-0.1-0.2-0.1c-0.5,0-2.8,0-3.7,0.1c0,0,0,0-0.1,0l0,0
	c-0.6,1.2-1.7,3.2-2.5,4.4v0.1v0.1l1,1.4l0,0l0,0c-0.1,0.2-0.2,0.3-0.2,0.5c0,0.2,0,0.4,0.1,0.5c0.1,0.2,0.2,0.3,0.3,0.4
	c0.2,0.1,0.3,0.2,0.5,0.2h4.3c0.1,0,0.2,0,0.3-0.1c0.1-0.1,0.2-0.2,0.3-0.2c0.1-0.1,0.2-0.2,0.2-0.4c0.2,0,0.2-0.2,0.2-0.3
	c0-0.7-0.1-1.9-0.2-3.1C29.5,32,29.4,30.8,29.2,29.6z"/>
<path class="st0" d="M50.3,26.5C50.3,26.5,50.2,26.5,50.3,26.5C50.2,26.5,50.2,26.5,50.3,26.5c-0.1-0.1-0.1-0.1-0.2-0.1
	c0,0,0,0,0,0.1c-0.2,0.3-0.2,0.7-0.4,1c-1.2,2.6-2.8,5.1-4.5,7.4v0.1v0.1l0.3,0.4c-0.1,0.2-0.2,0.2-0.2,0.4
	c-0.1,0.2-0.1,0.3-0.1,0.5c0,0.2,0.1,0.3,0.2,0.5c0.1,0.2,0.2,0.2,0.3,0.3c0.2,0.1,0.2,0.2,0.4,0.2h4.5c0.1,0,0.2,0,0.3-0.1
	c0.1-0.1,0.2-0.2,0.3-0.2c0.1-0.1,0.2-0.2,0.2-0.3c0.1-0.2,0.1-0.2,0.1-0.4C51.4,34.2,51.2,29.6,50.3,26.5z"/>
</svg>
