<?xml version="1.0" encoding="utf-8"?>
<!-- Generator: Adobe Illustrator 24.0.0, SVG Export Plug-In . SVG Version: 6.00 Build 0)  -->
<svg version="1.1" id="Layer_1" xmlns="http://www.w3.org/2000/svg" xmlns:xlink="http://www.w3.org/1999/xlink" x="0px" y="0px"
	 viewBox="0 0 50 49" style="enable-background:new 0 0 50 49;" xml:space="preserve">
<style type="text/css">
	.st0{fill:#E47209;}
</style>
<path class="st0" d="M30.5,11.8c-0.6-0.2-4.8-1.4-6.1,0.4c0,0-0.5,0.4,0.3,1.5c0,0,0.6-1.2,1.5-1.3c0.2,0,0.4,0,0.6,0l0.1-0.9
	l0.2,0.9c1.1,0,2.8,0.1,3.4,0c0,0-0.4,0.3-2.1,0.4l0.1,1.6L28,12.8c-0.6,0-1.2,0.1-1.8,0.2l0.1,2.1l-0.6-1.8c-0.4,0.2-0.8,0.6-1.3,1
	c0,0,0.6,1.6,2.1,1.6c1.5,0,4.9-2.7,5.4-4.2C32.1,11.6,31.2,12,30.5,11.8z"/>
<path class="st0" d="M26.4,6.1c-0.6,0.2-4.6,2.1-4.2,4.4c0,0-0.1,0.6,1.2,0.9c0,0-0.3-1.3,0.2-2c0.1-0.2,0.2-0.2,0.5-0.5l-0.5-0.7
	l0.8,0.6c0.9-0.8,2.2-1.8,2.5-2.2c0,0-0.1,0.6-1.3,1.7l1.1,1.2l-1.4-0.9c-0.5,0.5-0.9,0.8-1.1,1.4l1.4,1.4l-1.6-1
	c-0.2,0.4-0.2,1-0.2,1.6c0,0,1.5,0.9,2.6-0.2c1-1.1,1.7-5.3,1-6.7C27.5,4.9,27.1,5.9,26.4,6.1z"/>
<path class="st0" d="M44.8,20.9c-0.1-1.8-2.1-3.6-3-4.6c-0.9-1-2.6-1.4-4.2-1.4s-2.4,1.3-2.4,1.3s2.2-0.6,2.9-0.4s3.8,2.3,5,4.6
	c1.3,2.3-0.2,3.9-0.7,5.1c-0.6,1.2-3.2,1.5-5.4,1.3c-2.2-0.2-3.4-1.3-3.8-2.3c-0.5-1-0.4-2.8-0.4-2.8l-5.6,4.2
	c0.5,0.9,2.5,1.6,4,1.8c1.5,0.2,3.5,1,4.1,1.4c0.6,0.4-0.4,0.9-0.4,0.9c-1.9-1.1-6.2-2.5-7.1-2.5c-0.9,0-5-5-6.1-6.6
	c-1.1-1.6-0.6-3-0.6-4.1c0-1.1,1.5-4.4,1.5-4.4s-0.3-1.6-2.4,0.2c-1.7,1.4-3.4,4.3-4.2,8.2c0.8-0.7,1.4-1.4,1.4-1.4l-1.6,2.2
	c-0.1,0.6-0.2,1.4-0.2,2.1c0,0.6-0.1,1-0.1,1.5l1.4-1.1l-1.4,1.6c0.1,1.8,0.3,3.2,0.7,4.3l1-1.7l-0.6,2.6c0.3,0.7,0.6,1.4,1,2
	c0.5,1.1,1.6,2.4,2.6,3.5l1.6-1.4l-0.8,2.2c0.5,0.5,0.8,0.8,1,1c0.6,0.6-0.2,1-0.2,1c-2.9-1.1-6.4-8.1-6.4-8.1s-3,0.3-4.6-1.9
	s-0.4-5,0.4-6.7c0.8-1.6,0-1.2,0-1.2s-1.5,0.2-1.9,0.4c-0.4,0.2-3,3.3-3.4,3.7s-0.4,1-0.4,1l1-1c0,0-0.3,1-0.7,1.8
	C5.2,27.9,5,29.5,5,29.5l1-1.3v4c-0.3,1.8,0,2.5,0,2.5L6.6,32c0,0,0,2.2,0,2.8c0,0.7,1.6,3.9,3.2,6.5c1.5,2.6,11.7,3,13.8,2.7
	c2.1-0.2,8.5-4.1,11.8-7l-3,0.5l4.2-1.8c0.6-0.7,1.1-1.4,1.6-2.2l-2.4,1c0.1-0.1,1.4-0.9,2.8-1.7c1.6-2.6,2.6-5.1,2.6-5.1
	s2.4-1.3,3.3-2.7C45.3,23.7,44.9,22.7,44.8,20.9z"/>
<path class="st0" d="M36.5,18.6c0.3,0,0.6-0.2,0.6-0.6s-0.2-0.6-0.6-0.6c-0.3,0-0.6,0.2-0.6,0.6C36,18.3,36.2,18.6,36.5,18.6z"/>
<path class="st0" d="M40.8,22.9c0.3,0,0.6-0.3,0.6-0.6s-0.2-0.6-0.6-0.6c-0.4,0-0.6,0.3-0.6,0.6C40.3,22.7,40.5,22.9,40.8,22.9z"/>
<path class="st0" d="M36.5,26.1c0.8,0.1,3.8-0.1,4.7-0.5s2-1.8,1.8-3c-0.2-1.2-1-3.7-2.5-4.7c-1.5-1-2.7-1.5-3.4-1.5
	S35.5,16.3,35,17c0,0-0.7,0.4-1,2.3c-0.3,1.8-0.7,3.3-0.2,4.5C34.4,25,35.7,26,36.5,26.1z M36.9,17.2c1,0.8,0.9,1.4,0.6,1.9
	c-0.3,0.5-0.7,1-0.7,1l-0.4,0.2l-0.6-0.4l-0.2,0.4l0.2,1.4c0,0,0.6,1.4,1.5,1.6c0.9,0.2,1.5,0.2,1.5-0.2S38.6,22.4,39,22
	c0.4-0.4,1.8-1,2.2-0.7c0.4,0.4,1,2.4,0.5,2.8c-0.4,0.4-0.4,0.4-0.7,0c-0.4-0.4-1.2-2.1-1.2-2.1s-0.7,0-0.7,0.6
	c0,0.6,0.4,0.9-0.2,1.1c-0.6,0.2-2.4-0.2-2.7-0.4c-0.3-0.3-0.7-1-0.8-1.6s-0.3-1.3-0.2-1.6c0.2-0.4,0.4-1,0.7-0.7
	c0.2,0.3,0.5,0.7,0.8,0.4c0.3-0.3,0.5-0.8,0.5-0.8s-1.3-0.2-2.2-1C35,18,36,16.4,36.9,17.2z M38.4,22.1l-0.6,0.6c0,0-1-0.2-1.5-1
	c-0.6-0.8,0.6-1.2,0.6-1.2C37.7,20.9,38.4,22.1,38.4,22.1z"/>
</svg>
